<svg width="32" height="32" viewBox="0 0 32 32" fill="none" xmlns="http://www.w3.org/2000/svg">
<path fill-rule="evenodd" clip-rule="evenodd" d="M32 10.0097C32 9.62741 32 9.24516 32 8.86291C32 8.54288 31.9956 8.21841 31.9867 7.89839C31.9689 7.19611 31.9244 6.48939 31.8 5.796C31.6756 5.09373 31.4667 4.4359 31.1422 3.79585C30.8222 3.16913 30.4044 2.59131 29.9067 2.09349C29.4089 1.59568 28.8311 1.17787 28.2044 0.857844C27.5644 0.533374 26.9111 0.324469 26.2089 0.200015C25.5156 0.0755614 24.8089 0.0355583 24.1067 0.0133344C23.7822 0.00888957 23.4578 0.00444479 23.1378 0C22.7556 0 22.3733 0 21.9911 0H10.0089C9.62667 0 9.24444 0 8.86222 0C8.54222 0 8.21778 0.00444479 7.89778 0.0133344C7.19556 0.0311135 6.48889 0.0755614 5.79556 0.200015C5.09333 0.328914 4.43556 0.533374 3.8 0.862289C3.16889 1.18231 2.59556 1.60012 2.09778 2.09794C1.6 2.59576 1.17778 3.16913 0.857778 3.80029C0.533333 4.44034 0.324444 5.09373 0.2 5.80045C0.0755556 6.49383 0.0355556 7.20056 0.0133333 7.90283C0.00888889 8.22286 0.00444444 8.54288 0 8.86291C0 9.24516 0 9.62741 0 10.0097V21.9884C0 22.3706 0 22.7529 0 23.1351C0 23.4551 0.00444444 23.7796 0.0133333 24.0996C0.0311111 24.8019 0.0755556 25.5086 0.2 26.202C0.324444 26.9043 0.533333 27.5621 0.857778 28.2022C1.17778 28.8289 1.59556 29.4067 2.09333 29.9045C2.59111 30.4023 3.16889 30.8202 3.79556 31.1402C4.43556 31.4646 5.08889 31.6736 5.79111 31.798C6.48444 31.9225 7.19111 31.9625 7.89333 31.9847C8.21333 31.9936 8.53778 31.998 8.85778 31.998C9.24 32.0025 9.62222 31.998 10.0044 31.998H21.9822C22.3644 31.998 22.7467 31.998 23.1289 31.998C23.4489 31.998 23.7733 31.9936 24.0933 31.9847C24.7956 31.9669 25.5022 31.9225 26.1956 31.798C26.8978 31.6736 27.5556 31.4646 28.1911 31.1402C28.8178 30.8202 29.3956 30.4023 29.8933 29.9045C30.3911 29.4067 30.8089 28.8333 31.1289 28.2022C31.4533 27.5621 31.6622 26.9087 31.7867 26.202C31.9111 25.5086 31.9511 24.8019 31.9733 24.0996C31.9822 23.7796 31.9867 23.4551 31.9867 23.1351C31.9911 22.7529 31.9867 22.3706 31.9867 21.9884L32 10.0097Z" fill="url(#paint0_linear_3191_37732)"/>
<path fill-rule="evenodd" clip-rule="evenodd" d="M22.6222 4.88941C22.5467 4.8983 21.8578 5.01831 21.7733 5.03609L12.2622 6.95623H12.2578C12.0089 7.00957 11.8133 7.09847 11.6667 7.22292C11.4844 7.37404 11.3867 7.59184 11.3467 7.84075C11.3378 7.89408 11.3244 8.00076 11.3244 8.16077C11.3244 8.16077 11.3244 17.8771 11.3244 20.0639C11.3244 20.3439 11.3022 20.6106 11.1155 20.8417C10.9289 21.0729 10.6933 21.1396 10.4222 21.1973C10.2133 21.2373 10.0089 21.2818 9.79999 21.3218C9.01332 21.4818 8.50221 21.5885 8.03999 21.7663C7.59555 21.9396 7.26666 22.1574 6.99999 22.433C6.47555 22.9797 6.26221 23.7264 6.33777 24.4242C6.39999 25.0198 6.66666 25.5888 7.12888 26.0066C7.43999 26.2911 7.82666 26.5089 8.28444 26.5977C8.75999 26.6911 9.26221 26.66 9.99999 26.5089C10.3911 26.4288 10.76 26.3044 11.1111 26.0999C11.4578 25.8955 11.7555 25.6243 11.9867 25.291C12.2178 24.9576 12.3689 24.5887 12.4533 24.1931C12.5378 23.7886 12.56 23.4197 12.56 23.0153V12.6945C12.56 12.1433 12.7155 11.9966 13.1644 11.8855C13.1644 11.8855 21.0711 10.2898 21.44 10.2187C21.9555 10.1209 22.1955 10.2676 22.1955 10.8054V17.8549C22.1955 18.1349 22.1911 18.4149 22.0044 18.646C21.8178 18.8772 21.5822 18.9438 21.3111 19.0016C21.1022 19.0416 20.8978 19.0861 20.6889 19.1261C19.9022 19.2861 19.3911 19.3927 18.9289 19.5705C18.4844 19.7439 18.1555 19.9617 17.8889 20.2373C17.3644 20.784 17.1333 21.5307 17.2089 22.2285C17.2711 22.8241 17.5555 23.3931 18.0178 23.8109C18.3289 24.0953 18.7155 24.3042 19.1733 24.3976C19.6489 24.4909 20.1511 24.4598 20.8889 24.3087C21.28 24.2287 21.6489 24.1131 22 23.9042C22.3467 23.6997 22.6444 23.4286 22.8755 23.0953C23.1067 22.7619 23.2578 22.393 23.3422 21.9974C23.4267 21.5929 23.4311 21.224 23.4311 20.8195V5.72947C23.4267 5.18277 23.1378 4.84496 22.6222 4.88941Z" fill="white"/>
<defs>
<linearGradient id="paint0_linear_3191_37732" x1="16" y1="31.8785" x2="16" y2="0.689742" gradientUnits="userSpaceOnUse">
<stop stop-color="#FA233B"/>
<stop offset="1" stop-color="#FB5C74"/>
</linearGradient>
</defs>
</svg>
