<svg width="77" height="77" viewBox="0 0 77 77" fill="none" xmlns="http://www.w3.org/2000/svg">
<path d="M57.4455 58.2168L56.3095 55.3648C55.5358 53.4212 54.1965 51.7546 52.465 50.5808C50.7335 49.407 48.6894 48.7799 46.5975 48.7809H30.9016C28.8105 48.7832 26.7679 49.4115 25.037 50.5849C23.3061 51.7583 21.9661 53.4231 21.1897 55.3648L20.0537 58.2168" stroke="white" stroke-width="4" stroke-linecap="round" stroke-linejoin="round"/>
<path d="M46.5256 21.4367C48.5889 23.4996 49.7483 26.2977 49.7487 29.2154C49.7491 32.1332 48.5904 34.9315 46.5276 36.9949C45.5061 38.0166 44.2935 38.8271 42.9588 39.3802C41.6242 39.9332 40.1937 40.218 38.749 40.2182C35.8313 40.2185 33.033 39.0598 30.9696 36.9969C28.9063 34.9335 27.7471 32.1349 27.7471 29.2168C27.7471 26.2987 28.9063 23.5001 30.9696 21.4367C33.033 19.3733 35.8315 18.2141 38.7496 18.2141C41.6676 18.2141 44.4662 19.3733 46.5296 21.4367" stroke="white" stroke-width="4" stroke-linecap="round" stroke-linejoin="round"/>
<path d="M21.1019 2.2168H10.75C8.62823 2.2168 6.59341 3.05967 5.09313 4.55999C3.59285 6.06031 2.75 8.09518 2.75 10.2169V20.5691" stroke="white" stroke-width="4" stroke-linecap="round" stroke-linejoin="round"/>
<path d="M56.3979 74.2168H66.7499C68.8716 74.2168 70.9064 73.374 72.4067 71.8737C73.907 70.3734 74.7498 68.3385 74.7498 66.2168V55.8647" stroke="white" stroke-width="4" stroke-linecap="round" stroke-linejoin="round"/>
<path d="M2.75 55.8647V66.2168C2.75 68.3385 3.59285 70.3734 5.09313 71.8737C6.59341 73.374 8.62823 74.2168 10.75 74.2168H21.1019" stroke="white" stroke-width="4" stroke-linecap="round" stroke-linejoin="round"/>
<path d="M74.7498 20.5691V10.2169C74.7498 8.09518 73.907 6.06031 72.4067 4.55999C70.9064 3.05967 68.8716 2.2168 66.7499 2.2168H56.3979" stroke="white" stroke-width="4" stroke-linecap="round" stroke-linejoin="round"/>
</svg>
