<svg width="508" height="318" viewBox="0 0 508 318" fill="none" xmlns="http://www.w3.org/2000/svg">
<g opacity="0.1">
<g filter="url(#filter0_d)">
<rect width="19" height="249" rx="9.5" transform="matrix(-1 0 0 1 368.332 34)" fill="white"/>
<rect width="19" height="203" rx="9.5" transform="matrix(-1 0 0 1 333.332 57)" fill="white"/>
<rect width="19" height="219" rx="9.5" transform="matrix(-1 0 0 1 438.332 49)" fill="white"/>
<rect width="19" height="121" rx="9.5" transform="matrix(-1 0 0 1 298.332 98)" fill="white"/>
<rect width="19" height="151" rx="9.5" transform="matrix(-1 0 0 1 403.332 83)" fill="white"/>
<rect width="19" height="87" rx="9.5" transform="matrix(-1 0 0 1 473.332 115)" fill="white"/>
<rect width="19" height="37" rx="9.5" transform="matrix(-1 0 0 1 263.332 140)" fill="white"/>
</g>
<g filter="url(#filter1_d)">
<rect width="19" height="249" rx="9.5" transform="matrix(-1 0 0 1 158 34.6799)" fill="white"/>
<rect width="19" height="203" rx="9.5" transform="matrix(-1 0 0 1 123 57.6799)" fill="white"/>
<rect width="19" height="219" rx="9.5" transform="matrix(-1 0 0 1 228 49.6799)" fill="white"/>
<rect width="19" height="121" rx="9.5" transform="matrix(-1 0 0 1 88 98.6799)" fill="white"/>
<rect width="19" height="151" rx="9.5" transform="matrix(-1 0 0 1 193 83.6799)" fill="white"/>
<rect width="19" height="87" rx="9.5" transform="matrix(-1 0 0 1 263 115.68)" fill="white"/>
<rect width="19" height="37" rx="9.5" transform="matrix(-1 0 0 1 53 140.68)" fill="white"/>
</g>
</g>
<defs>
<filter id="filter0_d" x="210.332" y="0" width="297" height="317" filterUnits="userSpaceOnUse" color-interpolation-filters="sRGB">
<feFlood flood-opacity="0" result="BackgroundImageFix"/>
<feColorMatrix in="SourceAlpha" type="matrix" values="0 0 0 0 0 0 0 0 0 0 0 0 0 0 0 0 0 0 127 0"/>
<feOffset/>
<feGaussianBlur stdDeviation="17"/>
<feColorMatrix type="matrix" values="0 0 0 0 1 0 0 0 0 1 0 0 0 0 1 0 0 0 0.06 0"/>
<feBlend mode="normal" in2="BackgroundImageFix" result="effect1_dropShadow"/>
<feBlend mode="normal" in="SourceGraphic" in2="effect1_dropShadow" result="shape"/>
</filter>
<filter id="filter1_d" x="0" y="0.679932" width="297" height="317" filterUnits="userSpaceOnUse" color-interpolation-filters="sRGB">
<feFlood flood-opacity="0" result="BackgroundImageFix"/>
<feColorMatrix in="SourceAlpha" type="matrix" values="0 0 0 0 0 0 0 0 0 0 0 0 0 0 0 0 0 0 127 0"/>
<feOffset/>
<feGaussianBlur stdDeviation="17"/>
<feColorMatrix type="matrix" values="0 0 0 0 1 0 0 0 0 1 0 0 0 0 1 0 0 0 0.06 0"/>
<feBlend mode="normal" in2="BackgroundImageFix" result="effect1_dropShadow"/>
<feBlend mode="normal" in="SourceGraphic" in2="effect1_dropShadow" result="shape"/>
</filter>
</defs>
</svg>
