<svg width="84" height="87" viewBox="0 0 84 87" fill="none" xmlns="http://www.w3.org/2000/svg">
<path d="M11.6084 18.0521C11.6084 14.9634 11.6084 13.4191 12.5679 12.4595C13.5275 11.5 15.0718 11.5 18.1605 11.5H64.8441C67.9328 11.5 69.4772 11.5 70.4367 12.4595C71.3962 13.4191 71.3962 14.9634 71.3962 18.0521V73.2193C71.3962 74.5365 71.3962 75.1952 70.9715 75.4285C70.5467 75.6618 69.9909 75.3083 68.8793 74.6015L68.3936 74.2927C66.5957 73.1496 65.6968 72.578 64.6879 72.2845C63.6792 71.9909 62.6139 71.9909 60.4835 71.9909H18.1605C15.0718 71.9909 13.5275 71.9909 12.5679 71.0313C11.6084 70.0718 11.6084 68.5275 11.6084 65.4388V18.0521Z" fill="#484C65"/>
<path d="M53.5801 53.7946L49.0185 51.8397C47.8836 51.3532 46.6211 52.1858 46.6211 53.4205V56.8034C46.6211 58.0383 47.8836 58.8707 49.0185 58.3843L53.5801 56.4294C54.7383 55.933 54.7383 54.291 53.5801 53.7946Z" stroke="#484C65" stroke-width="2" stroke-linecap="round" stroke-linejoin="round"/>
<path d="M52.3542 37.9131V43.6462C52.3542 44.9975 52.3542 45.6731 52.7741 46.0929C53.1938 46.5127 53.8695 46.5127 55.2208 46.5127H60.9539" stroke="#484C65" stroke-width="2"/>
<path fill-rule="evenodd" clip-rule="evenodd" d="M42.2351 55.6234C49.5998 53.6751 54.9763 47.5507 54.9763 40.2969C54.9763 37.8865 54.3826 35.6008 53.3196 33.5516C57.0418 35.7385 59.5016 39.5186 59.5016 43.8154C59.5016 47.8924 57.287 51.5043 53.8806 53.7312C53.7658 54.5153 53.9426 56.1543 55.4025 58.0218C57.3772 60.5479 51.6538 57.6519 48.3984 55.8573C47.5818 55.9946 46.7395 56.0664 45.8785 56.0664C44.6166 56.0664 43.3948 55.9121 42.2351 55.6234Z" fill="black"/>
<path d="M42.2351 55.6234L42.0049 54.7533C41.6078 54.8584 41.3321 55.2191 41.3351 55.6299C41.3381 56.0408 41.619 56.3974 42.0177 56.4967L42.2351 55.6234ZM53.3196 33.5516L53.7755 32.7756C53.4297 32.5725 52.9911 32.6227 52.7002 32.8987C52.4092 33.1748 52.336 33.61 52.5207 33.9661L53.3196 33.5516ZM53.8806 53.7312L53.3882 52.9779C53.1724 53.119 53.0275 53.3457 52.9901 53.6008L53.8806 53.7312ZM55.4025 58.0218L56.1115 57.4675L56.1115 57.4675L55.4025 58.0218ZM48.3984 55.8573L48.8329 55.0691C48.6551 54.9711 48.4493 54.9361 48.2491 54.9697L48.3984 55.8573ZM54.0763 40.2969C54.0763 47.0757 49.043 52.8915 42.0049 54.7533L42.4653 56.4934C50.1566 54.4588 55.8763 48.0256 55.8763 40.2969H54.0763ZM52.5207 33.9661C53.5201 35.8927 54.0763 38.0368 54.0763 40.2969H55.8763C55.8763 37.7362 55.2451 35.309 54.1185 33.1372L52.5207 33.9661ZM52.8637 34.3276C56.3498 36.3757 58.6016 39.8805 58.6016 43.8154H60.4016C60.4016 39.1568 57.7339 35.1012 53.7755 32.7756L52.8637 34.3276ZM58.6016 43.8154C58.6016 47.55 56.5744 50.8949 53.3882 52.9779L54.3731 54.4845C57.9996 52.1137 60.4016 48.2348 60.4016 43.8154H58.6016ZM52.9901 53.6008C52.8359 54.6535 53.0984 56.5358 54.6934 58.5761L56.1115 57.4675C54.7867 55.7728 54.6956 54.3771 54.7711 53.8617L52.9901 53.6008ZM54.6934 58.5761C54.9367 58.8873 54.9282 58.9605 54.9139 58.8736C54.9011 58.7958 54.8907 58.579 55.0546 58.3657C55.2075 58.1666 55.3964 58.1237 55.4397 58.1159C55.4946 58.106 55.4265 58.1248 55.1414 58.0498C54.8947 57.985 54.5755 57.8751 54.1943 57.7235C52.6605 57.1137 50.4588 55.9654 48.8329 55.0691L47.9639 56.6454C49.5934 57.5438 51.8811 58.7409 53.5292 59.3961C53.9435 59.5609 54.3379 59.6997 54.6836 59.7906C54.9908 59.8714 55.3936 59.953 55.7583 59.8875C55.9564 59.8518 56.2599 59.7514 56.4821 59.4621C56.7153 59.1584 56.729 58.8186 56.6901 58.5818C56.6235 58.1767 56.3619 57.7878 56.1115 57.4675L54.6934 58.5761ZM48.2491 54.9697C47.4817 55.0988 46.6894 55.1664 45.8785 55.1664V56.9664C46.7896 56.9664 47.6818 56.8904 48.5476 56.7448L48.2491 54.9697ZM45.8785 55.1664C44.6901 55.1664 43.5413 55.0211 42.4526 54.75L42.0177 56.4967C43.2483 56.8031 44.5432 56.9664 45.8785 56.9664V55.1664Z" fill="black"/>
<path d="M29.1184 50.1519L30.0087 50.0201C29.9711 49.7657 29.8264 49.5396 29.6112 49.3988L29.1184 50.1519ZM27.5971 54.4457L26.8881 53.8914L26.8881 53.8914L27.5971 54.4457ZM34.6025 52.2805L34.7519 51.393C34.5516 51.3593 34.3458 51.3943 34.168 51.4923L34.6025 52.2805ZM49.8483 40.2391C49.8483 46.4206 44.2442 51.5901 37.1252 51.5901V53.3901C45.0538 53.3901 51.6483 47.5897 51.6483 40.2391H49.8483ZM37.1252 28.888C44.2442 28.888 49.8483 34.0576 49.8483 40.2391H51.6483C51.6483 32.8885 45.0538 27.088 37.1252 27.088V28.888ZM24.4022 40.2391C24.4022 34.0576 30.0063 28.888 37.1252 28.888V27.088C29.1966 27.088 22.6022 32.8885 22.6022 40.2391H24.4022ZM29.6112 49.3988C26.4275 47.3155 24.4022 43.972 24.4022 40.2391H22.6022C22.6022 44.6565 25.0019 48.5338 28.6257 50.905L29.6112 49.3988ZM28.3062 55C29.9033 52.9569 30.1645 51.0721 30.0087 50.0201L28.2281 50.2837C28.3041 50.7971 28.2147 52.1943 26.8881 53.8914L28.3062 55ZM34.168 51.4923C32.5422 52.3886 30.3401 53.5371 28.8059 54.1472C28.4246 54.2988 28.1052 54.4088 27.8584 54.4737C27.5733 54.5487 27.505 54.53 27.5598 54.5398C27.603 54.5475 27.7919 54.5904 27.9448 54.7894C28.1088 55.0027 28.0985 55.2196 28.0857 55.2974C28.0714 55.3845 28.0628 55.3113 28.3062 55L26.8881 53.8914C26.6377 54.2117 26.3759 54.6007 26.3094 55.0059C26.2706 55.2428 26.2843 55.5827 26.5177 55.8863C26.74 56.1756 27.0435 56.2759 27.2417 56.3115C27.6063 56.3769 28.0091 56.2953 28.3164 56.2145C28.6621 56.1235 29.0567 55.9846 29.471 55.8198C31.1195 55.1643 33.4076 53.9669 35.037 53.0686L34.168 51.4923ZM37.1252 51.5901C36.3134 51.5901 35.5202 51.5223 34.7519 51.393L34.4531 53.168C35.3199 53.3139 36.2131 53.3901 37.1252 53.3901V51.5901Z" fill="black"/>
</svg>
