<svg width="84" height="87" viewBox="0 0 84 87" fill="none" xmlns="http://www.w3.org/2000/svg">
<path d="M11.6094 18.0521C11.6094 14.9634 11.6094 13.4191 12.5689 12.4595C13.5284 11.5 15.0728 11.5 18.1615 11.5H64.8451C67.9338 11.5 69.4782 11.5 70.4376 12.4595C71.3972 13.4191 71.3972 14.9634 71.3972 18.0521V73.2193C71.3972 74.5365 71.3972 75.1952 70.9724 75.4285C70.5476 75.6617 69.9919 75.3083 68.8803 74.6015L68.3945 74.2927C66.5967 73.1496 65.6978 72.578 64.6889 72.2845C63.6801 71.9909 62.6148 71.9909 60.4844 71.9909H18.1615C15.0728 71.9909 13.5284 71.9909 12.5689 71.0313C11.6094 70.0718 11.6094 68.5275 11.6094 65.4388V18.0521Z" fill="#484C65"/>
<path d="M24.9182 30.4397C24.9182 27.351 24.9182 25.8066 25.8778 24.8471C26.8372 23.8876 28.3816 23.8876 31.4703 23.8876H39.2509C42.3396 23.8876 43.884 23.8876 44.8434 24.8471C45.803 25.8066 45.803 27.351 45.803 30.4397V37.606C45.803 40.6947 45.803 42.2391 44.8434 43.1985C43.884 44.1581 42.3396 44.1581 39.2509 44.1581H31.4703C28.3816 44.1581 26.8372 44.1581 25.8778 43.1985C24.9182 42.2391 24.9182 40.6947 24.9182 37.606V30.4397Z" stroke="black" stroke-width="2"/>
<path fill-rule="evenodd" clip-rule="evenodd" d="M44.1651 36.922L42.8539 35.6494L42.816 35.6125C42.3093 35.1208 41.872 34.6962 41.4754 34.4019C41.0499 34.0862 40.579 33.8482 40.0019 33.8482C39.4246 33.8482 38.9537 34.0862 38.5282 34.4019C38.1316 34.6962 37.6944 35.1207 37.1877 35.6125L37.1497 35.6494L36.479 36.3003C36.0761 36.6915 35.8387 36.9189 35.6548 37.0513L35.6469 37.057L35.6418 37.0488C35.521 36.8571 35.3862 36.5571 35.1594 36.0435L34.5304 34.6189L34.5042 34.5597C34.0945 33.6316 33.7503 32.8521 33.397 32.2912C33.0267 31.7031 32.5471 31.1919 31.8016 31.0468C31.0561 30.9016 30.4198 31.1957 29.8559 31.6018C29.3179 31.9893 28.7065 32.5828 27.9786 33.2894L27.9322 33.3344L26.5564 34.6697V36.9524L29.073 34.5099C29.8597 33.7463 30.385 33.2394 30.8132 32.931C31.2269 32.633 31.3942 32.6362 31.4886 32.6546C31.583 32.673 31.7393 32.7328 32.011 33.1641C32.2923 33.6107 32.5891 34.2776 33.0319 35.2805L33.661 36.7051L33.6832 36.7554C33.8799 37.2011 34.0627 37.6153 34.2558 37.9218C34.4656 38.255 34.7862 38.6234 35.3217 38.7277C35.8573 38.8319 36.2926 38.6107 36.6121 38.3805C36.906 38.1688 37.2308 37.8535 37.5804 37.5141L37.6199 37.4758L38.2905 36.8248C38.8461 36.2856 39.2055 35.939 39.5043 35.7174C39.7841 35.5098 39.9148 35.4862 40.0019 35.4862C40.0888 35.4862 40.2196 35.5098 40.4993 35.7174C40.7981 35.939 41.1576 36.2856 41.7131 36.8248L44.0725 39.1148L44.1604 39.0242C44.1647 38.607 44.1651 38.1378 44.1651 37.6057V36.922Z" fill="black"/>
<path d="M40.582 30.6444C41.5431 30.6444 42.3224 29.8881 42.3224 28.9552C42.3224 28.0223 41.5431 27.266 40.582 27.266C39.6208 27.266 38.8416 28.0223 38.8416 28.9552C38.8416 29.8881 39.6208 30.6444 40.582 30.6444Z" fill="black"/>
<path d="M52.601 37.9131H46.622C43.9194 37.9131 42.5681 37.9131 41.7285 38.7527C40.8889 39.5923 40.8889 40.9436 40.8889 43.6462V57.9789C40.8889 60.6814 40.8889 62.0327 41.7285 62.8724C42.5681 63.7119 43.9194 63.7119 46.622 63.7119H55.2216C57.9242 63.7119 59.2755 63.7119 60.1151 62.8724C60.9547 62.0327 60.9547 60.6814 60.9547 57.9789V46.2668C60.9547 45.6809 60.9547 45.388 60.8456 45.1246C60.7365 44.8612 60.5294 44.6541 60.1151 44.2399L54.6279 38.7527C54.2137 38.3384 54.0065 38.1313 53.7431 38.0222C53.4797 37.9131 53.1869 37.9131 52.601 37.9131Z" fill="black" stroke="black" stroke-width="2"/>
<path d="M53.581 53.7946L49.0195 51.8397C47.8846 51.3532 46.6221 52.1858 46.6221 53.4205V56.8034C46.6221 58.0383 47.8846 58.8707 49.0195 58.3843L53.581 56.4294C54.7393 55.933 54.7393 54.291 53.581 53.7946Z" stroke="#484C65" stroke-width="2" stroke-linecap="round" stroke-linejoin="round"/>
<path d="M52.3552 37.9131V43.6462C52.3552 44.9975 52.3552 45.6731 52.775 46.0929C53.1948 46.5127 53.8705 46.5127 55.2218 46.5127H60.9548" stroke="#484C65" stroke-width="2"/>
</svg>
