<svg width="20" height="20" viewBox="0 0 20 20" fill="none" xmlns="http://www.w3.org/2000/svg">
<path d="M4.07391 13.0655L13.8067 3.33605C13.9131 3.22952 14.0394 3.14501 14.1785 3.08734C14.3176 3.02968 14.4667 3 14.6173 3C14.7679 3 14.917 3.02968 15.0561 3.08734C15.1952 3.14501 15.3215 3.22952 15.4279 3.33605L16.6638 4.57157C16.7704 4.67792 16.8549 4.80422 16.9126 4.94327C16.9703 5.08231 17 5.23136 17 5.38188C17 5.53241 16.9703 5.68145 16.9126 5.8205C16.8549 5.95954 16.7704 6.08584 16.6638 6.19219L6.92874 15.9239C6.62753 16.2249 6.24838 16.4361 5.83382 16.5337L3.94435 16.9795C3.81704 17.0095 3.68416 17.0065 3.55833 16.9708C3.4325 16.9351 3.31788 16.8678 3.22533 16.7754C3.13278 16.683 3.06536 16.5685 3.02948 16.4428C2.99359 16.317 2.99042 16.1842 3.02026 16.0569L3.46282 14.1646C3.56027 13.7486 3.77238 13.3681 4.07391 13.0655V13.0655Z" stroke="#7AA9FF" stroke-width="2" stroke-linecap="round" stroke-linejoin="round"/>
<path d="M11.9839 5.14917L14.8502 8.01449" stroke="#7AA9FF" stroke-width="2" stroke-linecap="round" stroke-linejoin="round"/>
</svg>
