<svg width="17" height="17" viewBox="0 0 17 17" fill="none" xmlns="http://www.w3.org/2000/svg">
<path d="M3.42286 7.58153C3.39236 6.45615 4.29633 5.52734 5.42212 5.52734H12.3297C13.4488 5.52734 14.3502 6.44555 14.3294 7.56444L14.2572 11.458C14.2369 12.5479 13.3476 13.4209 12.2575 13.4209H5.52764C4.44418 13.4209 3.55773 12.5581 3.52838 11.4751L3.42286 7.58153Z" stroke="#EAD5FF"/>
<path d="M7.09766 3.73535L8.20199 4.65557C8.56705 4.95976 9.09576 4.96504 9.46683 4.6682L10.633 3.73535" stroke="#EAD5FF" stroke-linecap="round"/>
<path d="M8.05859 10.6421V8.30532C8.05859 8.22916 8.14034 8.18095 8.20699 8.21781L10.2988 9.3747C10.3673 9.41257 10.3677 9.51086 10.2995 9.54931L8.20772 10.7292C8.14106 10.7668 8.05859 10.7186 8.05859 10.6421Z" stroke="#EAD5FF"/>
</svg>
