<svg width="33" height="32" viewBox="0 0 33 32" fill="none" xmlns="http://www.w3.org/2000/svg">
<path d="M5.49921 12.6172C5.56982 10.4601 7.33888 8.74805 9.49707 8.74805H23.5086C25.6667 8.74805 27.4357 10.4601 27.5064 12.6171L27.7398 19.7385C27.8879 24.257 24.2651 28.0005 19.7441 28.0005H13.2618C8.74093 28.0005 5.11817 24.2572 5.26609 19.7388L5.49921 12.6172Z" stroke="black" stroke-width="2"/>
<path d="M20.7725 12.8418C20.7725 15.1701 18.885 17.0576 16.5566 17.0576C14.2283 17.0576 12.3408 15.1701 12.3408 12.8418" stroke="black" stroke-width="2" stroke-linecap="round"/>
<path d="M12.3408 8.21586C12.3408 5.8875 14.2283 4 16.5567 4C18.885 4 20.7725 5.8875 20.7725 8.21586" stroke="black" stroke-width="2" stroke-linecap="round"/>
</svg>
