<svg width="37" height="36" viewBox="0 0 37 36" fill="none" xmlns="http://www.w3.org/2000/svg">
<path fill-rule="evenodd" clip-rule="evenodd" d="M8.38672 15.582C8.38672 11.3946 11.7813 8 15.9688 8C20.1562 8 23.5508 11.3946 23.5508 15.582C23.5508 19.7694 20.1562 23.164 15.9688 23.164C11.7813 23.164 8.38672 19.7694 8.38672 15.582ZM15.9688 6C10.6768 6 6.38672 10.29 6.38672 15.582C6.38672 20.874 10.6768 25.164 15.9688 25.164C18.3331 25.164 20.4974 24.3077 22.1685 22.8883L28.9871 29.7072C29.3776 30.0977 30.0108 30.0977 30.4013 29.7072C30.7919 29.3167 30.7919 28.6835 30.4014 28.293L23.5506 21.442C24.8045 19.822 25.5508 17.7891 25.5508 15.582C25.5508 10.29 21.2607 6 15.9688 6Z" fill="#DAEF64" stroke="#DAEF64" stroke-width="1.5"/>
</svg>
