<svg width="32" height="33" viewBox="0 0 32 33" fill="none" xmlns="http://www.w3.org/2000/svg">
<path d="M14.0892 22.0292L24.412 11.7064C24.7885 11.3297 25 10.819 25 10.2865C25 9.75392 24.7885 9.24319 24.412 8.86657L23.2853 7.73889C22.9087 7.36239 22.398 7.15088 21.8654 7.15088C21.3329 7.15088 20.8221 7.36239 20.4455 7.73889L10.1217 18.0627C9.97538 18.2094 9.85244 18.3778 9.75719 18.5618L7.11624 23.679C6.66838 24.5476 7.59924 25.4795 8.46784 25.0326L13.5881 22.3957C13.7739 22.2993 13.9426 22.1768 14.0892 22.0292V22.0292Z" stroke="white" stroke-width="1.8" stroke-linecap="round" stroke-linejoin="round"/>
<path d="M9.93994 18.3188L13.8361 22.215" stroke="white" stroke-width="1.8" stroke-linecap="round" stroke-linejoin="round"/>
<path d="M22.0804 25.1572H8.06226" stroke="white" stroke-width="1.8" stroke-linecap="round" stroke-linejoin="round"/>
</svg>
