<svg width="32" height="33" viewBox="0 0 32 33" fill="none" xmlns="http://www.w3.org/2000/svg">
<path d="M16 26.5752C21.5228 26.5752 26 22.098 26 16.5752C26 11.0523 21.5228 6.5752 16 6.5752C10.4772 6.5752 6 11.0523 6 16.5752C6 22.098 10.4772 26.5752 16 26.5752Z" stroke="white" stroke-width="1.5" stroke-linecap="round" stroke-linejoin="round"/>
<path d="M14.8889 20.4641H17.4556" stroke="white" stroke-width="1.5" stroke-linecap="round" stroke-linejoin="round"/>
<path d="M16.1767 20.4642V15.7419H14.8989" stroke="white" stroke-width="1.5" stroke-linecap="round" stroke-linejoin="round"/>
<path d="M16.111 12.4052C16.111 12.4602 16.0947 12.5139 16.0642 12.5595C16.0336 12.6052 15.9903 12.6408 15.9395 12.6619C15.8887 12.6829 15.8329 12.6884 15.779 12.6777C15.7251 12.6669 15.6756 12.6405 15.6368 12.6016C15.5979 12.5628 15.5715 12.5133 15.5608 12.4594C15.55 12.4055 15.5555 12.3497 15.5766 12.2989C15.5976 12.2482 15.6332 12.2048 15.6789 12.1743C15.7246 12.1437 15.7783 12.1274 15.8332 12.1274" stroke="white" stroke-width="1.5" stroke-linecap="round" stroke-linejoin="round"/>
<path d="M15.8333 12.1274C15.9069 12.1274 15.9776 12.1567 16.0297 12.2088C16.0818 12.2609 16.111 12.3315 16.111 12.4052" stroke="white" stroke-width="1.5" stroke-linecap="round" stroke-linejoin="round"/>
</svg>
