<svg width="71" height="64" viewBox="0 0 71 64" fill="none" xmlns="http://www.w3.org/2000/svg">
<path fill-rule="evenodd" clip-rule="evenodd" d="M7.21822 7.28511C-0.592269 15.0956 -0.59227 27.7589 7.21822 35.5694L8.75273 37.1039C8.78226 37.137 8.81292 37.1695 8.84469 37.2013L33.8654 62.222C34.3269 62.6834 34.9351 62.9086 35.5399 62.8975C36.1179 62.8882 36.6932 62.663 37.1343 62.2219L62.155 37.2012C62.1862 37.1699 62.2164 37.138 62.2454 37.1055L63.7814 35.5695C71.5919 27.759 71.5919 15.0957 63.7814 7.2852C55.9719 -0.524385 43.3106 -0.525285 35.4999 7.2825C27.6892 -0.525375 15.0278 -0.524506 7.21822 7.28511Z" fill="#FF6565"/>
<path d="M7.21822 35.5694L7.57177 35.2158L7.57177 35.2158L7.21822 35.5694ZM7.21822 7.28511L7.57177 7.63866L7.57177 7.63866L7.21822 7.28511ZM8.75273 37.1039L9.1259 36.7711C9.11956 36.764 9.11302 36.7571 9.10628 36.7503L8.75273 37.1039ZM8.84469 37.2013L8.49113 37.5548L8.49114 37.5548L8.84469 37.2013ZM33.8654 62.222L33.5118 62.5755L33.8654 62.222ZM35.5399 62.8975L35.5318 62.3975L35.5307 62.3976L35.5399 62.8975ZM62.2454 37.1055L61.8919 36.7519C61.8853 36.7586 61.8788 36.7654 61.8726 36.7723L62.2454 37.1055ZM63.7814 7.2852L63.4279 7.63875L63.4279 7.63875L63.7814 7.2852ZM35.4999 7.2825L35.1464 7.63612C35.3416 7.83129 35.6581 7.8313 35.8534 7.63612L35.4999 7.2825ZM7.57177 35.2158C-0.0434547 27.6006 -0.0434539 15.2539 7.57177 7.63866L6.86466 6.93156C-1.14108 14.9373 -1.14109 27.9172 6.86466 35.9229L7.57177 35.2158ZM9.10628 36.7503L7.57177 35.2158L6.86466 35.9229L8.39918 37.4574L9.10628 36.7503ZM9.19825 36.8477C9.1732 36.8227 9.14908 36.7971 9.1259 36.7711L8.37956 37.4367C8.41544 37.4769 8.45264 37.5163 8.49113 37.5548L9.19825 36.8477ZM34.2189 61.8684L9.19825 36.8477L8.49114 37.5548L33.5118 62.5755L34.2189 61.8684ZM35.5307 62.3976C35.0561 62.4063 34.5805 62.2299 34.2189 61.8684L33.5118 62.5755C34.0732 63.1369 34.8142 63.4109 35.5491 63.3974L35.5307 62.3976ZM36.7807 61.8683C36.4351 62.214 35.9853 62.3902 35.5318 62.3975L35.5479 63.3974C36.2506 63.3861 36.9513 63.112 37.4878 62.5754L36.7807 61.8683ZM61.8014 36.8476L36.7807 61.8683L37.4878 62.5754L62.5085 37.5547L61.8014 36.8476ZM61.8726 36.7723C61.8497 36.7979 61.826 36.823 61.8014 36.8476L62.5085 37.5547C62.5464 37.5169 62.583 37.4782 62.6183 37.4386L61.8726 36.7723ZM63.4279 35.2159L61.8919 36.7519L62.599 37.459L64.135 35.923L63.4279 35.2159ZM63.4279 7.63875C71.0431 15.254 71.0431 27.6007 63.4279 35.2159L64.135 35.923C72.1408 27.9173 72.1408 14.9374 64.135 6.93165L63.4279 7.63875ZM35.8534 7.63612C43.4688 0.0235305 55.8135 0.0244087 63.4279 7.63875L64.135 6.93165C56.1302 -1.07318 43.1524 -1.0741 35.1464 6.92888L35.8534 7.63612ZM7.57177 7.63866C15.1861 0.0242884 27.531 0.0234407 35.1464 7.63612L35.8534 6.92888C27.8474 -1.07419 14.8695 -1.0733 6.86466 6.93156L7.57177 7.63866Z" fill="#FF6565"/>
<path d="M35.4992 34.7605L35.4992 23.3636" stroke="white" stroke-width="4" stroke-linecap="round" stroke-linejoin="round"/>
<circle cx="35.3653" cy="39.9029" r="2" fill="white" stroke="white" stroke-width="0.029417"/>
</svg>
