<svg width="9" height="8" viewBox="0 0 9 8" fill="none" xmlns="http://www.w3.org/2000/svg">
<path d="M4.13729 1.05825C4.28697 0.597596 4.93867 0.597596 5.08835 1.05825L5.61864 2.69033C5.68558 2.89635 5.87756 3.03583 6.09417 3.03583L7.81024 3.03583C8.29461 3.03583 8.49599 3.65563 8.10414 3.94033L6.7158 4.94902C6.54056 5.07634 6.46723 5.30202 6.53417 5.50803L7.06446 7.14012C7.21414 7.60077 6.6869 7.98383 6.29504 7.69913L4.90671 6.69045C4.73147 6.56313 4.49417 6.56313 4.31893 6.69045L2.93059 7.69913C2.53874 7.98383 2.0115 7.60077 2.16117 7.14012L2.69147 5.50803C2.7584 5.30202 2.68508 5.07634 2.50983 4.94902L1.1215 3.94033C0.729643 3.65563 0.931031 3.03583 1.41539 3.03583L3.13147 3.03583C3.34808 3.03583 3.54006 2.89635 3.60699 2.69033L4.13729 1.05825Z" fill="#FFC700"/>
</svg>
