<svg width="32" height="33" viewBox="0 0 32 33" fill="none" xmlns="http://www.w3.org/2000/svg">
<path d="M14.0892 22.1381L24.412 11.8152C24.7885 11.4386 25 10.9279 25 10.3953C25 9.86281 24.7885 9.35207 24.412 8.97546L23.2853 7.84778C22.9087 7.47127 22.398 7.25977 21.8654 7.25977C21.3329 7.25977 20.8221 7.47127 20.4455 7.84778L10.1217 18.1716C9.97538 18.3183 9.85244 18.4866 9.75719 18.6707L7.11624 23.7879C6.66838 24.6565 7.59924 25.5884 8.46784 25.1415L13.5881 22.5046C13.7739 22.4082 13.9426 22.2857 14.0892 22.1381V22.1381Z" stroke="white" stroke-width="1.5" stroke-linecap="round" stroke-linejoin="round"/>
<path d="M9.93994 18.4277L13.8361 22.3239" stroke="white" stroke-width="1.5" stroke-linecap="round" stroke-linejoin="round"/>
<path d="M22.0804 25.2661H8.06226" stroke="white" stroke-width="1.5" stroke-linecap="round" stroke-linejoin="round"/>
</svg>
