<svg width="17" height="17" viewBox="0 0 17 17" fill="none" xmlns="http://www.w3.org/2000/svg">
<path d="M9.11328 12.9549L8.98541 12.4715C8.76475 12.5299 8.61163 12.7303 8.61329 12.9585C8.61496 13.1868 8.77098 13.3849 8.99247 13.4401L9.11328 12.9549ZM12.8081 5.59766L13.0614 5.16655C12.8693 5.05368 12.6256 5.08156 12.464 5.23492C12.3023 5.38828 12.2617 5.6301 12.3643 5.8279L12.8081 5.59766ZM12.9951 12.3242L12.7215 11.9057C12.6017 11.984 12.5212 12.11 12.5004 12.2517L12.9951 12.3242ZM13.5024 13.7544L13.8963 13.4464V13.4464L13.5024 13.7544ZM11.1677 13.0329L11.4091 12.595C11.3103 12.5405 11.196 12.5211 11.0848 12.5398L11.1677 13.0329ZM12.8603 7.84608C12.8603 10.0002 11.2589 11.8701 8.98541 12.4715L9.24115 13.4383C11.8775 12.7409 13.8603 10.5278 13.8603 7.84608H12.8603ZM12.3643 5.8279C12.6833 6.44287 12.8603 7.12612 12.8603 7.84608H13.8603C13.8603 6.95912 13.6416 6.11858 13.2519 5.36742L12.3643 5.8279ZM12.5548 6.02876C13.6644 6.68063 14.3688 7.78768 14.3688 9.01891H15.3688C15.3688 7.38562 14.4333 5.97258 13.0614 5.16655L12.5548 6.02876ZM14.3688 9.01891C14.3688 10.1877 13.7347 11.2433 12.7215 11.9057L13.2687 12.7427C14.5265 11.9204 15.3688 10.5681 15.3688 9.01891H14.3688ZM12.5004 12.2517C12.4402 12.6623 12.5468 13.3438 13.1085 14.0623L13.8963 13.4464C13.4848 12.92 13.4734 12.5088 13.4898 12.3967L12.5004 12.2517ZM13.1085 14.0623C13.1888 14.1651 13.1559 14.1544 13.1422 14.0707C13.1322 14.0098 13.1291 13.8757 13.2278 13.7472C13.3205 13.6266 13.4382 13.5963 13.4794 13.5889C13.5443 13.5772 13.5588 13.5946 13.4663 13.5703C13.395 13.5516 13.2969 13.5182 13.1736 13.4691C12.675 13.2709 11.9507 12.8935 11.4091 12.595L10.9263 13.4707C11.4699 13.7704 12.242 14.1749 12.8041 14.3983C12.9459 14.4547 13.0857 14.5042 13.2119 14.5374C13.3168 14.565 13.4882 14.6033 13.6564 14.5731C13.7493 14.5564 13.9052 14.507 14.0209 14.3563C14.1428 14.1976 14.1477 14.0225 14.129 13.9086C14.0978 13.7189 13.9806 13.5542 13.8963 13.4464L13.1085 14.0623ZM11.0848 12.5398C10.8399 12.581 10.5869 12.6026 10.3278 12.6026V13.6026C10.6426 13.6026 10.9511 13.5763 11.2506 13.5259L11.0848 12.5398ZM10.3278 12.6026C9.94795 12.6026 9.58124 12.5562 9.23409 12.4697L8.99247 13.4401C9.41846 13.5462 9.8663 13.6026 10.3278 13.6026V12.6026Z" fill="#F0E1FF"/>
<path d="M4.73927 11.1311L5.23388 11.0579C5.21296 10.9166 5.13259 10.7909 5.01304 10.7127L4.73927 11.1311ZM4.23216 12.5624L3.83824 12.2545H3.83824L4.23216 12.5624ZM6.56729 11.8406L6.65031 11.3476C6.53904 11.3289 6.4247 11.3483 6.32589 11.4028L6.56729 11.8406ZM11.4492 7.82685C11.4492 9.75746 9.69123 11.4105 7.4082 11.4105V12.4105C10.141 12.4105 12.4492 10.4069 12.4492 7.82685H11.4492ZM7.4082 4.24316C9.69123 4.24316 11.4492 5.89623 11.4492 7.82685H12.4492C12.4492 5.24675 10.141 3.24316 7.4082 3.24316V4.24316ZM3.36719 7.82685C3.36719 5.89623 5.12516 4.24316 7.4082 4.24316V3.24316C4.67537 3.24316 2.36719 5.24675 2.36719 7.82685H3.36719ZM5.01304 10.7127C4.00069 10.0503 3.36719 8.99508 3.36719 7.82685H2.36719C2.36719 9.37537 3.2087 10.7271 4.4655 11.5495L5.01304 10.7127ZM4.62608 12.8703C5.18851 12.1509 5.29465 11.4684 5.23388 11.0579L4.24466 11.2043C4.26113 11.3156 4.25042 11.7272 3.83824 12.2545L4.62608 12.8703ZM6.32589 11.4028C5.78437 11.7013 5.0599 12.0787 4.56119 12.277C4.43777 12.3261 4.33965 12.3595 4.26839 12.3783C4.17579 12.4027 4.19021 12.3853 4.25506 12.3969C4.29627 12.4043 4.41394 12.4345 4.50663 12.5551C4.60545 12.6836 4.60237 12.8178 4.59237 12.8787C4.57863 12.9624 4.54574 12.9731 4.62608 12.8703L3.83824 12.2545C3.75399 12.3622 3.63672 12.527 3.60558 12.7167C3.58687 12.8307 3.59184 13.0058 3.71378 13.1645C3.82959 13.3151 3.98548 13.3645 4.07833 13.3812C4.24647 13.4113 4.4179 13.373 4.52281 13.3454C4.64904 13.3122 4.7889 13.2627 4.9307 13.2063C5.49288 12.9827 6.26514 12.5782 6.80868 12.2785L6.32589 11.4028ZM7.4082 11.4105C7.14875 11.4105 6.89543 11.3889 6.65031 11.3476L6.48426 12.3337C6.78416 12.3842 7.09302 12.4105 7.4082 12.4105V11.4105Z" fill="#F0E1FF"/>
</svg>
