<svg width="32" height="33" viewBox="0 0 32 33" fill="none" xmlns="http://www.w3.org/2000/svg">
<path d="M14.2529 6.61354C14.4754 6.55391 14.7109 6.56448 14.9273 6.64379C15.1436 6.7231 15.3301 6.86728 15.4615 7.05665L16.4202 8.43928C16.5712 8.6572 16.795 8.81389 17.0507 8.88208L18.9311 9.3861C19.1865 9.45447 19.4578 9.43018 19.6969 9.31755L21.2189 8.60015C21.4274 8.50152 21.6613 8.46978 21.8886 8.50925C22.1158 8.54873 22.3253 8.65751 22.4884 8.8207L23.7525 10.0809C23.9157 10.2435 24.0248 10.4525 24.0648 10.6795C24.1049 10.9064 24.0739 11.1402 23.9762 11.3488L23.2593 12.8713C23.1463 13.1107 23.1219 13.3825 23.1903 13.6383L23.6941 15.5195C23.7627 15.7753 23.9197 15.9984 24.1373 16.1492L25.519 17.1091C25.7079 17.2409 25.8515 17.4279 25.9303 17.6445C26.009 17.861 26.019 18.0966 25.9589 18.3191L25.494 20.0428C25.4343 20.2655 25.3074 20.4643 25.1306 20.6121C24.9537 20.7599 24.7356 20.8494 24.5059 20.8685L22.8293 21.0086C22.5659 21.0307 22.3188 21.1453 22.1318 21.3323L20.7552 22.7094C20.5682 22.8969 20.4532 23.1444 20.4305 23.4083L20.2912 25.0852C20.2721 25.3151 20.1825 25.5335 20.0345 25.7105C19.8866 25.8874 19.6877 26.0143 19.4649 26.0738L17.7359 26.5373C17.5134 26.597 17.2778 26.5864 17.0615 26.5071C16.8452 26.4278 16.6587 26.2836 16.5273 26.0942L15.5686 24.7116C15.4172 24.4947 15.1944 24.3379 14.9392 24.2685L13.0577 23.7648C12.8023 23.6964 12.531 23.7207 12.2919 23.8333L10.7699 24.5507C10.5613 24.6494 10.3275 24.6811 10.1002 24.6416C9.87299 24.6021 9.6635 24.4934 9.50044 24.3302L8.23633 23.07C8.0731 22.9074 7.96401 22.6983 7.92397 22.4714C7.88392 22.2445 7.91486 22.0107 8.01256 21.802L8.72946 20.2796C8.84245 20.0401 8.86692 19.7684 8.79851 19.5125L8.29468 17.6314C8.22608 17.3756 8.06905 17.1525 7.85152 17.0016L6.48061 16.0389C6.2917 15.907 6.14807 15.7201 6.06934 15.5035C5.9906 15.2869 5.98061 15.0513 6.04071 14.8289L6.50563 13.1052C6.56528 12.8825 6.6922 12.6837 6.86905 12.5359C7.0459 12.3881 7.26404 12.2986 7.49368 12.2795L9.17035 12.1394C9.43374 12.1173 9.68082 12.0026 9.86777 11.8157L11.2455 10.4383C11.4315 10.2505 11.5459 10.0032 11.5691 9.73969L11.7084 8.06273C11.7273 7.83475 11.8157 7.61804 11.9615 7.44181C12.1073 7.26557 12.3035 7.13827 12.5239 7.07704L14.2529 6.61354Z" stroke="white" stroke-width="1.5" stroke-linecap="round" stroke-linejoin="round"/>
<path d="M16.7907 19.5485C18.432 19.1086 19.406 17.4208 18.9662 15.7788C18.5264 14.1368 16.8394 13.1624 15.1981 13.6023C13.5569 14.0423 12.5829 15.7301 13.0226 17.3721C13.4624 19.0141 15.1494 19.9885 16.7907 19.5485Z" stroke="white" stroke-width="1.5" stroke-linecap="round" stroke-linejoin="round"/>
</svg>
