<svg width="24" height="24" viewBox="0 0 24 24" fill="none" xmlns="http://www.w3.org/2000/svg">
<path d="M12 19.5C16.1421 19.5 19.5 16.1421 19.5 12C19.5 7.85786 16.1421 4.5 12 4.5C7.85786 4.5 4.5 7.85786 4.5 12C4.5 16.1421 7.85786 19.5 12 19.5Z" stroke="#A8A8A8" stroke-width="1.5" stroke-linecap="round" stroke-linejoin="round"/>
<path d="M11.1667 14.9167H13.0917" stroke="#A8A8A8" stroke-width="1.5" stroke-linecap="round" stroke-linejoin="round"/>
<path d="M12.1324 14.9167V11.375H11.1741" stroke="#A8A8A8" stroke-width="1.5" stroke-linecap="round" stroke-linejoin="round"/>
<path d="M12.0834 8.8724C12.0834 8.9136 12.0712 8.95388 12.0483 8.98814C12.0254 9.0224 11.9929 9.0491 11.9548 9.06487C11.9167 9.08064 11.8748 9.08476 11.8344 9.07673C11.794 9.06869 11.7569 9.04885 11.7278 9.01971C11.6986 8.99057 11.6788 8.95345 11.6708 8.91304C11.6627 8.87263 11.6668 8.83074 11.6826 8.79267C11.6984 8.7546 11.7251 8.72207 11.7593 8.69917C11.7936 8.67628 11.8339 8.66406 11.8751 8.66406" stroke="#A8A8A8" stroke-width="1.5" stroke-linecap="round" stroke-linejoin="round"/>
<path d="M11.875 8.66406C11.9303 8.66406 11.9832 8.68601 12.0223 8.72508C12.0614 8.76415 12.0833 8.81714 12.0833 8.8724" stroke="#A8A8A8" stroke-width="1.5" stroke-linecap="round" stroke-linejoin="round"/>
</svg>
