<svg width="20" height="21" viewBox="0 0 20 21" fill="none" xmlns="http://www.w3.org/2000/svg">
<path d="M14.3109 8.66016H5.68945C5.13717 8.66016 4.68945 8.21244 4.68945 7.66016V6.90478C4.68945 6.35249 5.13717 5.90478 5.68945 5.90478H14.3109C14.8631 5.90478 15.3109 6.35249 15.3109 6.90478V7.66016C15.3109 8.21244 14.8631 8.66016 14.3109 8.66016Z" fill="#DAEF64"/>
<path d="M8.69752 9.26562H5.89648C5.3442 9.26562 4.89648 9.71334 4.89648 10.2656V15.6133C4.89648 16.1656 5.3442 16.6133 5.89648 16.6133H8.69752C9.24981 16.6133 9.69752 16.1656 9.69752 15.6133V10.2656C9.69752 9.71334 9.24981 9.26562 8.69752 9.26562Z" fill="#DAEF64"/>
<path d="M14.1038 9.26562H11.3027C10.7504 9.26562 10.3027 9.71334 10.3027 10.2656V15.6133C10.3027 16.1656 10.7504 16.6133 11.3027 16.6133H14.1038C14.6561 16.6133 15.1038 16.1656 15.1038 15.6133V10.2656C15.1038 9.71334 14.6561 9.26562 14.1038 9.26562Z" fill="#DAEF64"/>
<path d="M9.9996 5.60039C9.9996 4.65395 9.23237 3.88672 8.28593 3.88672C7.3395 3.88672 6.57227 4.65395 6.57227 5.60039" stroke="#DAEF64" stroke-linecap="round"/>
<path d="M13.4273 5.60039C13.4273 4.65395 12.6601 3.88672 11.7136 3.88672C10.7672 3.88672 10 4.65395 10 5.60039" stroke="#DAEF64" stroke-linecap="round"/>
</svg>
