<svg width="24" height="25" viewBox="0 0 24 25" fill="none" xmlns="http://www.w3.org/2000/svg">
<path fill-rule="evenodd" clip-rule="evenodd" d="M8.15494 4.80986C7.85121 5.31269 7.64153 5.88364 7.55362 6.50192L6.43861 14.3436C6.08875 16.8042 7.79978 19.0825 10.2603 19.4323L14.1531 19.9858L9.56661 20.6061C7.3774 20.9021 5.36269 19.3675 5.06662 17.1782L4.01553 9.40608C3.71947 7.21687 5.25416 5.20216 7.44337 4.90609L8.15494 4.80986Z" fill="#6E728A"/>
<path fill-rule="evenodd" clip-rule="evenodd" d="M12.966 2.97222C10.7789 2.66124 8.75374 4.18216 8.44275 6.3693L7.8966 10.2103C9.53186 9.34878 11.5723 9.82919 12.6568 11.3092L14.5462 9.44767C16.1753 7.84254 18.8494 8.05694 20.202 9.90113L20.6546 10.5183L20.9909 8.15351C21.3019 5.96637 19.7809 3.94123 17.5938 3.63024L12.966 2.97222ZM8.19698 11.8049C9.27838 10.9054 10.8789 11.2175 11.5686 12.3814L7.62085 16.2711C7.34156 15.6201 7.23167 14.8867 7.33868 14.1341L7.59916 12.3022L8.19698 11.8049ZM10.7358 18.6574C9.84682 18.531 9.06794 18.1214 8.47738 17.5329L15.599 10.5162C16.5764 9.55309 18.1809 9.68173 18.9924 10.7882L20.3525 12.6427L19.8868 15.9183C19.5758 18.1055 17.5507 19.6264 15.3635 19.3154L10.7358 18.6574ZM12.4357 8.09061C12.8694 8.09061 13.2209 7.73905 13.2209 7.30539C13.2209 6.87173 12.8694 6.52018 12.4357 6.52018C12.0021 6.52018 11.6505 6.87173 11.6505 7.30539C11.6505 7.73905 12.0021 8.09061 12.4357 8.09061Z" fill="#6E728A"/>
</svg>
