<svg width="20" height="21" viewBox="0 0 20 21" fill="none" xmlns="http://www.w3.org/2000/svg">
<path fill-rule="evenodd" clip-rule="evenodd" d="M7.14765 4.71836C6.65065 5.33046 6.3082 6.08108 6.18912 6.91852L5.47111 11.9682C5.12124 14.4288 6.83229 16.707 9.29282 17.0569L11.5505 17.3779C11.5938 17.3841 11.6371 17.3896 11.6803 17.3945C11.5153 17.4389 11.3455 17.4733 11.1717 17.4968L8.63284 17.8401C6.44363 18.1362 4.42892 16.6015 4.13285 14.4123L3.43564 9.25678C3.13957 7.06757 4.67427 5.05286 6.86348 4.75679L7.14765 4.71836Z" fill="#6E728A"/>
<path fill-rule="evenodd" clip-rule="evenodd" d="M11.4649 3.32855C9.27777 3.01756 7.25263 4.53848 6.94165 6.72562L6.57459 9.30705C7.93731 8.59546 9.63336 8.99651 10.5373 10.2271L11.7272 9.05467C13.2912 7.51375 15.8583 7.71957 17.1568 9.48999L17.207 9.55848L17.3984 8.21246C17.7094 6.02532 16.1885 4.00019 14.0013 3.6892L11.4649 3.32855ZM6.78175 10.6034C7.70559 9.83499 9.07085 10.0967 9.66736 11.0842L6.55403 14.1517C6.22901 13.4671 6.09462 12.6827 6.20928 11.8762L6.33775 10.9728L6.78175 10.6034ZM9.60636 16.3995C8.66144 16.2651 7.84088 15.8108 7.23867 15.1618L12.5694 9.90947C13.6121 8.88219 15.3235 9.0194 16.1891 10.1997L16.9654 11.258L16.666 13.3631C16.3551 15.5502 14.3299 17.0711 12.1428 16.7602L9.60636 16.3995ZM10.2105 7.4504C10.5971 7.4504 10.9105 7.137 10.9105 6.7504C10.9105 6.3638 10.5971 6.0504 10.2105 6.0504C9.8239 6.0504 9.5105 6.3638 9.5105 6.7504C9.5105 7.137 9.8239 7.4504 10.2105 7.4504Z" fill="#6E728A"/>
</svg>
