<svg width="33" height="32" viewBox="0 0 33 32" fill="none" xmlns="http://www.w3.org/2000/svg">
<path d="M14.3427 6.0381C14.5653 5.97847 14.8008 5.98904 15.0171 6.06835C15.2334 6.14766 15.42 6.29184 15.5513 6.48121L16.51 7.86384C16.661 8.08176 16.8848 8.23845 17.1405 8.30664L19.021 8.81066C19.2763 8.87903 19.5476 8.85474 19.7867 8.74211L21.3088 8.02472C21.5173 7.92608 21.7512 7.89434 21.9784 7.93382C22.2056 7.97329 22.4151 8.08207 22.5782 8.24526L23.8423 9.50546C24.0055 9.66805 24.1146 9.87709 24.1547 10.104C24.1947 10.331 24.1638 10.5647 24.0661 10.7734L23.3492 12.2958C23.2362 12.5353 23.2117 12.8071 23.2801 13.0629L23.784 14.9441C23.8526 15.1998 24.0096 15.4229 24.2271 15.5738L25.6088 16.5337C25.7977 16.6655 25.9414 16.8525 26.0201 17.069C26.0988 17.2856 26.1088 17.5212 26.0487 17.7437L25.5838 19.4674C25.5242 19.69 25.3972 19.8889 25.2204 20.0366C25.0435 20.1844 24.8254 20.274 24.5958 20.2931L22.9191 20.4331C22.6557 20.4552 22.4086 20.5699 22.2217 20.7568L20.8451 22.134C20.658 22.3215 20.543 22.5689 20.5203 22.8329L20.3811 24.5098C20.3619 24.7397 20.2723 24.9581 20.1244 25.135C19.9765 25.312 19.7775 25.4389 19.5548 25.4984L17.8257 25.9619C17.6032 26.0215 17.3677 26.011 17.1514 25.9317C16.9351 25.8523 16.7485 25.7082 16.6172 25.5188L15.6585 24.1362C15.507 23.9193 15.2842 23.7624 15.029 23.6931L13.1475 23.1893C12.8922 23.121 12.6209 23.1453 12.3817 23.2579L10.8597 23.9753C10.6512 24.0739 10.4173 24.1057 10.1901 24.0662C9.96283 24.0267 9.75334 23.9179 9.59028 23.7547L8.32618 22.4945C8.16295 22.3319 8.05386 22.1229 8.01381 21.896C7.97376 21.669 8.0047 21.4353 8.10241 21.2266L8.8193 19.7042C8.93229 19.4647 8.95676 19.1929 8.88836 18.9371L8.38453 17.0559C8.31592 16.8002 8.1589 16.5771 7.94136 16.4262L6.57045 15.4634C6.38154 15.3316 6.23791 15.1446 6.15918 14.9281C6.08045 14.7115 6.07045 14.4759 6.13055 14.2534L6.59548 12.5297C6.65513 12.3071 6.78204 12.1082 6.95889 11.9605C7.13574 11.8127 7.35389 11.7231 7.58352 11.704L9.26019 11.564C9.52359 11.5419 9.77066 11.4272 9.95762 11.2403L11.3353 9.86284C11.5213 9.67509 11.6357 9.42772 11.659 9.16425L11.7982 7.48729C11.8172 7.25931 11.9055 7.04261 12.0513 6.86637C12.1971 6.69013 12.3934 6.56283 12.6137 6.5016L14.3427 6.0381Z" stroke="white" stroke-width="1.5" stroke-linecap="round" stroke-linejoin="round"/>
<path d="M16.8805 18.9731C18.5218 18.5331 19.4958 16.8453 19.056 15.2034C18.6163 13.5614 16.9292 12.5869 15.288 13.0269C13.6467 13.4669 12.6727 15.1546 13.1125 16.7966C13.5523 18.4386 15.2393 19.4131 16.8805 18.9731Z" stroke="white" stroke-width="1.5" stroke-linecap="round" stroke-linejoin="round"/>
</svg>
