<svg width="91" height="92" viewBox="0 0 91 92" fill="none" xmlns="http://www.w3.org/2000/svg">
<path fill-rule="evenodd" clip-rule="evenodd" d="M3 45.9974C3 22.5253 22.0279 3.49744 45.5 3.49744C68.9721 3.49744 88 22.5253 88 45.9974C88 69.4695 68.9721 88.4974 45.5 88.4974C22.0279 88.4974 3 69.4695 3 45.9974ZM45.5 0.497437C20.371 0.497437 0 20.8685 0 45.9974C0 71.1264 20.371 91.4974 45.5 91.4974C70.629 91.4974 91 71.1264 91 45.9974C91 20.8685 70.629 0.497437 45.5 0.497437ZM61.6922 39.7906C62.8638 38.6191 62.8638 36.7196 61.6922 35.548C60.5207 34.3764 58.6212 34.3764 57.4496 35.548L42.9141 50.0835L37.553 44.7224C36.3814 43.5508 34.4819 43.5508 33.3103 44.7224C32.1387 45.894 32.1387 47.7935 33.3103 48.9651L40.7927 56.4475C41.9643 57.619 43.8638 57.619 45.0354 56.4475L61.6922 39.7906Z" fill="url(#paint0_linear)"/>
<defs>
<linearGradient id="paint0_linear" x1="45.5" y1="0.497437" x2="45.5" y2="91.4974" gradientUnits="userSpaceOnUse">
<stop stop-color="#01FF2F"/>
<stop offset="1" stop-color="#024FFF"/>
</linearGradient>
</defs>
</svg>
