<svg width="33" height="32" viewBox="0 0 33 32" fill="none" xmlns="http://www.w3.org/2000/svg">
<path d="M5.49918 12.6167C5.56979 10.4596 7.33885 8.74756 9.49704 8.74756H23.5086C25.6667 8.74756 27.4357 10.4596 27.5064 12.6166L27.7398 19.738C27.8879 24.2565 24.2651 28 19.7441 28H13.2618C8.7409 28 5.11814 24.2567 5.26606 19.7383L5.49918 12.6167Z" stroke="white" stroke-width="2"/>
<path d="M20.7723 12.8411C20.7723 15.1694 18.8848 17.0569 16.5564 17.0569C14.2281 17.0569 12.3406 15.1694 12.3406 12.8411" stroke="white" stroke-width="2" stroke-linecap="round"/>
<path d="M12.3405 8.21582C12.3405 5.88746 14.228 3.99996 16.5564 3.99996C18.8847 3.99996 20.7722 5.88746 20.7722 8.21582" stroke="white" stroke-width="2" stroke-linecap="round"/>
</svg>
