<svg width="13" height="13" viewBox="0 0 13 13" fill="none" xmlns="http://www.w3.org/2000/svg">
<path d="M3.04354 10.7259H10.6854L11.6393 5.41342C12.0718 5.4467 12.46 5.12505 12.4933 4.69249C12.5266 4.25993 12.2049 3.87174 11.7723 3.83847C11.3398 3.80519 10.9516 4.12684 10.9183 4.5594C10.8961 4.77013 10.9627 4.96977 11.0958 5.13614L11.0403 5.1916L10.9849 5.24705L10.9294 5.30251L10.874 5.34688L10.8185 5.39124L10.752 5.43561L10.6854 5.47997L10.6189 5.52434L10.5523 5.5687L10.4858 5.60197L10.4192 5.63525L10.3527 5.66852L10.2861 5.7018L10.2196 5.73507L10.1419 5.75725L10.1087 5.76834L10.0754 5.77943L10.031 5.79053L9.98666 5.80162L9.94229 5.81271L9.89793 5.8238L9.85357 5.83489L9.8092 5.84598L9.76483 5.85707L9.72047 5.86816H9.6761H9.63174H9.57628H9.52083H9.46537H9.40992H9.35446H9.299H9.24355H9.19918L9.15482 5.85707L9.11045 5.84598L9.06609 5.83489L9.02172 5.8238L8.97736 5.81271L8.93299 5.80162L8.88863 5.79053L8.84426 5.77943L8.7999 5.76834L8.75553 5.75725L8.71117 5.73507L8.6668 5.71289L8.62244 5.6907L8.57807 5.66852L8.53371 5.64634L8.48934 5.62416L8.44498 5.60197L8.40061 5.57979L8.35625 5.54652L8.23424 5.52434L8.18988 5.49106L8.14551 5.45779L8.10115 5.42451L8.05678 5.39124L8.01242 5.35797L7.97915 5.32469L7.94587 5.29142L7.9126 5.25815L7.87932 5.21378L7.84605 5.16942L7.82387 5.13614L7.80169 5.10287L7.7795 5.06959L7.75732 5.03632L7.73514 5.00305L7.71295 4.96977L7.66859 4.90323L7.63532 4.83668L7.60204 4.77013L7.56877 4.70358L7.5355 4.62594L7.50222 4.54831L7.46895 4.47067L7.41349 4.31539L7.35804 4.16011L7.25822 3.83847L7.21385 3.66101L7.16948 3.48355L7.1473 3.39482L7.12512 3.30609C7.5244 3.13972 7.72405 2.68498 7.55768 2.2746C7.39131 1.87532 6.93657 1.67567 6.52619 1.84204C6.12691 2.00841 5.92727 2.46315 6.09364 2.87353C6.17127 3.07317 6.32655 3.22845 6.52619 3.30609L6.50401 3.39482L6.48183 3.48355L6.43746 3.66101L6.3931 3.83847L6.29328 4.16011L6.23782 4.31539L6.18236 4.47067L6.14909 4.54831L6.11582 4.62594L6.08254 4.70358L6.04927 4.77013L6.016 4.83668L5.98272 4.90323L5.93835 4.96977L5.91617 5.00305L5.89399 5.03632L5.87181 5.06959L5.84963 5.10287L5.82744 5.13614L5.80526 5.16942L5.77199 5.21378L5.73871 5.25815L5.70544 5.29142L5.67217 5.32469L5.63889 5.35797L5.59453 5.39124L5.55016 5.42451L5.5058 5.45779L5.46143 5.49106L5.41707 5.52434L5.3727 5.55761L5.32834 5.59088L5.28397 5.61307L5.23961 5.63525L5.19524 5.65743L5.15088 5.67961L5.10651 5.7018L5.06215 5.72398L5.01778 5.74616L4.97342 5.76834L4.92905 5.77943L4.88469 5.79053L4.84032 5.80162L4.79596 5.81271L4.75159 5.8238L4.70723 5.83489L4.66286 5.84598L4.6185 5.85707L4.57413 5.86816L4.52977 5.87926H4.4854H4.42995H4.37449H4.31903H4.26358H4.20812H4.15267H4.09721H4.05285H4.00848L3.96412 5.86816L3.91975 5.85707L3.87539 5.84598L3.83102 5.83489L3.78665 5.8238L3.74229 5.81271L3.69793 5.80162L3.65356 5.79053L3.62029 5.77943L3.58701 5.76834L3.50937 5.74616L3.44283 5.71289L3.37628 5.67961L3.30973 5.64634L3.24318 5.61307L3.17664 5.57979L3.11009 5.53543L3.04354 5.49106L2.977 5.4467L2.91045 5.40233L2.85499 5.35797L2.79954 5.3136L2.74408 5.25815L2.68862 5.20269L2.63317 5.14723C2.91045 4.8145 2.86608 4.31539 2.53335 4.03811C2.20061 3.76083 1.7015 3.80519 1.42422 4.13793C1.14694 4.47067 1.19131 4.96977 1.52404 5.24705C1.67932 5.38015 1.89005 5.4467 2.10079 5.42451L3.04354 10.7259Z" fill="#EAD5FF"/>
</svg>
