<svg width="71" height="63" viewBox="0 0 71 63" fill="none" xmlns="http://www.w3.org/2000/svg">
<path fill-rule="evenodd" clip-rule="evenodd" d="M7.21822 6.79488C-0.592269 14.6054 -0.59227 27.2687 7.21822 35.0791L8.75273 36.6137C8.78226 36.6468 8.81292 36.6792 8.84469 36.711L33.8654 61.7317C34.3269 62.1932 34.9351 62.4184 35.5399 62.4072C36.1179 62.3979 36.6932 62.1727 37.1343 61.7316L62.155 36.7109C62.1862 36.6797 62.2164 36.6478 62.2454 36.6153L63.7814 35.0792C71.5919 27.2688 71.5919 14.6055 63.7814 6.79497C55.9719 -1.01462 43.3106 -1.01552 35.4999 6.79227C27.6892 -1.01561 15.0278 -1.01474 7.21822 6.79488Z" fill="#FF6565"/>
<path d="M7.21822 35.0791L7.57177 34.7256L7.21822 35.0791ZM7.21822 6.79488L7.57177 7.14843L7.21822 6.79488ZM8.75273 36.6137L9.1259 36.2809C9.11956 36.2738 9.11302 36.2668 9.10628 36.2601L8.75273 36.6137ZM8.84469 36.711L8.49113 37.0646L8.49114 37.0646L8.84469 36.711ZM33.8654 61.7317L33.5118 62.0853L33.8654 61.7317ZM35.5399 62.4072L35.5318 61.9073L35.5307 61.9073L35.5399 62.4072ZM62.2454 36.6153L61.8919 36.2617C61.8853 36.2683 61.8788 36.2751 61.8726 36.2821L62.2454 36.6153ZM63.7814 6.79497L63.4279 7.14852L63.7814 6.79497ZM35.4999 6.79227L35.1464 7.14588C35.3416 7.34106 35.6581 7.34106 35.8534 7.14589L35.4999 6.79227ZM7.57177 34.7256C-0.0434548 27.1104 -0.0434539 14.7637 7.57177 7.14843L6.86466 6.44132C-1.14108 14.4471 -1.14109 27.427 6.86466 35.4327L7.57177 34.7256ZM9.10628 36.2601L7.57177 34.7256L6.86466 35.4327L8.39918 36.9672L9.10628 36.2601ZM9.19825 36.3575C9.1732 36.3324 9.14908 36.3069 9.1259 36.2809L8.37956 36.9464C8.41544 36.9867 8.45264 37.0261 8.49113 37.0646L9.19825 36.3575ZM34.2189 61.3782L9.19825 36.3575L8.49114 37.0646L33.5118 62.0853L34.2189 61.3782ZM35.5307 61.9073C35.0561 61.916 34.5805 61.7397 34.2189 61.3782L33.5118 62.0853C34.0732 62.6467 34.8142 62.9207 35.5491 62.9072L35.5307 61.9073ZM36.7807 61.3781C36.4351 61.7237 35.9853 61.9 35.5318 61.9073L35.5479 62.9072C36.2505 62.8959 36.9513 62.6217 37.4878 62.0852L36.7807 61.3781ZM61.8014 36.3574L36.7807 61.3781L37.4878 62.0852L62.5085 37.0645L61.8014 36.3574ZM61.8726 36.2821C61.8498 36.3077 61.826 36.3328 61.8014 36.3574L62.5085 37.0645C62.5464 37.0266 62.583 36.9879 62.6183 36.9484L61.8726 36.2821ZM63.4279 34.7257L61.8919 36.2617L62.599 36.9688L64.135 35.4328L63.4279 34.7257ZM63.4279 7.14852C71.0431 14.7637 71.0431 27.1105 63.4279 34.7257L64.135 35.4328C72.1407 27.427 72.1407 14.4472 64.135 6.44141L63.4279 7.14852ZM35.8534 7.14589C43.4688 -0.466704 55.8135 -0.465826 63.4279 7.14852L64.135 6.44141C56.1302 -1.56341 43.1524 -1.56434 35.1464 6.43865L35.8534 7.14589ZM7.57177 7.14843C15.1861 -0.465946 27.531 -0.466794 35.1464 7.14588L35.8534 6.43865C27.8474 -1.56442 14.8695 -1.56353 6.86466 6.44132L7.57177 7.14843Z" fill="#FF6565"/>
<path d="M35.4992 34.2702L35.4992 22.8733" stroke="white" stroke-width="4" stroke-linecap="round" stroke-linejoin="round"/>
<circle cx="35.3653" cy="39.4127" r="2" fill="white" stroke="white" stroke-width="0.029417"/>
</svg>
