<svg width="32" height="33" viewBox="0 0 32 33" fill="none" xmlns="http://www.w3.org/2000/svg">
<path fill-rule="evenodd" clip-rule="evenodd" d="M11.3308 6.34154C10.6069 7.27219 10.1086 8.39859 9.93071 9.64953L8.72558 18.1251C8.18135 21.9526 10.843 25.4966 14.6705 26.0408L18.6788 26.6107C18.7161 26.616 18.7535 26.6211 18.7908 26.6258C18.6205 26.6641 18.4472 26.6953 18.271 26.7191L13.4161 27.3757C10.1323 27.8198 7.11024 25.5177 6.66614 22.2339L5.44338 13.1924C4.99928 9.90854 7.30133 6.88647 10.5851 6.44238L11.3308 6.34154Z" fill="#6E728A"/>
<path fill-rule="evenodd" clip-rule="evenodd" d="M17.9479 4.04708C14.6672 3.5806 11.6295 5.86198 11.163 9.14269L10.5516 13.4427L10.7035 13.3164C12.787 11.5833 15.9546 12.3801 16.9701 14.8928L16.9942 14.9525L20.2188 11.7752C21.9566 10.0631 24.809 10.2918 26.2517 12.2589L27.5394 14.0146L27.8938 11.5216C28.3603 8.24092 26.0789 5.20323 22.7982 4.73674L17.9479 4.04708ZM15.1158 15.6422L15.4513 16.4726L10.3527 21.4962C9.89646 20.4915 9.71178 19.3491 9.87862 18.1757L10.1321 16.3932L11.9825 14.854C13.0242 13.9874 14.608 14.3859 15.1158 15.6422ZM14.9742 24.9606C13.5938 24.7643 12.3902 24.1128 11.4939 23.1794L21.6225 13.1999C22.4914 12.3438 23.9176 12.4582 24.639 13.4417L27.1366 16.8472L26.6094 20.5547C26.143 23.8354 23.1053 26.1168 19.8246 25.6503L14.9742 24.9606ZM16.5768 10.2898C17.2672 10.2898 17.8268 9.73015 17.8268 9.0398C17.8268 8.34944 17.2672 7.7898 16.5768 7.7898C15.8865 7.7898 15.3268 8.34944 15.3268 9.0398C15.3268 9.73015 15.8865 10.2898 16.5768 10.2898Z" fill="#6E728A"/>
</svg>
