<svg width="37" height="36" viewBox="0 0 37 36" fill="none" xmlns="http://www.w3.org/2000/svg">
<path fill-rule="evenodd" clip-rule="evenodd" d="M8.38687 15.582C8.38687 11.3946 11.7814 8 15.9689 8C20.1563 8 23.5509 11.3946 23.5509 15.582C23.5509 19.7694 20.1563 23.164 15.9689 23.164C11.7814 23.164 8.38687 19.7694 8.38687 15.582ZM15.9689 6C10.6769 6 6.38687 10.29 6.38687 15.582C6.38687 20.874 10.6769 25.164 15.9689 25.164C18.3332 25.164 20.4975 24.3077 22.1686 22.8883L28.9872 29.7072C29.3777 30.0977 30.0109 30.0977 30.4014 29.7072C30.792 29.3167 30.792 28.6835 30.4015 28.293L23.5507 21.442C24.8046 19.822 25.5509 17.7891 25.5509 15.582C25.5509 10.29 21.2608 6 15.9689 6Z" fill="#888B9A"/>
</svg>
