<svg width="20" height="20" viewBox="0 0 20 20" fill="none" xmlns="http://www.w3.org/2000/svg">
<rect x="4.65723" y="2.5" width="10.6853" height="1.54997" rx="0.774983" fill="url(#paint0_radial_3019_37424)"/>
<rect x="4.65723" y="15.9497" width="10.6853" height="1.54997" rx="0.774984" fill="url(#paint1_radial_3019_37424)"/>
<rect x="5.28906" y="12.5264" width="9.42214" height="3.42394" rx="1.71197" fill="url(#paint2_radial_3019_37424)"/>
<rect x="8.51172" y="11.1987" width="2.98003" height="2.33543" rx="1.16772" fill="url(#paint3_radial_3019_37424)"/>
<path d="M6.10645 4.06885H13.8951V7.81171C13.8951 9.96249 12.1516 11.706 10.0008 11.706C7.85 11.706 6.10645 9.96249 6.10645 7.81172V4.06885Z" fill="url(#paint4_radial_3019_37424)" stroke="url(#paint5_radial_3019_37424)"/>
<path d="M14.374 8.66641C15.4445 8.66641 16.3122 7.79865 16.3122 6.72822C16.3122 5.65779 15.4445 4.79004 14.374 4.79004" stroke="url(#paint6_radial_3019_37424)" stroke-linecap="round"/>
<path d="M5.62598 4.79013C4.55555 4.79013 3.68779 5.65789 3.68779 6.72832C3.68779 7.79875 4.55555 8.6665 5.62598 8.6665" stroke="url(#paint7_radial_3019_37424)" stroke-linecap="round"/>
<defs>
<radialGradient id="paint0_radial_3019_37424" cx="0" cy="0" r="1" gradientUnits="userSpaceOnUse" gradientTransform="translate(9.99989 3.27498) rotate(90) scale(0.774983 5.34266)">
<stop offset="0.523958" stop-color="#FFDD00"/>
<stop offset="1" stop-color="#FFB800"/>
</radialGradient>
<radialGradient id="paint1_radial_3019_37424" cx="0" cy="0" r="1" gradientUnits="userSpaceOnUse" gradientTransform="translate(9.99989 16.7247) rotate(90) scale(0.774984 5.34266)">
<stop offset="0.523958" stop-color="#FFDD00"/>
<stop offset="1" stop-color="#FFB800"/>
</radialGradient>
<radialGradient id="paint2_radial_3019_37424" cx="0" cy="0" r="1" gradientUnits="userSpaceOnUse" gradientTransform="translate(10.0001 14.2383) rotate(90) scale(1.71197 4.71107)">
<stop offset="0.523958" stop-color="#FFDD00"/>
<stop offset="1" stop-color="#FFB800"/>
</radialGradient>
<radialGradient id="paint3_radial_3019_37424" cx="0" cy="0" r="1" gradientUnits="userSpaceOnUse" gradientTransform="translate(10.0017 12.3664) rotate(90) scale(1.16772 1.49002)">
<stop offset="0.523958" stop-color="#FFDD00"/>
<stop offset="1" stop-color="#FFB800"/>
</radialGradient>
<radialGradient id="paint4_radial_3019_37424" cx="0" cy="0" r="1" gradientUnits="userSpaceOnUse" gradientTransform="translate(10.0008 7.88745) rotate(90) scale(4.3186 4.39433)">
<stop offset="0.523958" stop-color="#FFDD00"/>
<stop offset="1" stop-color="#FFB800"/>
</radialGradient>
<radialGradient id="paint5_radial_3019_37424" cx="0" cy="0" r="1" gradientUnits="userSpaceOnUse" gradientTransform="translate(10.0008 7.88745) rotate(90) scale(4.3186 4.39433)">
<stop offset="0.523958" stop-color="#FFDD00"/>
<stop offset="1" stop-color="#FFB800"/>
</radialGradient>
<radialGradient id="paint6_radial_3019_37424" cx="0" cy="0" r="1" gradientUnits="userSpaceOnUse" gradientTransform="translate(15.3431 6.72822) rotate(90) scale(1.93819 0.969093)">
<stop offset="0.523958" stop-color="#FFDD00"/>
<stop offset="1" stop-color="#FFB800"/>
</radialGradient>
<radialGradient id="paint7_radial_3019_37424" cx="0" cy="0" r="1" gradientUnits="userSpaceOnUse" gradientTransform="translate(4.65688 6.72832) rotate(-90) scale(1.93819 0.969093)">
<stop offset="0.523958" stop-color="#FFDD00"/>
<stop offset="1" stop-color="#FFB800"/>
</radialGradient>
</defs>
</svg>
