<svg width="16" height="17" viewBox="0 0 16 17" fill="none" xmlns="http://www.w3.org/2000/svg">
<path d="M2.80103 7.15259C2.80103 6.6003 3.24874 6.15259 3.80103 6.15259H7.64955V14.8802H3.80103C3.24874 14.8802 2.80103 14.4325 2.80103 13.8802V7.15259Z" stroke="white"/>
<path d="M8.35278 6.15259H12.2013C12.7536 6.15259 13.2013 6.6003 13.2013 7.15259V13.8802C13.2013 14.4325 12.7536 14.8802 12.2013 14.8802H8.35278V6.15259Z" stroke="white"/>
<rect x="2" y="2.88037" width="12" height="2.56124" rx="1" stroke="white"/>
<path d="M8.00002 2.88038C8.00002 2.12678 7.38911 1.51587 6.63551 1.51587C5.88191 1.51587 5.271 2.12678 5.271 2.88038" stroke="white"/>
<path d="M10.729 2.88038C10.729 2.12678 10.1181 1.51587 9.36451 1.51587C8.61091 1.51587 8 2.12678 8 2.88038" stroke="white"/>
</svg>
