<svg width="89" height="89" viewBox="0 0 89 89" fill="none" xmlns="http://www.w3.org/2000/svg">
<path fill-rule="evenodd" clip-rule="evenodd" d="M52.0886 67.7722H70.1644C70.6701 67.7722 71.0721 68.295 71.0721 68.9157V75.7605C71.0721 76.3976 70.6572 76.9204 70.1514 76.9204H52.0886V67.7722ZM66.7412 71.7109C66.3911 71.7109 66.1059 71.9962 66.1059 72.3463C66.1059 72.6964 66.3911 72.9817 66.7412 72.9817C67.0913 72.9817 67.3766 72.6964 67.3766 72.3463C67.3766 71.9962 67.0913 71.7109 66.7412 71.7109ZM61.2821 72.3463C61.2821 71.9962 61.5674 71.7109 61.9175 71.7109C62.2676 71.7109 62.5529 71.9962 62.5529 72.3463C62.5529 72.6964 62.2676 72.9817 61.9175 72.9817C61.5674 72.9817 61.2821 72.6964 61.2821 72.3463ZM56.9513 71.7109C56.6012 71.7109 56.3159 71.9962 56.3159 72.3463C56.3159 72.6964 56.6012 72.9817 56.9513 72.9817C57.3014 72.9817 57.5867 72.6964 57.5867 72.3463C57.5867 71.9962 57.3014 71.7109 56.9513 71.7109Z" fill="#484C65"/>
<path d="M18.2619 76.9204H50.7621V67.7722H18.2619C17.7755 67.7722 17.3765 68.295 17.3765 68.9321V75.7769C17.3765 76.3976 17.7755 76.9204 18.2619 76.9204Z" fill="#484C65"/>
<path fill-rule="evenodd" clip-rule="evenodd" d="M70.8258 39.3563V22.6161C70.8258 22.2271 70.5146 21.9159 70.1256 21.9159H56.3289C55.9399 21.9159 55.6287 22.2271 55.6287 22.6161V39.3563C55.6287 39.7453 55.9399 40.0565 56.3289 40.0565H61.0747L63.0327 43.1167C63.0976 43.2204 63.2402 43.2593 63.3569 43.1815C63.3828 43.1685 63.4088 43.1426 63.4217 43.1167L65.3797 40.0565H70.1256C70.5146 40.0565 70.8258 39.7453 70.8258 39.3563ZM61.6886 31.3991C61.6886 30.4501 62.458 29.6807 63.407 29.6807C64.356 29.6807 65.1254 30.4501 65.1254 31.3991C65.1254 32.3481 64.356 33.1175 63.407 33.1175C62.458 33.1175 61.6886 32.3481 61.6886 31.3991ZM66.3902 36.8877L66.3988 37.0159H60.0552L60.0638 36.8877L60.0809 36.768L60.098 36.6397L60.1236 36.52L60.1493 36.3918L60.1749 36.2721L60.2091 36.1524L60.2519 36.0327L60.2946 35.9131L60.3374 35.7934L60.3886 35.6737L60.4399 35.5625L60.4656 35.5027L60.4998 35.4428L60.5254 35.3916L60.5596 35.3317L60.5853 35.2804L60.6195 35.2291L60.6537 35.1693L60.6879 35.118L60.7221 35.0667L60.7648 35.0239L60.799 34.9726L60.8332 34.9213L60.8674 34.8786L60.9102 34.8359L60.9529 34.7846L60.9871 34.7418L61.0298 34.6991L61.0726 34.6563L61.1153 34.6136L61.1581 34.5708L61.2008 34.5281L61.2436 34.4853L61.2863 34.4511L61.3376 34.4084L61.3804 34.3742L61.4317 34.34L61.4744 34.2973L61.5257 34.2631L61.577 34.2289L61.6283 34.1947L61.6796 34.169L61.7309 34.1348L61.7822 34.1092L61.8335 34.075L61.8848 34.0493L61.9361 34.0237L61.9874 33.998L62.0472 33.9724L62.0985 33.9467L62.1583 33.9296L62.2182 33.904L62.2866 33.8783L62.3464 33.8612L62.4148 33.8441L62.4832 33.827L62.5516 33.8099L62.6114 33.7928L62.6798 33.7843L62.7482 33.7672L62.8166 33.7587L62.885 33.7501L62.9534 33.7416L63.0218 33.733H63.0902L63.1586 33.7245H63.227H63.2954L63.3638 33.733H63.4322L63.5006 33.7416L63.569 33.7501L63.6374 33.7587L63.7058 33.7672L63.7741 33.7843L63.8425 33.7928L63.9109 33.8099L63.9793 33.827L64.0392 33.8441L64.1076 33.8612L64.176 33.8783L64.2358 33.904L64.3042 33.9296L64.3555 33.9467L64.4153 33.9724L64.4666 33.998L64.5179 34.0237L64.5692 34.0493L64.6291 34.075L64.6804 34.1092L64.7317 34.1348L64.783 34.169L64.8342 34.1947L64.877 34.2289L64.9283 34.2631L64.9796 34.2973L65.0309 34.34L65.0736 34.3742L65.1164 34.4084L65.1677 34.4511L65.2104 34.4853L65.2532 34.5281L65.3045 34.5708L65.3472 34.6136L65.3899 34.6563L65.4241 34.6991L65.4669 34.7418L65.5096 34.7846L65.5438 34.8359L65.5866 34.8786L65.6208 34.9213L65.6635 34.9726L65.6977 35.0239L65.7319 35.0667L65.7661 35.118L65.8003 35.1693L65.8345 35.2291L65.8687 35.2804L65.9029 35.3317L65.9285 35.3916L65.9627 35.4428L65.9884 35.5027L66.014 35.5625L66.0739 35.6737L66.1166 35.7934L66.1679 35.9131L66.2107 36.0327L66.2449 36.1524L66.2791 36.2721L66.3047 36.3918L66.3304 36.52L66.356 36.6397L66.3731 36.768L66.3902 36.8877Z" fill="#484C65"/>
<path fill-rule="evenodd" clip-rule="evenodd" d="M54.2285 59.6234V37.5928C54.2285 37.0871 53.8136 36.6721 53.3079 36.6721H35.1543C34.6486 36.6721 34.2336 37.0871 34.2336 37.5928V59.6234C34.2336 60.1291 34.6486 60.5441 35.1543 60.5441H41.4043L43.9718 64.5767C44.0625 64.7194 44.257 64.7583 44.3997 64.6675C44.4386 64.6416 44.4645 64.6156 44.4904 64.5767L47.0579 60.5441H53.3079C53.8136 60.5441 54.2285 60.1291 54.2285 59.6234ZM41.6245 46.4362C41.6245 44.9969 42.7916 43.8299 44.2309 43.8299C45.6702 43.8299 46.8372 44.9969 46.8372 46.4362C46.8372 47.8756 45.6702 49.0426 44.2309 49.0426C42.7916 49.0426 41.6245 47.8756 41.6245 46.4362ZM50.5329 56.4467L50.5588 56.706H37.9031L37.9161 56.4467L37.942 56.2003L37.9809 55.9539L38.0328 55.7075L38.0847 55.4612L38.1365 55.2148L38.2143 54.9684L38.2792 54.735L38.3699 54.4887L38.4607 54.2553L38.5515 54.0219L38.6552 53.7885L38.7201 53.6847L38.7719 53.568L38.8368 53.4513L38.9016 53.3476L38.9664 53.2309L39.0313 53.1271L39.0961 53.0234L39.1609 52.9197L39.2387 52.8159L39.3036 52.7252L39.3814 52.6214L39.4462 52.5307L39.524 52.4399L39.6018 52.3362L39.6796 52.2454L39.7574 52.1676L39.8352 52.0768L39.926 51.9861L40.0038 51.8953L40.0945 51.8175L40.1853 51.7397L40.2761 51.6619L40.3668 51.5711L40.4576 51.5063L40.5484 51.4285L40.6391 51.3507L40.7299 51.2859L40.8337 51.208L40.9244 51.1432L41.0282 51.0784L41.1319 51.0135L41.2356 50.9487L41.3394 50.8968L41.4431 50.832L41.5468 50.7801L41.6506 50.7283L41.7543 50.6764L41.871 50.6245L41.9747 50.5856L42.0785 50.5338L42.2081 50.4949L42.3378 50.443L42.4675 50.4041L42.6101 50.3652L42.7398 50.3263L42.8695 50.3004L42.9991 50.2744L43.1418 50.2485L43.2714 50.2226L43.4141 50.1966L43.5437 50.1837L43.6864 50.1707L43.816 50.1577L43.9587 50.1448H44.0883L44.231 50.1318L44.3606 50.1448H44.5033L44.6329 50.1577L44.7756 50.1707L44.9052 50.1837L45.0479 50.1966L45.1776 50.2226L45.3202 50.2485L45.4499 50.2744L45.5795 50.3004L45.7222 50.3263L45.8518 50.3652L45.9815 50.4041L46.1112 50.443L46.2408 50.4949L46.3705 50.5338L46.4872 50.5856L46.5909 50.6245L46.6947 50.6764L46.8114 50.7283L46.9151 50.7801L47.0189 50.832L47.1226 50.8968L47.2263 50.9487L47.3301 51.0135L47.4208 51.0784L47.5246 51.1432L47.6283 51.208L47.7191 51.2859L47.8228 51.3507L47.9136 51.4285L48.0043 51.5063L48.0951 51.5711L48.1859 51.6619L48.2766 51.7397L48.3674 51.8175L48.4452 51.8953L48.536 51.9861L48.6138 52.0768L48.6916 52.1676L48.7823 52.2454L48.8601 52.3362L48.9379 52.4399L49.0028 52.5307L49.0806 52.6214L49.1584 52.7252L49.2232 52.8159L49.2881 52.9197L49.3659 53.0234L49.4307 53.1271L49.4955 53.2309L49.5604 53.3476L49.6252 53.4513L49.6771 53.568L49.7419 53.6847L49.7938 53.7885L49.8975 54.0219L50.0012 54.2553L50.092 54.4887L50.1698 54.735L50.2476 54.9684L50.3124 55.2148L50.3773 55.4612L50.4291 55.7075L50.468 55.9539L50.5069 56.2003L50.5329 56.4467Z" fill="#484C65"/>
<path d="M43.3623 18.2855V20.6196" stroke="#484C65" stroke-miterlimit="10" stroke-linecap="round" stroke-linejoin="round"/>
<path d="M44.5294 19.4523H42.1953" stroke="#484C65" stroke-miterlimit="10" stroke-linecap="round" stroke-linejoin="round"/>
<path d="M23.782 58.8718V61.2058" stroke="#484C65" stroke-miterlimit="10" stroke-linecap="round" stroke-linejoin="round"/>
<path d="M24.9495 60.0386H22.6155" stroke="#484C65" stroke-miterlimit="10" stroke-linecap="round" stroke-linejoin="round"/>
<path d="M76.687 31.1228V33.4568" stroke="#484C65" stroke-miterlimit="10" stroke-linecap="round" stroke-linejoin="round"/>
<path d="M77.8538 32.2894H75.5198" stroke="#484C65" stroke-miterlimit="10" stroke-linecap="round" stroke-linejoin="round"/>
<path d="M76.8164 68.2078V70.5418" stroke="#484C65" stroke-miterlimit="10" stroke-linecap="round" stroke-linejoin="round"/>
<path d="M77.9837 69.3749H75.6497" stroke="#484C65" stroke-miterlimit="10" stroke-linecap="round" stroke-linejoin="round"/>
<path d="M13.7458 12.9204L15.3926 14.5672" stroke="#484C65" stroke-miterlimit="10" stroke-linecap="round" stroke-linejoin="round"/>
<path d="M15.3926 12.9204L13.7458 14.5672" stroke="#484C65" stroke-miterlimit="10" stroke-linecap="round" stroke-linejoin="round"/>
<path d="M11.0229 73.0054L12.6697 74.6522" stroke="#484C65" stroke-miterlimit="10" stroke-linecap="round" stroke-linejoin="round"/>
<path d="M12.6697 73.0054L11.0229 74.6522" stroke="#484C65" stroke-miterlimit="10" stroke-linecap="round" stroke-linejoin="round"/>
<path fill-rule="evenodd" clip-rule="evenodd" d="M32.5739 39.3564V22.6162C32.5739 22.2272 32.2627 21.916 31.8736 21.916H18.0769C17.6879 21.916 17.3767 22.2272 17.3767 22.6162V39.3564C17.3767 39.7454 17.6879 40.0566 18.0769 40.0566H22.8228L24.7808 43.1168C24.8456 43.2205 24.9882 43.2594 25.1049 43.1816C25.1309 43.1687 25.1568 43.1427 25.1698 43.1168L27.1278 40.0566H31.8736C32.2627 40.0566 32.5739 39.7454 32.5739 39.3564ZM23.0527 31.4949C23.0527 30.4435 23.9052 29.5911 24.9566 29.5911C26.0079 29.5911 26.8604 30.4435 26.8604 31.4949C26.8604 32.5463 26.0079 33.3988 24.9566 33.3988C23.9052 33.3988 23.0527 32.5463 23.0527 31.4949ZM28.4799 37.2536L28.4894 37.3956H21.4613L21.4707 37.2536L21.4897 37.121L21.5086 36.9789L21.537 36.8463L21.5655 36.7042L21.5939 36.5716L21.6318 36.439L21.6791 36.3064L21.7265 36.1738L21.7738 36.0412L21.8307 35.9086L21.8875 35.7854L21.9159 35.7191L21.9538 35.6528L21.9822 35.596L22.0201 35.5297L22.0485 35.4729L22.0864 35.416L22.1243 35.3497L22.1622 35.2929L22.2001 35.2361L22.2474 35.1887L22.2853 35.1319L22.3232 35.075L22.3611 35.0277L22.4085 34.9803L22.4558 34.9235L22.4937 34.8761L22.5411 34.8288L22.5884 34.7814L22.6358 34.7341L22.6831 34.6867L22.7305 34.6393L22.7779 34.592L22.8252 34.5541L22.8821 34.5067L22.9294 34.4688L22.9862 34.431L23.0336 34.3836L23.0904 34.3457L23.1473 34.3078L23.2041 34.2699L23.2609 34.2415L23.3178 34.2036L23.3746 34.1752L23.4314 34.1373L23.4882 34.1089L23.5451 34.0805L23.6019 34.0521L23.6682 34.0237L23.725 33.9952L23.7913 33.9763L23.8577 33.9479L23.9334 33.9195L23.9997 33.9005L24.0755 33.8816L24.1513 33.8626L24.2271 33.8437L24.2934 33.8248L24.3691 33.8153L24.4449 33.7963L24.5207 33.7869L24.5965 33.7774L24.6722 33.7679L24.748 33.7585H24.8238L24.8996 33.749H24.9753H25.0511L25.1269 33.7585H25.2027L25.2784 33.7679L25.3542 33.7774L25.43 33.7869L25.5058 33.7963L25.5815 33.8153L25.6573 33.8248L25.7331 33.8437L25.8089 33.8626L25.8752 33.8816L25.9509 33.9005L26.0267 33.9195L26.093 33.9479L26.1688 33.9763L26.2256 33.9952L26.2919 34.0237L26.3488 34.0521L26.4056 34.0805L26.4624 34.1089L26.5287 34.1373L26.5856 34.1752L26.6424 34.2036L26.6992 34.2415L26.756 34.2699L26.8034 34.3078L26.8602 34.3457L26.9171 34.3836L26.9739 34.431L27.0213 34.4688L27.0686 34.5067L27.1254 34.5541L27.1728 34.592L27.2202 34.6393L27.277 34.6867L27.3244 34.7341L27.3717 34.7814L27.4096 34.8288L27.457 34.8761L27.5043 34.9235L27.5422 34.9803L27.5896 35.0277L27.6275 35.075L27.6748 35.1319L27.7127 35.1887L27.7506 35.2361L27.7885 35.2929L27.8264 35.3497L27.8643 35.416L27.9021 35.4729L27.94 35.5297L27.9684 35.596L28.0063 35.6528L28.0347 35.7191L28.0632 35.7854L28.1295 35.9086L28.1768 36.0412L28.2337 36.1738L28.281 36.3064L28.3189 36.439L28.3568 36.5716L28.3852 36.7042L28.4136 36.8463L28.442 36.9789L28.461 37.121L28.4799 37.2536Z" fill="#484C65"/>
<path d="M13.4868 43.83L15.1336 45.4767" stroke="#484C65" stroke-miterlimit="10" stroke-linecap="round" stroke-linejoin="round"/>
<path d="M15.1336 43.83L13.4868 45.4767" stroke="#484C65" stroke-miterlimit="10" stroke-linecap="round" stroke-linejoin="round"/>
<path d="M62.2417 55.6296L63.8885 57.2764" stroke="#484C65" stroke-miterlimit="10" stroke-linecap="round" stroke-linejoin="round"/>
<path d="M63.8885 55.6296L62.2417 57.2764" stroke="#484C65" stroke-miterlimit="10" stroke-linecap="round" stroke-linejoin="round"/>
<path d="M72.4856 12.9204L74.1324 14.5672" stroke="#484C65" stroke-miterlimit="10" stroke-linecap="round" stroke-linejoin="round"/>
<path d="M74.1324 12.9204L72.4856 14.5672" stroke="#484C65" stroke-miterlimit="10" stroke-linecap="round" stroke-linejoin="round"/>
</svg>
