<svg width="89" height="89" viewBox="0 0 89 89" fill="none" xmlns="http://www.w3.org/2000/svg">
<path fill-rule="evenodd" clip-rule="evenodd" d="M52.5098 67.5747H70.9127C71.4276 67.5747 71.8368 68.1069 71.8368 68.7389V75.7076C71.8368 76.3562 71.4144 76.8884 70.8995 76.8884H52.5098V67.5747ZM67.4275 71.5847C67.071 71.5847 66.7806 71.8751 66.7806 72.2316C66.7806 72.588 67.071 72.8785 67.4275 72.8785C67.7839 72.8785 68.0743 72.588 68.0743 72.2316C68.0743 71.8751 67.7839 71.5847 67.4275 71.5847ZM61.8697 72.2316C61.8697 71.8751 62.1601 71.5847 62.5165 71.5847C62.873 71.5847 63.1634 71.8751 63.1634 72.2316C63.1634 72.588 62.873 72.8785 62.5165 72.8785C62.1601 72.8785 61.8697 72.588 61.8697 72.2316ZM57.4607 71.5847C57.1042 71.5847 56.8138 71.8751 56.8138 72.2316C56.8138 72.588 57.1042 72.8785 57.4607 72.8785C57.8171 72.8785 58.1075 72.588 58.1075 72.2316C58.1075 71.8751 57.8171 71.5847 57.4607 71.5847Z" fill="#484C65"/>
<path d="M18.0709 76.8884H51.1593V67.5747H18.0709C17.5757 67.5747 17.1694 68.1069 17.1694 68.7556V75.7242C17.1694 76.3562 17.5757 76.8884 18.0709 76.8884Z" fill="#484C65"/>
<path fill-rule="evenodd" clip-rule="evenodd" d="M71.586 38.6445V21.6013C71.586 21.2053 71.2691 20.8884 70.8731 20.8884H56.8267C56.4306 20.8884 56.1138 21.2053 56.1138 21.6013V38.6445C56.1138 39.0405 56.4306 39.3574 56.8267 39.3574H61.6584L63.6518 42.4729C63.7179 42.5785 63.8631 42.6181 63.9819 42.5389C64.0083 42.5257 64.0347 42.4993 64.0479 42.4729L66.0413 39.3574H70.8731C71.2691 39.3574 71.586 39.0405 71.586 38.6445ZM62.2833 30.5432C62.2833 29.5771 63.0666 28.7937 64.0328 28.7937C64.9989 28.7937 65.7823 29.5771 65.7823 30.5432C65.7823 31.5094 64.9989 32.2927 64.0328 32.2927C63.0666 32.2927 62.2833 31.5094 62.2833 30.5432ZM67.0699 36.1311L67.0786 36.2616H60.6202L60.6289 36.1311L60.6463 36.0092L60.6637 35.8787L60.6899 35.7568L60.716 35.6262L60.7421 35.5044L60.7769 35.3825L60.8204 35.2607L60.8639 35.1388L60.9075 35.017L60.9597 34.8951L61.0119 34.782L61.038 34.721L61.0728 34.6601L61.0989 34.6079L61.1338 34.547L61.1599 34.4947L61.1947 34.4425L61.2295 34.3816L61.2643 34.3294L61.2991 34.2771L61.3427 34.2336L61.3775 34.1814L61.4123 34.1292L61.4471 34.0856L61.4906 34.0421L61.5341 33.9899L61.569 33.9464L61.6125 33.9029L61.656 33.8593L61.6995 33.8158L61.743 33.7723L61.7866 33.7288L61.8301 33.6853L61.8736 33.6504L61.9258 33.6069L61.9693 33.5721L62.0216 33.5373L62.0651 33.4938L62.1173 33.459L62.1695 33.4241L62.2218 33.3893L62.274 33.3632L62.3262 33.3284L62.3784 33.3023L62.4306 33.2675L62.4829 33.2414L62.5351 33.2152L62.5873 33.1891L62.6482 33.163L62.7005 33.1369L62.7614 33.1195L62.8223 33.0934L62.892 33.0673L62.9529 33.0499L63.0225 33.0325L63.0921 33.0151L63.1618 32.9977L63.2227 32.9802L63.2923 32.9715L63.362 32.9541L63.4316 32.9454L63.5012 32.9367L63.5709 32.928L63.6405 32.9193H63.7101L63.7798 32.9106H63.8494H63.919L63.9887 32.9193H64.0583L64.1279 32.928L64.1976 32.9367L64.2672 32.9454L64.3368 32.9541L64.4064 32.9715L64.4761 32.9802L64.5457 32.9977L64.6153 33.0151L64.6763 33.0325L64.7459 33.0499L64.8155 33.0673L64.8765 33.0934L64.9461 33.1195L64.9983 33.1369L65.0592 33.163L65.1115 33.1891L65.1637 33.2152L65.2159 33.2414L65.2768 33.2675L65.3291 33.3023L65.3813 33.3284L65.4335 33.3632L65.4857 33.3893L65.5293 33.4241L65.5815 33.459L65.6337 33.4938L65.6859 33.5373L65.7295 33.5721L65.773 33.6069L65.8252 33.6504L65.8687 33.6853L65.9122 33.7288L65.9645 33.7723L66.008 33.8158L66.0515 33.8593L66.0863 33.9029L66.1298 33.9464L66.1734 33.9899L66.2082 34.0421L66.2517 34.0856L66.2865 34.1292L66.33 34.1814L66.3648 34.2336L66.3997 34.2771L66.4345 34.3294L66.4693 34.3816L66.5041 34.4425L66.5389 34.4947L66.5737 34.547L66.5998 34.6079L66.6347 34.6601L66.6608 34.721L66.6869 34.782L66.7478 34.8951L66.7913 35.017L66.8436 35.1388L66.8871 35.2607L66.9219 35.3825L66.9567 35.5044L66.9828 35.6262L67.0089 35.7568L67.035 35.8787L67.0525 36.0092L67.0699 36.1311Z" fill="#484C65"/>
<path fill-rule="evenodd" clip-rule="evenodd" d="M54.6883 59.2784V36.8491C54.6883 36.3342 54.2659 35.9117 53.751 35.9117H35.2689C34.754 35.9117 34.3315 36.3342 34.3315 36.8491V59.2784C34.3315 59.7933 34.754 60.2157 35.2689 60.2157H41.632L44.2459 64.3214C44.3383 64.4666 44.5363 64.5062 44.6816 64.4138C44.7212 64.3874 44.7476 64.361 44.774 64.3214L47.3879 60.2157H53.751C54.2659 60.2157 54.6883 59.7933 54.6883 59.2784ZM41.8559 45.8527C41.8559 44.3873 43.0441 43.1992 44.5095 43.1992C45.9748 43.1992 47.163 44.3873 47.163 45.8527C47.163 47.3181 45.9748 48.5062 44.5095 48.5062C43.0441 48.5062 41.8559 47.3181 41.8559 45.8527ZM50.9255 56.0443L50.9519 56.3083H38.0672L38.0804 56.0443L38.1068 55.7935L38.1464 55.5426L38.1992 55.2918L38.252 55.041L38.3048 54.7901L38.384 54.5393L38.45 54.3017L38.5425 54.0509L38.6349 53.8132L38.7273 53.5756L38.8329 53.338L38.8989 53.2324L38.9517 53.1136L39.0177 52.9947L39.0837 52.8891L39.1497 52.7703L39.2157 52.6647L39.2817 52.5591L39.3477 52.4535L39.427 52.3479L39.493 52.2555L39.5722 52.1498L39.6382 52.0574L39.7174 51.965L39.7966 51.8594L39.8758 51.767L39.955 51.6878L40.0342 51.5954L40.1266 51.503L40.2059 51.4106L40.2983 51.3313L40.3907 51.2521L40.4831 51.1729L40.5755 51.0805L40.6679 51.0145L40.7603 50.9353L40.8527 50.8561L40.9451 50.7901L41.0508 50.7109L41.1432 50.6449L41.2488 50.5789L41.3544 50.5128L41.46 50.4468L41.5656 50.394L41.6712 50.328L41.7768 50.2752L41.8824 50.2224L41.9881 50.1696L42.1069 50.1168L42.2125 50.0772L42.3181 50.0244L42.4501 49.9848L42.5821 49.932L42.7141 49.8924L42.8594 49.8528L42.9914 49.8132L43.1234 49.7868L43.2554 49.7604L43.4006 49.734L43.5326 49.7076L43.6779 49.6811L43.8099 49.6679L43.9551 49.6547L44.0871 49.6415L44.2323 49.6283H44.3643L44.5096 49.6151L44.6416 49.6283H44.7868L44.9188 49.6415L45.064 49.6547L45.196 49.6679L45.3413 49.6811L45.4733 49.7076L45.6185 49.734L45.7505 49.7604L45.8825 49.7868L46.0277 49.8132L46.1598 49.8528L46.2918 49.8924L46.4238 49.932L46.5558 49.9848L46.6878 50.0244L46.8066 50.0772L46.9122 50.1168L47.0179 50.1696L47.1367 50.2224L47.2423 50.2752L47.3479 50.328L47.4535 50.394L47.5591 50.4468L47.6647 50.5128L47.7571 50.5789L47.8628 50.6449L47.9684 50.7109L48.0608 50.7901L48.1664 50.8561L48.2588 50.9353L48.3512 51.0145L48.4436 51.0805L48.536 51.1729L48.6284 51.2521L48.7209 51.3313L48.8001 51.4106L48.8925 51.503L48.9717 51.5954L49.0509 51.6878L49.1433 51.767L49.2225 51.8594L49.3017 51.965L49.3677 52.0574L49.4469 52.1498L49.5262 52.2555L49.5922 52.3479L49.6582 52.4535L49.7374 52.5591L49.8034 52.6647L49.8694 52.7703L49.9354 52.8891L50.0014 52.9947L50.0542 53.1136L50.1202 53.2324L50.173 53.338L50.2786 53.5756L50.3843 53.8132L50.4767 54.0509L50.5559 54.3017L50.6351 54.5393L50.7011 54.7901L50.7671 55.041L50.8199 55.2918L50.8595 55.5426L50.8991 55.7935L50.9255 56.0443Z" fill="#484C65"/>
<path fill-rule="evenodd" clip-rule="evenodd" d="M32.6416 38.6445V21.6013C32.6416 21.2053 32.3248 20.8884 31.9288 20.8884H17.8823C17.4863 20.8884 17.1694 21.2053 17.1694 21.6013V38.6445C17.1694 39.0405 17.4863 39.3574 17.8823 39.3574H22.7141L24.7075 42.4729C24.7735 42.5785 24.9187 42.6181 25.0376 42.5389C25.064 42.5257 25.0904 42.4993 25.1036 42.4729L27.097 39.3574H31.9288C32.3248 39.3574 32.6416 39.0405 32.6416 38.6445ZM22.9483 30.6408C22.9483 29.5704 23.8161 28.7025 24.8866 28.7025C25.957 28.7025 26.8249 29.5704 26.8249 30.6408C26.8249 31.7112 25.957 32.5791 24.8866 32.5791C23.8161 32.5791 22.9483 31.7112 22.9483 30.6408ZM28.4736 36.5036L28.4832 36.6483H21.3279L21.3375 36.5036L21.3568 36.3686L21.3761 36.224L21.405 36.089L21.4339 35.9443L21.4629 35.8093L21.5014 35.6743L21.5497 35.5393L21.5979 35.4043L21.6461 35.2693L21.704 35.1343L21.7618 35.0089L21.7907 34.9414L21.8293 34.8739L21.8582 34.816L21.8968 34.7485L21.9257 34.6907L21.9643 34.6328L22.0029 34.5653L22.0415 34.5075L22.08 34.4496L22.1283 34.4014L22.1668 34.3435L22.2054 34.2857L22.244 34.2374L22.2922 34.1892L22.3404 34.1314L22.379 34.0831L22.4272 34.0349L22.4754 33.9867L22.5236 33.9385L22.5718 33.8903L22.6201 33.8421L22.6683 33.7938L22.7165 33.7553L22.7744 33.7071L22.8226 33.6685L22.8804 33.6299L22.9286 33.5817L22.9865 33.5431L23.0444 33.5046L23.1022 33.466L23.1601 33.437L23.2179 33.3985L23.2758 33.3695L23.3337 33.331L23.3915 33.302L23.4494 33.2731L23.5072 33.2442L23.5748 33.2153L23.6326 33.1863L23.7001 33.167L23.7676 33.1381L23.8448 33.1092L23.9123 33.0899L23.9894 33.0706L24.0666 33.0513L24.1437 33.032L24.2112 33.0127L24.2884 33.0031L24.3655 32.9838L24.4426 32.9742L24.5198 32.9645L24.5969 32.9549L24.6741 32.9452H24.7512L24.8284 32.9356H24.9055H24.9827L25.0598 32.9452H25.137L25.2141 32.9549L25.2913 32.9645L25.3684 32.9742L25.4456 32.9838L25.5227 33.0031L25.5998 33.0127L25.677 33.032L25.7541 33.0513L25.8216 33.0706L25.8988 33.0899L25.9759 33.1092L26.0434 33.1381L26.1206 33.167L26.1784 33.1863L26.2459 33.2153L26.3038 33.2442L26.3617 33.2731L26.4195 33.302L26.487 33.331L26.5449 33.3695L26.6027 33.3985L26.6606 33.437L26.7185 33.466L26.7667 33.5046L26.8245 33.5431L26.8824 33.5817L26.9403 33.6299L26.9885 33.6685L27.0367 33.7071L27.0946 33.7553L27.1428 33.7938L27.191 33.8421L27.2488 33.8903L27.2971 33.9385L27.3453 33.9867L27.3839 34.0349L27.4321 34.0831L27.4803 34.1314L27.5189 34.1892L27.5671 34.2374L27.6057 34.2857L27.6539 34.3435L27.6924 34.4014L27.731 34.4496L27.7696 34.5075L27.8082 34.5653L27.8467 34.6328L27.8853 34.6907L27.9239 34.7485L27.9528 34.816L27.9914 34.8739L28.0203 34.9414L28.0492 35.0089L28.1167 35.1343L28.165 35.2693L28.2228 35.4043L28.271 35.5393L28.3096 35.6743L28.3482 35.8093L28.3771 35.9443L28.406 36.089L28.435 36.224L28.4543 36.3686L28.4736 36.5036Z" fill="#484C65"/>
</svg>
