<svg width="96" height="96" viewBox="0 0 96 96" fill="none" xmlns="http://www.w3.org/2000/svg">
<path d="M25.7642 34.9689C25.7642 33.5529 26.9123 32.4048 28.3283 32.4048C29.7443 32.4048 30.8924 33.5529 30.8924 34.9689C30.8924 36.3849 29.7443 37.533 28.3283 37.533C26.9123 37.533 25.7642 36.3849 25.7642 34.9689Z" fill="url(#paint0_linear_3021_37510)"/>
<path d="M33.0613 44.1155L33.0358 43.9241L33.0231 43.7455L32.9848 43.5542L32.9593 43.3756L32.921 43.1842L32.87 43.0056L32.819 42.827L32.7679 42.6485L32.7042 42.4699L32.6404 42.2913L32.5638 42.1127L32.4873 41.9468L32.449 41.8575L32.398 41.7682L32.3597 41.6917L32.3087 41.6024L32.2577 41.5258L32.2066 41.4493L32.1556 41.36L32.1046 41.2835L32.0536 41.2069L32.0025 41.1431L31.9515 41.0666L31.9005 40.9901L31.8367 40.9263L31.7857 40.8625L31.7219 40.786L31.6581 40.7222L31.6071 40.6584L31.5433 40.5946L31.4795 40.5308L31.4157 40.467L31.3519 40.4032L31.2881 40.3395L31.2116 40.2884L31.1478 40.2246L31.0713 40.1736L31.0075 40.1226L30.931 40.0588L30.8672 40.0078L30.7906 39.9568L30.7141 39.9057L30.6375 39.8675L30.561 39.8164L30.4845 39.7782L30.4079 39.7271L30.3314 39.6889L30.2548 39.6506L30.1655 39.6123L30.089 39.5741L30.0125 39.5358L29.9232 39.5103L29.8339 39.472L29.7318 39.4337L29.6298 39.4082L29.5405 39.3827L29.4384 39.3572L29.3363 39.3317L29.2343 39.3062L29.1322 39.2934L29.0302 39.2679L28.9281 39.2551L28.8261 39.2424L28.724 39.2296L28.622 39.2169H28.5199L28.4179 39.2041H28.3286H28.2265L28.1244 39.2169H28.0224L27.9203 39.2296L27.8183 39.2424L27.7162 39.2551L27.6142 39.2679L27.5121 39.2934L27.4101 39.3062L27.308 39.3317L27.206 39.3572L27.1039 39.3827L27.0146 39.4082L26.9125 39.4337L26.8105 39.472L26.7212 39.5103L26.6319 39.5358L26.5554 39.5741L26.4788 39.6123L26.3895 39.6506L26.313 39.6889L26.2364 39.7271L26.1599 39.7782L26.0834 39.8164L26.0068 39.8675L25.9303 39.9057L25.8537 39.9568L25.7772 40.0078L25.7134 40.0588L25.6369 40.1226L25.5731 40.1736L25.4965 40.2246L25.4328 40.2884L25.369 40.3395L25.2924 40.4032L25.2286 40.467L25.1649 40.5308L25.1011 40.5946L25.0373 40.6584L24.9863 40.7222L24.9225 40.786L24.8587 40.8625L24.8077 40.9263L24.7439 40.9901L24.6929 41.0666L24.6418 41.1431L24.5908 41.2069L24.5398 41.2835L24.4887 41.36L24.4377 41.4493L24.3867 41.5258L24.3357 41.6024L24.2846 41.6917L24.2464 41.7682L24.1953 41.8575L24.1571 41.9468L24.0805 42.1127L24.004 42.2913L23.9402 42.4699L23.8764 42.6485L23.8254 42.827L23.7744 43.0056L23.7233 43.1842L23.6851 43.3756L23.6595 43.5542L23.6213 43.7455L23.6085 43.9241L23.583 44.1155H33.0613Z" fill="url(#paint1_linear_3021_37510)"/>
<path d="M64.1245 35.2238C64.1245 33.8078 65.2726 32.6597 66.6886 32.6597C68.1047 32.6597 69.2528 33.8078 69.2528 35.2238C69.2528 36.6398 68.1047 37.7879 66.6886 37.7879C65.2726 37.7879 64.1245 36.6398 64.1245 35.2238Z" fill="url(#paint2_linear_3021_37510)"/>
<path d="M71.7913 44.3704L71.7785 44.179L71.753 44.0004L71.7275 43.8091L71.6892 43.6305L71.6509 43.4391L71.6127 43.2605L71.5616 43.0819L71.5106 42.9033L71.4468 42.7247L71.3703 42.5461L71.3065 42.3675L71.2172 42.2017L71.1789 42.1124L71.1407 42.0231L71.0896 41.9466L71.0514 41.8573L71.0003 41.7807L70.9493 41.7042L70.8983 41.6149L70.8472 41.5383L70.7962 41.4618L70.7452 41.398L70.6942 41.3215L70.6304 41.2449L70.5794 41.1812L70.5156 41.1174L70.4645 41.0408L70.4008 40.977L70.337 40.9133L70.2859 40.8495L70.2222 40.7857L70.1584 40.7219L70.0818 40.6581L70.0181 40.5943L69.9543 40.5433L69.8777 40.4795L69.8139 40.4285L69.7502 40.3775L69.6736 40.3137L69.5971 40.2627L69.5205 40.2116L69.4568 40.1606L69.3802 40.1223L69.3037 40.0713L69.2271 40.033L69.1506 39.982L69.0613 39.9437L68.9848 39.9055L68.9082 39.8672L68.8317 39.8289L68.7424 39.7907L68.6658 39.7651L68.5638 39.7269L68.4745 39.6886L68.3724 39.6631L68.2704 39.6376L68.1811 39.6121L68.079 39.5866L67.977 39.561L67.8749 39.5483L67.7729 39.5228L67.6708 39.51L67.5687 39.4973L67.4667 39.4845L67.3646 39.4717H67.2626L67.1605 39.459H67.0585H66.9564L66.8544 39.4717H66.7523L66.6502 39.4845L66.5482 39.4973L66.4461 39.51L66.3441 39.5228L66.242 39.5483L66.14 39.561L66.0507 39.5866L65.9486 39.6121L65.8466 39.6376L65.7445 39.6631L65.6552 39.6886L65.5532 39.7269L65.4639 39.7651L65.3746 39.7907L65.298 39.8289L65.2087 39.8672L65.1322 39.9055L65.0556 39.9437L64.9791 39.982L64.9026 40.033L64.826 40.0713L64.7495 40.1223L64.6729 40.1606L64.5964 40.2116L64.5199 40.2627L64.4433 40.3137L64.3795 40.3775L64.303 40.4285L64.2392 40.4795L64.1627 40.5433L64.0989 40.5943L64.0351 40.6581L63.9713 40.7219L63.9075 40.7857L63.8437 40.8495L63.78 40.9133L63.7162 40.977L63.6652 41.0408L63.6014 41.1174L63.5376 41.1812L63.4866 41.2449L63.4355 41.3215L63.3845 41.398L63.3207 41.4618L63.2697 41.5383L63.2187 41.6149L63.1676 41.7042L63.1166 41.7807L63.0783 41.8573L63.0273 41.9466L62.989 42.0231L62.938 42.1124L62.8997 42.2017L62.8232 42.3675L62.7467 42.5461L62.6829 42.7247L62.6191 42.9033L62.5553 43.0819L62.5043 43.2605L62.466 43.4391L62.4277 43.6305L62.3895 43.8091L62.364 44.0004L62.3384 44.179L62.3257 44.3704H71.7913Z" fill="url(#paint3_linear_3021_37510)"/>
<path d="M54.7227 64.4755L54.6972 64.2204L54.6716 63.978L54.6334 63.7356L54.5951 63.4932L54.5441 63.2509L54.4803 63.0085L54.4165 62.7661L54.34 62.5365L54.2634 62.2941L54.1741 62.0645L54.0721 61.8349L53.97 61.6052L53.919 61.5032L53.8552 61.3884L53.8042 61.2736L53.7404 61.1715L53.6766 61.0567L53.6128 60.9546L53.549 60.8526L53.4725 60.7505L53.4087 60.6485L53.3449 60.5592L53.2684 60.4571L53.1918 60.3678L53.1281 60.2785L53.0515 60.1765L52.975 60.0872L52.8857 60.0106L52.8091 59.9213L52.7326 59.832L52.6433 59.7427L52.5668 59.6662L52.4775 59.5897L52.3882 59.5131L52.2989 59.4238L52.2096 59.36L52.1203 59.2835L52.031 59.207L51.9289 59.1432L51.8396 59.0666L51.7376 59.0028L51.6355 58.9391L51.5462 58.8753L51.4442 58.8115L51.3421 58.7605L51.24 58.6967L51.138 58.6457L51.0359 58.5946L50.9211 58.5436L50.8191 58.4926L50.717 58.4543L50.6022 58.4033L50.4746 58.365L50.3471 58.314L50.2195 58.2757L50.0919 58.2374L49.9644 58.1992L49.824 58.1736L49.6965 58.1481L49.5689 58.1226L49.4286 58.0971L49.301 58.0716L49.1607 58.0588L49.0331 58.0461L48.8928 58.0333L48.7652 58.0206H48.6249L48.4973 58.0078L48.357 58.0206H48.2294L48.0891 58.0333L47.9615 58.0461L47.8212 58.0588L47.6936 58.0716L47.5533 58.0971L47.4257 58.1226L47.2854 58.1481L47.1578 58.1736L47.0303 58.1992L46.9027 58.2374L46.7624 58.2757L46.6348 58.314L46.5072 58.365L46.3797 58.4033L46.2776 58.4543L46.1756 58.4926L46.0608 58.5436L45.9587 58.5946L45.8566 58.6457L45.7546 58.6967L45.6525 58.7605L45.5505 58.8115L45.4484 58.8753L45.3464 58.9391L45.2443 59.0028L45.155 59.0666L45.053 59.1432L44.9637 59.207L44.8744 59.2835L44.7851 59.36L44.6958 59.4238L44.6065 59.5131L44.5172 59.5897L44.4279 59.6662L44.3386 59.7427L44.262 59.832L44.1727 59.9213L44.0962 60.0106L44.0197 60.0872L43.9431 60.1765L43.8666 60.2785L43.79 60.3678L43.7263 60.4571L43.6497 60.5592L43.5859 60.6485L43.5094 60.7505L43.4456 60.8526L43.3818 60.9546L43.318 61.0567L43.2543 61.1715L43.1905 61.2736L43.1267 61.3884L43.0757 61.5032L43.0119 61.6052L42.9098 61.8349L42.8205 62.0645L42.7312 62.2941L42.6419 62.5365L42.5781 62.7661L42.5016 63.0085L42.4506 63.2509L42.3995 63.4932L42.3485 63.7356L42.3102 63.978L42.2847 64.2204L42.272 64.4755H54.7227Z" fill="url(#paint4_linear_3021_37510)"/>
<path d="M45.002 52.2672C45.002 50.4047 46.5073 48.8994 48.3698 48.8994C50.2323 48.8994 51.7376 50.4047 51.7376 52.2672C51.7376 54.1297 50.2323 55.635 48.3698 55.635C46.5073 55.635 45.002 54.1297 45.002 52.2672Z" fill="url(#paint5_linear_3021_37510)"/>
<path d="M69.2524 79.2355C69.2524 78.891 69.5331 78.6104 69.8775 78.6104C70.2219 78.6104 70.5026 78.891 70.5026 79.2355C70.5026 79.5799 70.2219 79.8606 69.8775 79.8606C69.5331 79.8606 69.2524 79.5799 69.2524 79.2355Z" fill="url(#paint6_linear_3021_37510)"/>
<path d="M64.5068 79.2355C64.5068 78.891 64.7875 78.6104 65.1319 78.6104C65.4763 78.6104 65.757 78.891 65.757 79.2355C65.757 79.5799 65.4763 79.8606 65.1319 79.8606C64.7875 79.8606 64.5068 79.5799 64.5068 79.2355Z" fill="url(#paint7_linear_3021_37510)"/>
<path d="M59.6211 79.2355C59.6211 78.891 59.9017 78.6104 60.2462 78.6104C60.5906 78.6104 60.8713 78.891 60.8713 79.2355C60.8713 79.5799 60.5906 79.8606 60.2462 79.8606C59.9017 79.8606 59.6211 79.5799 59.6211 79.2355Z" fill="url(#paint8_linear_3021_37510)"/>
<path d="M73.2455 75.7651H55.4624V82.909H73.2327C73.7302 82.909 74.1384 82.5008 74.1384 82.0032V76.6581C74.1384 76.1734 73.743 75.7651 73.2455 75.7651Z" stroke="url(#paint9_linear_3021_37510)" stroke-width="2.5" stroke-miterlimit="10"/>
<path d="M22.2182 82.909H55.4626V75.7651H22.2182C21.7207 75.7651 21.3125 76.1734 21.3125 76.6709V82.016C21.3125 82.5008 21.7207 82.909 22.2182 82.909Z" stroke="url(#paint10_linear_3021_37510)" stroke-width="2.5" stroke-miterlimit="10"/>
<path d="M36.2635 46.3225V29.8534C36.2635 29.4707 35.9574 29.1646 35.5747 29.1646H22.0014C21.6187 29.1646 21.3125 29.4707 21.3125 29.8534V46.3225C21.3125 46.7052 21.6187 47.0114 22.0014 47.0114H26.6704L28.5967 50.022C28.6604 50.124 28.8008 50.1623 28.9156 50.0858C28.9411 50.073 28.9666 50.0475 28.9794 50.022L30.9056 47.0114H35.5747C35.9574 47.0114 36.2635 46.7052 36.2635 46.3225Z" stroke="url(#paint11_linear_3021_37510)" stroke-width="2.5" stroke-miterlimit="10"/>
<path d="M57.5676 66.2612V44.5874C57.5676 44.0899 57.1593 43.6816 56.6618 43.6816H38.8022C38.3047 43.6816 37.8965 44.0899 37.8965 44.5874V66.2612C37.8965 66.7587 38.3047 67.167 38.8022 67.167H44.951L47.4769 71.1343C47.5662 71.2747 47.7575 71.3129 47.8979 71.2236C47.9361 71.1981 47.9616 71.1726 47.9872 71.1343L50.513 67.167H56.6618C57.1593 67.167 57.5676 66.7587 57.5676 66.2612Z" stroke="url(#paint12_linear_3021_37510)" stroke-width="2.5" stroke-miterlimit="10"/>
<path d="M26.2363 34.382C26.2363 32.966 27.3844 31.8179 28.8005 31.8179C30.2165 31.8179 31.3646 32.966 31.3646 34.382C31.3646 35.798 30.2165 36.9461 28.8005 36.9461C27.3844 36.9461 26.2363 35.798 26.2363 34.382Z" stroke="url(#paint13_linear_3021_37510)" stroke-width="2.5" stroke-miterlimit="10"/>
<path d="M33.5207 43.6052L33.508 43.4139L33.4825 43.2353L33.457 43.0439L33.4187 42.8653L33.3804 42.674L33.3422 42.4954L33.2911 42.3168L33.2401 42.1382L33.1763 41.9596L33.0998 41.781L33.036 41.6024L32.9467 41.4366L32.9084 41.3473L32.8702 41.258L32.8191 41.1814L32.7809 41.0921L32.7298 41.0156L32.6788 40.939L32.6278 40.8498L32.5767 40.7732L32.5257 40.6967L32.4747 40.6329L32.4237 40.5563L32.3599 40.4798L32.3088 40.416L32.2451 40.3522L32.194 40.2757L32.1303 40.2119L32.0665 40.1481L32.0154 40.0843L31.9517 40.0206L31.8879 39.9568L31.8113 39.893L31.7475 39.8292L31.6838 39.7782L31.6072 39.7144L31.5434 39.6634L31.4797 39.6123L31.4031 39.5486L31.3266 39.4975L31.25 39.4465L31.1862 39.3955L31.1097 39.3572L31.0332 39.3062L30.9566 39.2679L30.8801 39.2169L30.7908 39.1786L30.7142 39.1403L30.6377 39.1021L30.5612 39.0638L30.4719 39.0255L30.3953 39L30.2933 38.9617L30.204 38.9235L30.1019 38.898L29.9999 38.8724L29.9106 38.8469L29.8085 38.8214L29.7065 38.7959L29.6044 38.7831L29.5023 38.7576L29.4003 38.7449L29.2982 38.7321L29.1962 38.7194L29.0941 38.7066H28.9921L28.89 38.6938H28.788H28.6859L28.5839 38.7066H28.4818L28.3797 38.7194L28.2777 38.7321L28.1756 38.7449L28.0736 38.7576L27.9715 38.7831L27.8695 38.7959L27.7802 38.8214L27.6781 38.8469L27.5761 38.8724L27.474 38.898L27.3847 38.9235L27.2827 38.9617L27.1934 39L27.1041 39.0255L27.0275 39.0638L26.9382 39.1021L26.8617 39.1403L26.7851 39.1786L26.7086 39.2169L26.6321 39.2679L26.5555 39.3062L26.479 39.3572L26.4024 39.3955L26.3259 39.4465L26.2494 39.4975L26.1728 39.5486L26.109 39.6123L26.0325 39.6634L25.9687 39.7144L25.8922 39.7782L25.8284 39.8292L25.7646 39.893L25.7008 39.9568L25.637 40.0206L25.5732 40.0843L25.5095 40.1481L25.4457 40.2119L25.3946 40.2757L25.3309 40.3522L25.2671 40.416L25.216 40.4798L25.165 40.5563L25.114 40.6329L25.0502 40.6967L24.9992 40.7732L24.9482 40.8498L24.8971 40.939L24.8461 41.0156L24.8078 41.0921L24.7568 41.1814L24.7185 41.258L24.6675 41.3473L24.6292 41.4366L24.5527 41.6024L24.4762 41.781L24.4124 41.9596L24.3486 42.1382L24.2848 42.3168L24.2338 42.4954L24.1955 42.674L24.1572 42.8653L24.119 43.0439L24.0934 43.2353L24.0679 43.4139L24.0552 43.6052H33.5207Z" stroke="url(#paint14_linear_3021_37510)" stroke-width="2.5" stroke-miterlimit="10" stroke-linecap="round" stroke-linejoin="round"/>
<path d="M73.8958 46.3225V29.8534C73.8958 29.4707 73.5897 29.1646 73.207 29.1646H59.6337C59.251 29.1646 58.9448 29.4707 58.9448 29.8534V46.3225C58.9448 46.7052 59.251 47.0114 59.6337 47.0114H64.3027L66.229 50.022C66.2928 50.124 66.4331 50.1623 66.5479 50.0858C66.5734 50.073 66.5989 50.0475 66.6117 50.022L68.538 47.0114H73.207C73.5897 47.0114 73.8958 46.7052 73.8958 46.3225Z" stroke="url(#paint15_linear_3021_37510)" stroke-width="2.5" stroke-miterlimit="10"/>
<path d="M63.8691 34.382C63.8691 32.966 65.0173 31.8179 66.4333 31.8179C67.8493 31.8179 68.9974 32.966 68.9974 34.382C68.9974 35.798 67.8493 36.9461 66.4333 36.9461C65.0173 36.9461 63.8691 35.798 63.8691 34.382Z" stroke="url(#paint16_linear_3021_37510)" stroke-width="2.5" stroke-miterlimit="10"/>
<path d="M71.1531 43.6052L71.1403 43.4139L71.1148 43.2353L71.0893 43.0439L71.051 42.8653L71.0128 42.674L70.9745 42.4954L70.9235 42.3168L70.8724 42.1382L70.8086 41.9596L70.7321 41.781L70.6683 41.6024L70.579 41.4366L70.5407 41.3473L70.5025 41.258L70.4515 41.1814L70.4132 41.0921L70.3622 41.0156L70.3111 40.939L70.2601 40.8498L70.2091 40.7732L70.158 40.6967L70.107 40.6329L70.056 40.5563L69.9922 40.4798L69.9412 40.416L69.8774 40.3522L69.8264 40.2757L69.7626 40.2119L69.6988 40.1481L69.6478 40.0843L69.584 40.0206L69.5202 39.9568L69.4437 39.893L69.3799 39.8292L69.3161 39.7782L69.2396 39.7144L69.1758 39.6634L69.112 39.6123L69.0354 39.5486L68.9589 39.4975L68.8824 39.4465L68.8186 39.3955L68.742 39.3572L68.6655 39.3062L68.589 39.2679L68.5124 39.2169L68.4231 39.1786L68.3466 39.1403L68.27 39.1021L68.1935 39.0638L68.1042 39.0255L68.0277 39L67.9256 38.9617L67.8363 38.9235L67.7342 38.898L67.6322 38.8724L67.5429 38.8469L67.4408 38.8214L67.3388 38.7959L67.2367 38.7831L67.1347 38.7576L67.0326 38.7449L66.9306 38.7321L66.8285 38.7194L66.7265 38.7066H66.6244L66.5223 38.6938H66.4203H66.3182L66.2162 38.7066H66.1141L66.0121 38.7194L65.91 38.7321L65.808 38.7449L65.7059 38.7576L65.6039 38.7831L65.5018 38.7959L65.4125 38.8214L65.3104 38.8469L65.2084 38.8724L65.1063 38.898L65.017 38.9235L64.915 38.9617L64.8257 39L64.7364 39.0255L64.6598 39.0638L64.5705 39.1021L64.494 39.1403L64.4175 39.1786L64.3409 39.2169L64.2644 39.2679L64.1878 39.3062L64.1113 39.3572L64.0348 39.3955L63.9582 39.4465L63.8817 39.4975L63.8051 39.5486L63.7414 39.6123L63.6648 39.6634L63.601 39.7144L63.5245 39.7782L63.4607 39.8292L63.3969 39.893L63.3331 39.9568L63.2693 40.0206L63.2056 40.0843L63.1418 40.1481L63.078 40.2119L63.027 40.2757L62.9632 40.3522L62.8994 40.416L62.8484 40.4798L62.7973 40.5563L62.7463 40.6329L62.6825 40.6967L62.6315 40.7732L62.5805 40.8498L62.5295 40.939L62.4784 41.0156L62.4402 41.0921L62.3891 41.1814L62.3509 41.258L62.2998 41.3473L62.2616 41.4366L62.185 41.6024L62.1085 41.781L62.0447 41.9596L61.9809 42.1382L61.9171 42.3168L61.8661 42.4954L61.8278 42.674L61.7896 42.8653L61.7513 43.0439L61.7258 43.2353L61.7003 43.4139L61.6875 43.6052H71.1531Z" stroke="url(#paint17_linear_3021_37510)" stroke-width="2.5" stroke-miterlimit="10" stroke-linecap="round" stroke-linejoin="round"/>
<path d="M53.9571 63.3911L53.9315 63.1359L53.906 62.8935L53.8678 62.6512L53.8295 62.4088L53.7785 62.1664L53.7147 61.924L53.6509 61.6816L53.5743 61.452L53.4978 61.2096L53.4085 60.98L53.3065 60.7504L53.2044 60.5208L53.1534 60.4187L53.0896 60.3039L53.0386 60.1891L52.9748 60.087L52.911 59.9722L52.8472 59.8702L52.7834 59.7681L52.7069 59.6661L52.6431 59.564L52.5793 59.4747L52.5028 59.3727L52.4262 59.2834L52.3624 59.1941L52.2859 59.092L52.2094 59.0027L52.1201 58.9262L52.0435 58.8369L51.967 58.7476L51.8777 58.6583L51.8011 58.5817L51.7118 58.5052L51.6225 58.4286L51.5332 58.3394L51.444 58.2756L51.3547 58.199L51.2654 58.1225L51.1633 58.0587L51.074 57.9822L50.9719 57.9184L50.8699 57.8546L50.7806 57.7908L50.6785 57.727L50.5765 57.676L50.4744 57.6122L50.3724 57.5612L50.2703 57.5102L50.1555 57.4591L50.0535 57.4081L49.9514 57.3698L49.8366 57.3188L49.709 57.2805L49.5814 57.2295L49.4539 57.1912L49.3263 57.153L49.1987 57.1147L49.0584 57.0892L48.9308 57.0637L48.8033 57.0382L48.663 57.0126L48.5354 56.9871L48.3951 56.9744L48.2675 56.9616L48.1272 56.9489L47.9996 56.9361H47.8593L47.7317 56.9233L47.5914 56.9361H47.4638L47.3235 56.9489L47.1959 56.9616L47.0556 56.9744L46.928 56.9871L46.7877 57.0126L46.6601 57.0382L46.5198 57.0637L46.3922 57.0892L46.2647 57.1147L46.1371 57.153L45.9968 57.1912L45.8692 57.2295L45.7416 57.2805L45.6141 57.3188L45.512 57.3698L45.4099 57.4081L45.2951 57.4591L45.1931 57.5102L45.091 57.5612L44.989 57.6122L44.8869 57.676L44.7849 57.727L44.6828 57.7908L44.5808 57.8546L44.4787 57.9184L44.3894 57.9822L44.2873 58.0587L44.198 58.1225L44.1087 58.199L44.0195 58.2756L43.9302 58.3394L43.8409 58.4286L43.7516 58.5052L43.6623 58.5817L43.573 58.6583L43.4964 58.7476L43.4071 58.8369L43.3306 58.9262L43.254 59.0027L43.1775 59.092L43.101 59.1941L43.0244 59.2834L42.9606 59.3727L42.8841 59.4747L42.8203 59.564L42.7438 59.6661L42.68 59.7681L42.6162 59.8702L42.5524 59.9722L42.4886 60.087L42.4248 60.1891L42.3611 60.3039L42.31 60.4187L42.2462 60.5208L42.1442 60.7504L42.0549 60.98L41.9656 61.2096L41.8763 61.452L41.8125 61.6816L41.736 61.924L41.6849 62.1664L41.6339 62.4088L41.5829 62.6512L41.5446 62.8935L41.5191 63.1359L41.5063 63.3911H53.9571Z" stroke="url(#paint18_linear_3021_37510)" stroke-width="2.5" stroke-miterlimit="10" stroke-linecap="round" stroke-linejoin="round"/>
<path d="M44.3643 50.9274C44.3643 49.0649 45.8696 47.5596 47.7321 47.5596C49.5946 47.5596 51.0999 49.0649 51.0999 50.9274C51.0999 52.7899 49.5946 54.2952 47.7321 54.2952C45.8696 54.2952 44.3643 52.7899 44.3643 50.9274Z" stroke="url(#paint19_linear_3021_37510)" stroke-width="2.5" stroke-miterlimit="10"/>
<path d="M46.8774 25.5928V27.889" stroke="url(#paint20_linear_3021_37510)" stroke-miterlimit="10" stroke-linecap="round" stroke-linejoin="round"/>
<path d="M48.0252 26.7402H45.729" stroke="url(#paint21_linear_3021_37510)" stroke-miterlimit="10" stroke-linecap="round" stroke-linejoin="round"/>
<path d="M27.6143 65.5215V67.8177" stroke="url(#paint22_linear_3021_37510)" stroke-miterlimit="10" stroke-linecap="round" stroke-linejoin="round"/>
<path d="M28.7625 66.6694H26.4663" stroke="url(#paint23_linear_3021_37510)" stroke-miterlimit="10" stroke-linecap="round" stroke-linejoin="round"/>
<path d="M79.6621 38.2222V40.5184" stroke="url(#paint24_linear_3021_37510)" stroke-miterlimit="10" stroke-linecap="round" stroke-linejoin="round"/>
<path d="M80.8104 39.3696H78.5142" stroke="url(#paint25_linear_3021_37510)" stroke-miterlimit="10" stroke-linecap="round" stroke-linejoin="round"/>
<path d="M79.7896 74.7065V77.0028" stroke="url(#paint26_linear_3021_37510)" stroke-miterlimit="10" stroke-linecap="round" stroke-linejoin="round"/>
<path d="M80.9378 75.8545H78.6416" stroke="url(#paint27_linear_3021_37510)" stroke-miterlimit="10" stroke-linecap="round" stroke-linejoin="round"/>
<path d="M17.7402 14.7495L19.3604 16.3696" stroke="url(#paint28_linear_3021_37510)" stroke-miterlimit="10" stroke-linecap="round" stroke-linejoin="round"/>
<path d="M19.3604 14.7495L17.7402 16.3696" stroke="url(#paint29_linear_3021_37510)" stroke-miterlimit="10" stroke-linecap="round" stroke-linejoin="round"/>
<path d="M15.0615 79.4263L16.6816 81.0464" stroke="url(#paint30_linear_3021_37510)" stroke-miterlimit="10" stroke-linecap="round" stroke-linejoin="round"/>
<path d="M16.6816 79.4263L15.0615 81.0464" stroke="url(#paint31_linear_3021_37510)" stroke-miterlimit="10" stroke-linecap="round" stroke-linejoin="round"/>
<path d="M17.4854 50.7236L19.1055 52.3437" stroke="url(#paint32_linear_3021_37510)" stroke-miterlimit="10" stroke-linecap="round" stroke-linejoin="round"/>
<path d="M19.1055 50.7236L17.4854 52.3437" stroke="url(#paint33_linear_3021_37510)" stroke-miterlimit="10" stroke-linecap="round" stroke-linejoin="round"/>
<path d="M65.4512 62.332L67.0713 63.9521" stroke="url(#paint34_linear_3021_37510)" stroke-miterlimit="10" stroke-linecap="round" stroke-linejoin="round"/>
<path d="M67.0713 62.332L65.4512 63.9521" stroke="url(#paint35_linear_3021_37510)" stroke-miterlimit="10" stroke-linecap="round" stroke-linejoin="round"/>
<path d="M75.5288 13.0908L77.1489 14.7109" stroke="url(#paint36_linear_3021_37510)" stroke-miterlimit="10" stroke-linecap="round" stroke-linejoin="round"/>
<path d="M77.1489 13.0908L75.5288 14.7109" stroke="url(#paint37_linear_3021_37510)" stroke-miterlimit="10" stroke-linecap="round" stroke-linejoin="round"/>
<defs>
<linearGradient id="paint0_linear_3021_37510" x1="30.8924" y1="32.4048" x2="24.9007" y2="33.7853" gradientUnits="userSpaceOnUse">
<stop stop-color="#82869F"/>
<stop offset="1" stop-color="#3D4053"/>
</linearGradient>
<linearGradient id="paint1_linear_3021_37510" x1="33.0613" y1="39.2041" x2="23.3243" y2="43.5336" gradientUnits="userSpaceOnUse">
<stop stop-color="#82869F"/>
<stop offset="1" stop-color="#3D4053"/>
</linearGradient>
<linearGradient id="paint2_linear_3021_37510" x1="69.2528" y1="32.6597" x2="63.261" y2="34.0402" gradientUnits="userSpaceOnUse">
<stop stop-color="#82869F"/>
<stop offset="1" stop-color="#3D4053"/>
</linearGradient>
<linearGradient id="paint3_linear_3021_37510" x1="71.7913" y1="39.459" x2="62.063" y2="43.7788" gradientUnits="userSpaceOnUse">
<stop stop-color="#82869F"/>
<stop offset="1" stop-color="#3D4053"/>
</linearGradient>
<linearGradient id="paint4_linear_3021_37510" x1="54.7227" y1="58.0078" x2="41.9216" y2="63.6855" gradientUnits="userSpaceOnUse">
<stop stop-color="#82869F"/>
<stop offset="1" stop-color="#3D4053"/>
</linearGradient>
<linearGradient id="paint5_linear_3021_37510" x1="51.7376" y1="48.8994" x2="43.8678" y2="50.7126" gradientUnits="userSpaceOnUse">
<stop stop-color="#82869F"/>
<stop offset="1" stop-color="#3D4053"/>
</linearGradient>
<linearGradient id="paint6_linear_3021_37510" x1="70.5026" y1="78.6104" x2="69.0419" y2="78.9469" gradientUnits="userSpaceOnUse">
<stop stop-color="#82869F"/>
<stop offset="1" stop-color="#3D4053"/>
</linearGradient>
<linearGradient id="paint7_linear_3021_37510" x1="65.757" y1="78.6104" x2="64.2963" y2="78.9469" gradientUnits="userSpaceOnUse">
<stop stop-color="#82869F"/>
<stop offset="1" stop-color="#3D4053"/>
</linearGradient>
<linearGradient id="paint8_linear_3021_37510" x1="60.8713" y1="78.6104" x2="59.4106" y2="78.9469" gradientUnits="userSpaceOnUse">
<stop stop-color="#82869F"/>
<stop offset="1" stop-color="#3D4053"/>
</linearGradient>
<linearGradient id="paint9_linear_3021_37510" x1="74.1384" y1="75.7651" x2="57.2769" y2="85.9214" gradientUnits="userSpaceOnUse">
<stop stop-color="#82869F"/>
<stop offset="1" stop-color="#3D4053"/>
</linearGradient>
<linearGradient id="paint10_linear_3021_37510" x1="55.4626" y1="75.7651" x2="36.4761" y2="96.6767" gradientUnits="userSpaceOnUse">
<stop stop-color="#82869F"/>
<stop offset="1" stop-color="#3D4053"/>
</linearGradient>
<linearGradient id="paint11_linear_3021_37510" x1="36.2635" y1="29.1645" x2="18.3515" y2="32.1081" gradientUnits="userSpaceOnUse">
<stop stop-color="#82869F"/>
<stop offset="1" stop-color="#3D4053"/>
</linearGradient>
<linearGradient id="paint12_linear_3021_37510" x1="57.5676" y1="43.6816" x2="34.0002" y2="47.553" gradientUnits="userSpaceOnUse">
<stop stop-color="#82869F"/>
<stop offset="1" stop-color="#3D4053"/>
</linearGradient>
<linearGradient id="paint13_linear_3021_37510" x1="31.3646" y1="31.8179" x2="25.3728" y2="33.1984" gradientUnits="userSpaceOnUse">
<stop stop-color="#82869F"/>
<stop offset="1" stop-color="#3D4053"/>
</linearGradient>
<linearGradient id="paint14_linear_3021_37510" x1="33.5207" y1="38.6938" x2="23.7925" y2="43.0136" gradientUnits="userSpaceOnUse">
<stop stop-color="#82869F"/>
<stop offset="1" stop-color="#3D4053"/>
</linearGradient>
<linearGradient id="paint15_linear_3021_37510" x1="73.8958" y1="29.1645" x2="55.9838" y2="32.1081" gradientUnits="userSpaceOnUse">
<stop stop-color="#82869F"/>
<stop offset="1" stop-color="#3D4053"/>
</linearGradient>
<linearGradient id="paint16_linear_3021_37510" x1="68.9974" y1="31.8179" x2="63.0057" y2="33.1984" gradientUnits="userSpaceOnUse">
<stop stop-color="#82869F"/>
<stop offset="1" stop-color="#3D4053"/>
</linearGradient>
<linearGradient id="paint17_linear_3021_37510" x1="71.1531" y1="38.6938" x2="61.4248" y2="43.0136" gradientUnits="userSpaceOnUse">
<stop stop-color="#82869F"/>
<stop offset="1" stop-color="#3D4053"/>
</linearGradient>
<linearGradient id="paint18_linear_3021_37510" x1="53.9571" y1="56.9233" x2="41.1559" y2="62.601" gradientUnits="userSpaceOnUse">
<stop stop-color="#82869F"/>
<stop offset="1" stop-color="#3D4053"/>
</linearGradient>
<linearGradient id="paint19_linear_3021_37510" x1="51.0999" y1="47.5596" x2="43.2301" y2="49.3728" gradientUnits="userSpaceOnUse">
<stop stop-color="#82869F"/>
<stop offset="1" stop-color="#3D4053"/>
</linearGradient>
<linearGradient id="paint20_linear_3021_37510" x1="47.8774" y1="25.5928" x2="46.6593" y2="25.715" gradientUnits="userSpaceOnUse">
<stop stop-color="#82869F"/>
<stop offset="1" stop-color="#3D4053"/>
</linearGradient>
<linearGradient id="paint21_linear_3021_37510" x1="48.0252" y1="26.7402" x2="45.8178" y2="27.9081" gradientUnits="userSpaceOnUse">
<stop stop-color="#82869F"/>
<stop offset="1" stop-color="#3D4053"/>
</linearGradient>
<linearGradient id="paint22_linear_3021_37510" x1="28.6143" y1="65.5215" x2="27.3961" y2="65.6437" gradientUnits="userSpaceOnUse">
<stop stop-color="#82869F"/>
<stop offset="1" stop-color="#3D4053"/>
</linearGradient>
<linearGradient id="paint23_linear_3021_37510" x1="28.7625" y1="66.6694" x2="26.5551" y2="67.8373" gradientUnits="userSpaceOnUse">
<stop stop-color="#82869F"/>
<stop offset="1" stop-color="#3D4053"/>
</linearGradient>
<linearGradient id="paint24_linear_3021_37510" x1="80.6621" y1="38.2222" x2="79.444" y2="38.3444" gradientUnits="userSpaceOnUse">
<stop stop-color="#82869F"/>
<stop offset="1" stop-color="#3D4053"/>
</linearGradient>
<linearGradient id="paint25_linear_3021_37510" x1="80.8104" y1="39.3696" x2="78.6029" y2="40.5375" gradientUnits="userSpaceOnUse">
<stop stop-color="#82869F"/>
<stop offset="1" stop-color="#3D4053"/>
</linearGradient>
<linearGradient id="paint26_linear_3021_37510" x1="80.7896" y1="74.7065" x2="79.5714" y2="74.8288" gradientUnits="userSpaceOnUse">
<stop stop-color="#82869F"/>
<stop offset="1" stop-color="#3D4053"/>
</linearGradient>
<linearGradient id="paint27_linear_3021_37510" x1="80.9378" y1="75.8545" x2="78.7304" y2="77.0223" gradientUnits="userSpaceOnUse">
<stop stop-color="#82869F"/>
<stop offset="1" stop-color="#3D4053"/>
</linearGradient>
<linearGradient id="paint28_linear_3021_37510" x1="19.3604" y1="14.7495" x2="17.4674" y2="15.1856" gradientUnits="userSpaceOnUse">
<stop stop-color="#82869F"/>
<stop offset="1" stop-color="#3D4053"/>
</linearGradient>
<linearGradient id="paint29_linear_3021_37510" x1="19.3604" y1="14.7495" x2="17.4674" y2="15.1856" gradientUnits="userSpaceOnUse">
<stop stop-color="#82869F"/>
<stop offset="1" stop-color="#3D4053"/>
</linearGradient>
<linearGradient id="paint30_linear_3021_37510" x1="16.6816" y1="79.4263" x2="14.7887" y2="79.8624" gradientUnits="userSpaceOnUse">
<stop stop-color="#82869F"/>
<stop offset="1" stop-color="#3D4053"/>
</linearGradient>
<linearGradient id="paint31_linear_3021_37510" x1="16.6816" y1="79.4263" x2="14.7887" y2="79.8624" gradientUnits="userSpaceOnUse">
<stop stop-color="#82869F"/>
<stop offset="1" stop-color="#3D4053"/>
</linearGradient>
<linearGradient id="paint32_linear_3021_37510" x1="19.1055" y1="50.7236" x2="17.2126" y2="51.1598" gradientUnits="userSpaceOnUse">
<stop stop-color="#82869F"/>
<stop offset="1" stop-color="#3D4053"/>
</linearGradient>
<linearGradient id="paint33_linear_3021_37510" x1="19.1055" y1="50.7236" x2="17.2126" y2="51.1598" gradientUnits="userSpaceOnUse">
<stop stop-color="#82869F"/>
<stop offset="1" stop-color="#3D4053"/>
</linearGradient>
<linearGradient id="paint34_linear_3021_37510" x1="67.0713" y1="62.332" x2="65.1784" y2="62.7682" gradientUnits="userSpaceOnUse">
<stop stop-color="#82869F"/>
<stop offset="1" stop-color="#3D4053"/>
</linearGradient>
<linearGradient id="paint35_linear_3021_37510" x1="67.0713" y1="62.332" x2="65.1784" y2="62.7682" gradientUnits="userSpaceOnUse">
<stop stop-color="#82869F"/>
<stop offset="1" stop-color="#3D4053"/>
</linearGradient>
<linearGradient id="paint36_linear_3021_37510" x1="77.1489" y1="13.0908" x2="75.256" y2="13.5269" gradientUnits="userSpaceOnUse">
<stop stop-color="#82869F"/>
<stop offset="1" stop-color="#3D4053"/>
</linearGradient>
<linearGradient id="paint37_linear_3021_37510" x1="77.1489" y1="13.0908" x2="75.256" y2="13.5269" gradientUnits="userSpaceOnUse">
<stop stop-color="#82869F"/>
<stop offset="1" stop-color="#3D4053"/>
</linearGradient>
</defs>
</svg>
