<svg width="89" height="89" viewBox="0 0 89 89" fill="none" xmlns="http://www.w3.org/2000/svg">
<rect width="40.2636" height="10.4451" rx="1" transform="matrix(1 0 0 -1 25.5684 46.7729)" fill="#484C65"/>
<rect x="26.353" y="49.0667" width="18.1999" height="27.8537" rx="1" fill="#484C65"/>
<rect x="46.8469" y="49.0667" width="18.1999" height="27.8537" rx="1" fill="#484C65"/>
<path d="M45.6992 35.1699C45.6992 31.5821 42.7907 28.6737 39.203 28.6737C35.6152 28.6737 32.7068 31.5821 32.7068 35.1699" stroke="#484C65" stroke-width="2.5" stroke-linecap="round"/>
<path d="M58.6916 35.1699C58.6916 31.5821 55.7832 28.6737 52.1954 28.6737C48.6077 28.6737 45.6992 31.5821 45.6992 35.1699" stroke="#484C65" stroke-width="2.5" stroke-linecap="round"/>
<path d="M74.9712 66.7491V65.29" stroke="#484C65" stroke-width="2.5" stroke-miterlimit="10" stroke-linecap="round" stroke-linejoin="round"/>
<path d="M76.6804 68.458H78.1299" stroke="#484C65" stroke-width="2.5" stroke-miterlimit="10" stroke-linecap="round" stroke-linejoin="round"/>
<path d="M74.9712 70.1665V71.616" stroke="#484C65" stroke-width="2.5" stroke-miterlimit="10" stroke-linecap="round" stroke-linejoin="round"/>
<path d="M73.2627 68.458H71.8132" stroke="#484C65" stroke-width="2.5" stroke-miterlimit="10" stroke-linecap="round" stroke-linejoin="round"/>
<path d="M11.9621 35.7028H10.0991" stroke="#484C65" stroke-width="2.5" stroke-miterlimit="10" stroke-linecap="round" stroke-linejoin="round"/>
<path d="M14.1584 37.8987V39.7617" stroke="#484C65" stroke-width="2.5" stroke-miterlimit="10" stroke-linecap="round" stroke-linejoin="round"/>
<path d="M16.3547 35.7028H18.2301" stroke="#484C65" stroke-width="2.5" stroke-miterlimit="10" stroke-linecap="round" stroke-linejoin="round"/>
<path d="M14.1584 33.5066V31.6312" stroke="#484C65" stroke-width="2.5" stroke-miterlimit="10" stroke-linecap="round" stroke-linejoin="round"/>
<path d="M78.9071 47.4723H71.0356" stroke="#484C65" stroke-width="2.5" stroke-miterlimit="10" stroke-linecap="round" stroke-linejoin="round"/>
<path d="M76.6246 14.3987L65.1506 25.8169" stroke="#484C65" stroke-width="2.5" stroke-miterlimit="10" stroke-linecap="round" stroke-linejoin="round"/>
<path d="M44.5212 19.0834L44.5212 12.9784" stroke="#484C65" stroke-width="2.5" stroke-miterlimit="10" stroke-linecap="round" stroke-linejoin="round"/>
<path d="M15.4392 13.7316L21.8447 20.1077" stroke="#484C65" stroke-width="2.5" stroke-miterlimit="10" stroke-linecap="round" stroke-linejoin="round"/>
<path d="M12.8828 54.0486L17.9951 54.0486" stroke="#484C65" stroke-width="2.5" stroke-miterlimit="10" stroke-linecap="round" stroke-linejoin="round"/>
<path d="M13.7634 68.7245C13.7634 67.6592 14.629 66.7937 15.6943 66.7937C16.7596 66.7937 17.6251 67.6592 17.6251 68.7245C17.6251 69.7898 16.7596 70.6554 15.6943 70.6554C14.629 70.6554 13.7634 69.7898 13.7634 68.7245Z" stroke="#484C65" stroke-width="2" stroke-miterlimit="10" stroke-linecap="round" stroke-linejoin="round"/>
<path d="M58.0317 15.8085C58.0317 14.8036 58.8517 13.9836 59.8566 13.9836C60.8614 13.9836 61.6814 14.8036 61.6814 15.8085C61.6814 16.8133 60.8614 17.6333 59.8566 17.6333C58.8517 17.6333 58.0317 16.8213 58.0317 15.8085Z" stroke="#484C65" stroke-width="2" stroke-miterlimit="10" stroke-linecap="round" stroke-linejoin="round"/>
<path d="M71.9849 33.9623C71.9849 33.4071 72.4414 32.9506 72.9966 32.9506C73.5518 32.9506 74.0083 33.4071 74.0083 33.9623C74.0083 34.5175 73.5518 34.974 72.9966 34.974C72.4414 34.974 71.9849 34.5175 71.9849 33.9623Z" fill="#484C65"/>
<path d="M30.1597 13.9321C30.1597 13.3769 30.6162 12.9204 31.1714 12.9204C31.7266 12.9204 32.183 13.3769 32.183 13.9321C32.183 14.4873 31.7266 14.9438 31.1714 14.9438C30.6162 14.9561 30.1597 14.4996 30.1597 13.9321Z" fill="#484C65"/>
</svg>
