<svg width="63" height="181" viewBox="0 0 63 181" fill="none" xmlns="http://www.w3.org/2000/svg">
<path d="M54.0011 70.6382C53.5412 70.9203 53.1069 71.1767 52.6726 71.4332C52.4426 71.5615 52.2127 71.6641 51.9572 71.7666C51.7528 71.8436 50.9608 71.6128 50.8586 71.4332C50.7309 71.228 50.8075 70.9972 50.9864 70.9203C51.5229 70.6638 51.4973 70.2021 51.4973 69.7148C51.4973 69.3558 51.4718 69.0223 51.4973 68.6633C51.4973 68.5094 51.5484 68.3555 51.574 68.2273C51.855 68.2016 52.0594 68.2016 52.2638 68.1503C52.5448 68.099 52.9025 68.2786 52.9792 68.5607C53.0303 68.7915 53.0558 69.048 53.0814 69.3045C53.1069 69.4584 53.0814 69.6122 53.0814 69.8174C53.2347 69.7918 53.3113 69.7918 53.3879 69.7661C53.8478 69.5353 54.3332 69.6379 54.8187 69.5609C55.0997 69.5097 55.5851 69.997 55.6618 70.3817C55.7129 70.5869 55.7384 70.792 55.7129 70.9716C55.6618 71.8692 55.6362 72.7926 55.2786 73.6389C55.0486 74.1519 54.7165 74.6135 54.3843 75.0752C53.9756 75.6138 53.4901 76.1011 53.0558 76.6397C52.8514 76.9218 52.5704 76.9988 52.2638 76.9988C51.4718 76.9988 50.6798 76.9218 49.9389 76.5884C49.3257 76.3319 48.7892 75.9729 48.3293 75.5625C48.0994 75.3573 47.9461 75.0239 47.7928 74.7161C47.6395 74.3571 47.5373 73.9467 47.4095 73.562C47.3073 73.2542 47.2052 72.9208 47.1285 72.613C46.9752 71.8949 46.9752 71.1768 47.1796 70.4843C47.2052 70.356 47.2052 70.2278 47.2052 70.0995C47.1285 70.0995 47.0774 70.0995 47.0774 70.0995C46.592 70.4586 46.1321 70.8433 45.6722 71.2024C45.3912 71.4076 45.3912 71.4845 45.57 71.7666C45.6978 71.9718 45.8255 72.2027 46.0044 72.3565C46.1832 72.5104 46.2854 72.69 46.311 72.9208C46.3365 73.3055 46.362 73.6902 46.3876 74.0749C46.4131 74.5366 46.4132 75.0239 46.4898 75.4856C46.5664 75.9729 46.4642 76.4345 46.311 76.8705C45.9788 77.8964 45.5956 78.9224 45.2379 79.9483C45.1613 80.1791 45.0846 80.3843 44.9824 80.5895C44.8547 80.8459 44.8036 81.1281 44.8547 81.4102C44.8802 81.5641 44.8802 81.718 44.8291 81.8462C44.4459 83.1799 44.0627 84.5135 43.5006 85.7959C43.4239 85.9498 43.3984 86.1037 43.3473 86.2576C43.2451 86.5397 43.1429 86.8218 43.0407 87.104C42.913 87.4117 42.7852 87.7195 42.683 88.0273C42.6319 88.1299 42.6064 88.2581 42.5553 88.3607C42.2998 88.9762 42.0443 89.5918 41.7633 90.2073C41.2779 91.2332 40.818 92.2592 40.2048 93.2338C39.6427 94.1571 39.1573 95.1317 38.6719 96.1063C38.5441 96.3628 38.5441 96.6193 38.7485 96.9014C38.9785 97.2092 39.0807 97.6195 39.234 97.9786C39.3106 98.1325 39.4383 98.2864 39.5405 98.4146C39.6938 98.5941 39.8727 98.4659 40.0515 98.4659C40.4347 98.4403 41.0224 98.9532 41.099 99.3379C41.1246 99.4918 41.0735 99.5687 40.9202 99.6457C40.6136 99.7996 40.588 99.9278 40.8435 100.107C41.2779 100.415 41.4567 100.877 41.6866 101.313C41.8399 101.595 41.9932 101.903 42.1465 102.21C42.4276 102.723 42.8619 102.826 43.475 102.749C43.5517 102.954 43.6283 103.159 43.6794 103.39C43.7561 103.724 43.6794 104.031 43.3218 104.185C43.2707 104.211 43.194 104.237 43.1429 104.288C42.9641 104.442 43.0152 104.724 43.2196 104.75C43.5006 104.801 43.5517 104.955 43.6283 105.186C43.7305 105.519 43.8838 105.852 44.0371 106.16C44.216 106.545 44.2926 106.571 44.7014 106.34C44.7525 106.314 44.778 106.314 44.8291 106.288C44.9313 106.468 45.0591 106.622 45.1357 106.801C45.1868 106.93 45.2635 107.109 45.2379 107.237C45.008 107.725 45.0846 108.161 45.3401 108.622C45.4678 108.828 45.4934 109.084 45.5956 109.315C45.6467 109.417 45.7489 109.546 45.8766 109.597C46.2343 109.7 46.3876 109.93 46.4387 110.289C46.4642 110.366 46.5409 110.443 46.5664 110.495C46.9241 110.315 47.2307 110.187 47.5373 110.007C47.6906 109.93 47.8439 109.777 47.895 109.623C48.2527 108.545 49.0702 107.879 49.9133 107.186C50.5776 106.648 51.3951 106.34 52.1105 105.929C52.3149 105.801 52.5959 105.801 52.8259 105.699C52.9792 105.647 53.1325 105.545 53.2857 105.468C53.2091 105.083 52.9281 105.211 52.7237 105.134C52.4171 104.108 52.3404 103.082 52.3915 102.031C52.4171 101.082 52.3915 100.159 52.366 99.2097C52.3405 98.4146 52.2893 97.5939 52.2638 96.7988C52.2383 96.3884 52.2383 96.0037 52.2127 95.5934C52.0339 93.3877 52.1361 91.182 52.1872 88.9763C52.2383 86.8731 52.2383 84.7444 52.2638 82.6413C52.2893 81.2306 52.3149 79.82 52.3405 78.4094C52.3405 78.1529 52.3915 77.8708 52.4171 77.6143C52.4682 77.2553 52.6726 77.1014 53.0303 77.127C53.158 77.127 53.2857 77.127 53.4135 77.1014C53.7456 77.0757 54.0267 77.3322 54.0267 77.6656C54.0267 77.999 54.0011 78.3325 54.0011 78.6659C54.0011 78.948 54.0011 79.2045 54.2566 79.384C54.461 79.5379 54.4354 79.7687 54.4354 79.9739C54.461 80.2047 54.4099 80.3586 54.1544 80.5125C54.0267 80.5895 53.9756 80.8203 53.9756 80.9998C53.95 82.2822 53.9245 83.5902 53.8989 84.8726C53.8734 85.8216 53.8478 86.7449 53.8478 87.6939C53.8478 88.2581 53.8734 88.8224 53.8478 89.4123C53.8478 89.8739 53.8223 90.3612 53.8223 90.8229C53.8223 91.6693 53.7712 92.5156 53.7967 93.3877C53.8478 95.3369 53.8989 97.2861 54.0267 99.2097C54.1033 100.159 53.9756 101.082 54.0011 102.005C54.0011 102.416 54.0267 102.852 54.0267 103.262C54.0011 103.903 53.95 104.544 53.8989 105.237C53.95 105.237 54.0522 105.263 54.1033 105.237C55.2786 104.698 56.4793 104.288 57.7312 104.031C58.1911 103.929 58.7021 103.903 59.1875 103.955C59.6218 104.006 59.9284 104.365 60.1328 104.775C60.4649 105.442 60.6182 106.186 60.746 106.93C60.8226 107.391 60.8482 107.827 60.746 108.263C60.6693 108.622 60.516 108.93 60.1328 109.058C59.8262 109.161 59.5452 109.289 59.2642 109.417C59.0853 109.494 59.0853 109.494 58.9831 109.802C59.0598 109.802 59.162 109.828 59.2131 109.802C59.8773 109.674 60.5416 109.494 61.2314 109.392C61.7679 109.315 62.2789 109.392 62.4577 110.033C62.5088 110.187 62.5088 110.366 62.4833 110.52C62.2789 111.418 62.2278 112.341 62.3555 113.265C62.3811 113.547 62.2789 113.829 62.2533 114.111C62.2022 114.419 62.1512 114.701 62.1512 115.009C62.1767 115.676 61.9212 116.163 61.3847 116.496C60.9759 116.727 60.9504 117.009 61.027 117.42C61.0781 117.727 61.0781 118.061 61.0781 118.369C61.0526 118.805 60.8737 119.01 60.4138 119.112C59.9795 119.215 59.8518 119.369 59.9029 119.83C59.9284 120.087 60.0051 120.369 60.0051 120.626C60.0306 120.985 59.9284 121.113 59.5963 121.267C58.8043 121.6 58.0378 121.908 57.2458 122.241C56.8626 122.421 56.5304 122.677 56.1728 122.857C55.8662 123.011 55.534 123.165 55.2019 123.267C54.9464 123.344 54.7931 123.498 54.742 123.755C54.6909 124.011 54.6398 124.293 54.6398 124.55C54.6398 125.729 54.6143 126.935 54.6654 128.115C54.6909 128.833 54.7676 129.577 54.8187 130.295C54.8187 130.5 54.742 130.731 54.7676 130.936C54.8442 131.782 54.9209 132.629 54.9975 133.475C55.0231 133.731 55.0997 134.014 55.0486 134.27C54.9464 134.732 55.1508 135.168 55.1764 135.604C55.2019 135.963 55.3041 136.322 55.3552 136.681C55.4318 137.348 55.4829 138.015 55.5085 138.681C55.534 139.169 55.4829 139.682 55.4574 140.195C55.4574 140.22 55.4574 140.272 55.4574 140.297C55.4829 141.528 55.4829 142.734 55.5085 143.965C55.534 144.811 55.5851 145.658 55.6362 146.53C55.6873 147.145 55.7895 147.761 55.7895 148.376C55.7895 149.838 55.7384 151.326 55.7384 152.788C55.7384 153.583 55.7384 154.352 55.764 155.147C55.8151 156.225 55.8662 157.327 55.9428 158.405C55.9684 158.866 56.045 159.328 56.0706 159.79C56.1217 160.918 56.1472 162.047 56.1728 163.149C56.1983 164.534 56.1728 165.919 56.3261 167.304C56.4282 168.253 56.556 169.202 56.4793 170.151C56.4282 170.767 56.5815 171.382 56.5815 171.998C56.6071 172.588 56.5304 173.203 56.5304 173.793C56.556 175.05 56.6326 176.307 56.6582 177.563C56.6582 177.82 56.6326 178.076 56.6071 178.307C56.5815 178.589 56.5304 178.871 56.5049 179.154C56.4538 179.615 56.2239 179.897 55.764 179.949C55.5596 179.974 55.3552 180 55.1764 180C54.9464 180 54.7931 179.872 54.7931 179.615C54.7931 179.205 54.8187 178.769 54.8442 178.358C54.8442 178.153 54.8953 177.922 54.8953 177.717C54.8953 176.461 54.8953 175.204 54.8698 173.947C54.8442 172.331 54.7931 170.715 54.742 169.074C54.7165 168.279 54.6143 167.509 54.5376 166.714C54.4865 165.945 54.4354 165.15 54.4099 164.38C54.3333 162.765 54.2822 161.175 54.2311 159.559C54.2055 158.969 54.2055 158.353 54.18 157.763C54.1289 157.02 54.0522 156.301 53.9756 155.583C53.95 155.173 53.8989 154.788 53.9245 154.378C53.95 153.301 54.0267 152.249 54.0522 151.172C54.0778 149.992 54.0522 148.787 54.0011 147.607C53.95 146.222 53.8223 144.837 53.7712 143.452C53.7201 141.99 53.7712 140.528 53.7201 139.092C53.669 137.886 53.6434 136.655 53.4135 135.45C53.2602 134.552 53.2602 133.629 53.2091 132.706C53.1325 131.372 53.0814 130.064 53.0558 128.73C53.0303 127.499 53.0558 126.294 53.0558 125.063C53.0558 124.703 53.0558 124.319 53.0303 123.96C53.0303 123.883 52.9792 123.806 52.9792 123.755C52.6215 123.703 52.2894 123.652 51.9828 123.575C51.4207 123.421 51.2674 123.19 51.3441 122.626C51.3441 122.6 51.344 122.549 51.3696 122.523C51.4718 121.959 51.4718 121.959 50.9353 121.728C50.1944 121.395 49.7089 120.882 49.7345 120.01C49.7345 119.882 49.7089 119.728 49.7345 119.6C49.76 119.343 49.6834 119.189 49.4279 119.061C49.0447 118.856 48.7381 118.574 48.5592 118.138C48.4059 117.779 48.176 117.471 48.0738 117.112C47.9716 116.83 47.9972 116.496 48.0227 116.188C48.0483 115.804 47.895 115.522 47.4862 115.316C47.3074 115.496 47.3329 115.752 47.3329 115.958C47.3074 117.42 47.3073 118.907 47.2818 120.369C47.2563 121.01 47.1796 121.677 47.1285 122.318C47.0774 122.908 47.0263 123.498 47.0263 124.062C47.0008 125.191 47.0263 126.319 47.0263 127.473C47.0263 128.499 47.0263 129.551 47.0008 130.577C47.0008 130.756 46.9752 130.936 46.9497 131.115C46.8219 131.859 46.8219 132.577 46.8986 133.321C46.9241 133.706 46.873 134.116 46.8219 134.527C46.7453 135.296 46.6431 136.065 46.5664 136.835C46.4642 137.733 46.3876 138.63 46.2854 139.528C46.2854 139.605 46.2599 139.682 46.2599 139.784C46.2343 140.323 46.1577 140.451 45.6211 140.528C45.5445 140.528 45.4678 140.528 45.3146 140.528C45.289 140.246 45.2635 139.964 45.2379 139.682C45.1613 138.758 45.3657 137.835 45.4678 136.937C45.5445 136.322 45.5445 135.732 45.4423 135.142C45.2379 134.091 45.3401 133.039 45.3912 131.987C45.4678 130.987 45.5445 129.987 45.57 128.987C45.5956 127.935 45.4934 126.884 45.4934 125.832C45.4934 125.063 45.5445 124.293 45.5956 123.524C45.7233 121.626 45.8511 119.753 45.7744 117.856C45.7489 117.343 45.8 116.83 45.8255 116.291C45.8766 115.47 45.9533 114.65 46.0044 113.829C46.0299 113.316 46.1066 112.803 46.2854 112.29C46.5664 111.495 46.4387 111.008 45.9277 110.341C45.3912 109.674 44.8036 109.084 44.4459 108.289C44.3948 108.186 44.2926 108.058 44.1904 108.058C43.9094 108.032 43.8583 107.802 43.7305 107.648C43.5517 107.468 43.5517 107.289 43.6539 107.058C43.8072 106.699 43.7561 106.519 43.424 106.288C43.1174 106.083 43.0152 105.852 42.9896 105.519C42.9641 105.237 42.8108 104.955 42.683 104.673C42.6319 104.57 42.5042 104.493 42.3765 104.442C42.0188 104.262 41.9421 104.211 41.9932 103.852C42.0699 103.493 41.9421 103.211 41.7633 102.903C41.2012 101.954 40.6647 101.005 40.1537 100.133C39.8727 100.03 39.6172 99.9535 39.4384 99.8252C39.2595 99.697 39.1062 99.5175 39.1062 99.2353C39.1062 99.0814 39.0551 98.9019 38.9785 98.7737C38.7485 98.3377 38.493 97.9016 38.212 97.44C37.931 97.7734 37.6755 98.0812 37.3945 98.4146C36.8324 99.0558 36.2959 99.7226 35.7338 100.364C35.2739 100.902 34.814 101.467 34.3286 102.005C33.9709 102.39 33.6132 102.749 33.2045 103.057C32.4636 103.647 31.6971 104.185 30.9306 104.775C30.7518 104.903 30.5474 105.057 30.3941 105.211C30.062 105.596 29.6276 105.852 29.1933 106.083C28.8612 106.237 28.478 106.365 28.0947 106.417C27.2261 106.571 26.3574 106.571 25.5143 106.442C25.0544 106.391 24.6201 106.211 24.288 105.827C23.5726 105.032 22.9083 104.185 22.3718 103.288C21.7586 102.287 21.3499 101.21 21.0688 100.082C20.7367 98.7737 20.5323 97.4143 20.5068 96.055C20.4812 95.3882 20.3535 94.7213 20.379 94.0545C20.4301 92.9773 20.5579 91.8744 20.66 90.7972C20.6856 90.6433 20.6856 90.4895 20.7367 90.233C20.5834 90.3099 20.4557 90.3099 20.4046 90.3869C19.9191 90.9511 19.4337 91.5154 19.1271 92.2335C18.795 92.9773 18.3351 93.6698 17.9263 94.3623C17.6708 94.8239 17.3898 95.2856 17.1343 95.7472C16.5978 96.6706 15.9846 97.5426 15.5759 98.5428C15.3459 99.1071 14.9882 99.5944 14.7583 100.133C14.2729 101.21 13.813 102.262 13.3787 103.365C13.0465 104.185 12.7144 105.006 12.4589 105.852C12.1012 107.109 11.6158 108.366 11.718 109.725C11.8202 110.956 12.0757 112.162 12.5356 113.316C12.6633 113.598 12.7399 113.906 12.8421 114.214C13.302 115.547 13.9152 116.83 14.5795 118.086C14.9627 118.805 15.3204 119.523 15.678 120.241C15.7547 120.395 15.8824 120.549 15.9846 120.702C16.3423 121.164 16.7255 121.6 17.0832 122.062C17.4409 122.472 17.773 122.883 18.1307 123.319C18.1818 123.395 18.2329 123.498 18.284 123.575C18.4884 123.857 18.6928 124.114 19.0249 124.267C19.3315 124.421 19.5615 124.755 19.7914 125.037C20.379 125.755 20.9666 126.499 21.5543 127.217C21.9886 127.756 22.5251 128.243 22.8572 128.858C23.1638 129.397 23.6492 129.756 23.9558 130.295C24.0836 130.526 24.2369 130.756 24.3902 130.962C24.6201 131.218 24.85 131.474 25.1055 131.731C25.5399 132.141 25.9742 132.552 26.383 132.988C26.5873 133.193 26.7917 133.424 27.0217 133.629C27.3027 133.86 27.5582 134.091 27.737 134.45C27.8137 134.629 27.9925 134.783 28.1458 134.937C28.6057 135.45 29.04 135.988 29.4999 136.527C29.9853 137.143 30.4708 137.758 30.9562 138.374C31.3139 138.784 31.5693 139.246 32.0037 139.605C32.5402 140.041 32.949 140.631 33.4089 141.144C33.5877 141.349 33.7921 141.528 33.9709 141.708C34.252 141.99 34.533 142.247 34.7374 142.606C34.9929 143.016 35.4017 143.349 35.7593 143.683C36.2703 144.196 36.8324 144.683 37.3178 145.222C37.5477 145.452 37.6755 145.786 37.8799 146.042C38.0076 146.222 38.1609 146.427 38.3653 146.53C38.7996 146.735 39.0551 147.094 39.2851 147.479C39.4639 147.761 39.5661 148.043 39.9238 148.145C40.0515 148.171 40.1282 148.351 40.2048 148.479C40.8435 149.197 41.4567 149.941 41.9677 150.762C42.3254 151.326 42.913 151.736 43.3729 152.223C43.8583 152.736 44.3692 153.224 44.7269 153.865C44.9058 154.198 45.1102 154.532 45.3912 154.788C45.8511 155.224 46.1321 155.788 46.5153 156.276C46.7708 156.609 47.0263 156.917 47.384 157.148C47.6906 157.327 47.9461 157.584 48.176 157.84C48.4826 158.199 48.8658 158.405 49.2235 158.635C49.479 158.789 49.7345 158.866 50.0411 158.841C50.9608 158.789 51.7017 158.379 52.1872 157.584C52.2127 157.558 52.2127 157.533 52.2383 157.507C52.6215 156.968 52.9025 156.558 53.6434 157.225C53.6434 157.763 53.3369 158.199 52.9792 158.558C51.9828 159.61 50.7053 159.969 49.3002 159.943C48.687 159.943 48.1249 159.661 47.6395 159.251C46.9752 158.687 46.2854 158.122 45.6722 157.481C45.1868 156.994 44.778 156.455 44.3692 155.917C43.9349 155.352 43.5517 154.788 43.1429 154.224C43.0663 154.096 42.9641 153.993 42.8619 153.891C41.8655 152.942 40.9713 151.941 40.1282 150.89C39.9493 150.659 39.7449 150.428 39.5405 150.197C39.1829 149.787 38.7996 149.377 38.442 148.966C37.9565 148.428 37.4455 147.889 36.9346 147.35C36.6535 147.017 36.3981 146.658 36.0915 146.35C35.4528 145.683 34.814 145.042 34.1753 144.375C33.8432 144.016 33.5366 143.657 33.23 143.298C32.7701 142.785 32.2847 142.272 31.8248 141.759C31.0328 140.887 30.2153 140.015 29.4744 139.092C28.7845 138.271 28.1969 137.348 27.5071 136.527C26.8173 135.706 26.0764 134.911 25.3099 134.142C24.3646 133.219 23.4704 132.27 22.6273 131.269C21.7075 130.141 20.7878 129.012 19.8936 127.909C19.6381 127.576 19.3826 127.243 19.1271 126.935C18.5395 126.242 17.9519 125.55 17.3643 124.883C16.8788 124.319 16.3934 123.729 15.908 123.165C15.5248 122.703 15.116 122.267 14.7327 121.805C14.605 121.651 14.5795 121.446 14.4773 121.267C14.2473 120.856 14.0174 120.446 13.7874 120.036C13.3531 119.241 12.8677 118.497 12.51 117.676C12.1012 116.753 11.6414 115.829 11.2581 114.88C10.6705 113.393 10.1595 111.854 10.0062 110.238C9.90404 109.135 10.0318 108.032 10.3895 106.955C10.8238 105.673 11.2326 104.365 11.6924 103.108C11.999 102.236 12.3823 101.39 12.791 100.569C13.532 99.0814 14.2984 97.6195 15.0904 96.1576C15.7547 94.9522 16.5212 93.7724 17.211 92.5669C17.5431 92.0027 17.8497 91.3871 18.2074 90.8229C18.6162 90.2073 19.076 89.6431 19.5615 89.0788C19.868 88.7198 20.1235 88.3094 20.5579 88.0273C20.7622 87.899 20.9411 87.8478 21.171 87.9247C21.2988 87.9503 21.4265 87.976 21.5543 87.976C21.963 88.0016 22.0397 88.1812 21.8608 88.5146C21.7586 88.6941 21.682 88.8993 21.5798 89.1301C22.0652 89.361 22.1674 89.72 21.9886 90.233C22.3974 90.3356 22.7295 90.4125 23.1383 90.4895C23.1383 90.6434 23.1894 90.7972 23.1638 90.9511C23.1383 91.6436 23.0361 92.3617 23.0616 93.0542C23.0616 93.7724 23.1127 94.4905 23.2149 95.2086C23.3427 96.0807 23.5215 96.927 23.7003 97.7734C23.8792 98.6967 24.2624 99.5431 24.7734 100.313C25.1311 100.851 25.5909 101.287 26.2041 101.518C26.6129 101.672 27.0472 101.723 27.4049 101.492C28.478 100.825 29.6021 100.21 30.5219 99.3123C30.7773 99.0558 30.9817 98.748 31.2372 98.4659C31.6971 97.9529 32.157 97.3887 32.6679 96.927C33.1534 96.4654 33.4599 95.9011 33.8687 95.3882C34.2775 94.8496 34.7374 94.3366 35.1462 93.7724C35.5294 93.2594 35.9126 92.7208 36.2959 92.1822C36.5769 91.7975 36.909 91.4384 37.1645 91.0281C37.5222 90.4638 37.8288 89.8739 38.1609 89.284C38.6208 88.3864 39.0296 87.463 39.5405 86.6167C40.3581 85.2317 40.9968 83.7954 41.4567 82.2566C41.7122 81.4358 42.0443 80.6407 42.2743 79.82C42.4786 79.1532 42.6064 78.4607 42.7341 77.7682C42.913 76.8962 43.0663 76.0242 43.2196 75.1521C43.2451 74.9726 43.2707 74.7931 43.2707 74.6135C43.2707 74.3827 43.1685 74.2801 42.9385 74.2801C42.7597 74.2801 42.5553 74.2032 42.3765 74.1519C42.4786 73.4337 43.1429 73.1516 43.6539 73.5363C43.8583 73.6902 44.0371 73.9211 44.216 74.1006C44.3437 74.2288 44.4714 74.3314 44.6247 74.4597C45.0846 73.8185 44.8036 72.3565 44.1138 71.8436C43.8583 72.1257 43.5772 72.4078 43.2962 72.7156C43.0918 72.613 42.8874 72.5104 42.6575 72.4078C42.5042 72.5104 42.3509 72.6387 42.1976 72.7669C42.0443 72.5617 42.121 72.3822 42.1976 72.2283C42.5553 71.6897 42.8619 71.1255 43.5006 70.8946C43.6028 70.8433 43.705 70.7664 43.8072 70.7407C44.6758 70.6638 45.2379 70.0483 45.7233 69.484C46.1832 68.9454 46.6175 68.9198 47.2052 69.048C47.2563 69.0736 47.3329 69.0993 47.4351 69.1506C47.5117 68.9967 47.5884 68.8685 47.6395 68.7146C47.7928 68.2786 47.895 67.8426 48.0738 67.4322C48.176 67.2014 48.3293 66.9962 48.4826 66.8166C48.5592 66.714 48.7381 66.6884 48.8914 66.6884C49.1213 66.6628 49.3512 66.6884 49.5812 66.6884C49.8878 67.0475 49.8111 67.4065 49.6578 67.8169C49.4023 68.5094 49.1724 69.2019 48.9425 69.8944C48.5592 70.9972 48.5337 72.0744 48.8658 73.2029C48.9936 73.6133 49.0958 74.0493 49.198 74.4597C49.3257 74.947 49.5812 75.306 50.0666 75.5112C50.2966 75.6138 50.5009 75.742 50.7053 75.8703C51.2163 76.1781 51.7017 76.0498 52.085 75.5625C52.3149 75.2547 52.5959 74.9983 52.8514 74.7161C52.9792 74.5879 53.1325 74.4597 53.2091 74.3058C53.8734 73.2029 54.1544 71.9975 54.0778 70.6894C54.0778 70.7407 54.0522 70.7151 54.0011 70.6382ZM48.4826 112.034C48.5848 112.085 48.6359 112.187 48.7125 112.187C49.3257 112.162 49.9133 112.393 50.5265 112.393C51.3185 112.418 52.0339 112.059 52.7748 111.751C52.9792 111.674 53.2091 111.572 53.4135 111.495C54.2055 111.264 54.972 111.059 55.764 110.828C56.0961 110.725 56.3771 110.52 56.6837 110.341C56.7604 110.289 56.837 110.187 56.837 110.11C56.8626 109.751 57.1436 109.546 57.3991 109.392C57.9101 109.058 58.421 108.776 58.9576 108.52C59.2386 108.392 59.3663 108.212 59.3408 107.93C59.3152 107.622 59.2897 107.289 59.2131 106.981C59.0598 106.365 58.8809 105.75 58.7276 105.134C58.6765 104.955 58.5743 104.852 58.3955 104.903C57.8334 105.057 57.2458 105.211 56.6837 105.365C56.275 105.493 55.8917 105.699 55.4829 105.801C54.5887 106.058 53.7201 106.391 52.877 106.75C52.085 107.084 51.3185 107.443 50.6798 108.007C50.2199 108.392 49.7345 108.802 49.4279 109.289C48.9425 110.136 48.5592 111.008 48.4826 112.034ZM41.6866 85.719C41.61 85.8472 41.5333 85.9498 41.4567 86.0781C41.1246 86.7193 40.7669 87.3861 40.4347 88.0273C40.1026 88.7198 39.7705 89.4379 39.4639 90.156C39.234 90.6433 39.0807 91.1563 38.6719 91.541C38.1865 92.0027 37.7777 92.5156 37.5477 93.1825C37.4967 93.362 37.3689 93.5672 37.2156 93.6698C36.3725 94.311 35.9382 95.2856 35.2228 96.0294C35.1717 96.0807 35.1206 96.1576 35.0951 96.2345C34.8907 96.7475 34.4819 97.1066 34.1242 97.4913C33.5366 98.1581 32.949 98.7993 32.3358 99.4662C31.9781 99.8509 31.646 100.236 31.2372 100.543C30.343 101.21 29.3722 101.774 28.4013 102.313C28.2225 102.416 28.0436 102.467 27.8392 102.518C27.3027 102.672 26.7917 102.646 26.2297 102.467C25.642 102.262 25.0544 102.031 24.5945 101.672C23.8536 101.108 23.2405 100.389 22.8572 99.5175C22.6784 99.0558 22.4229 98.6198 22.2185 98.1838C21.963 98.389 22.0397 98.5941 22.0652 98.7737C22.1419 99.3636 22.2441 99.9535 22.4485 100.518C22.7039 101.21 22.8828 101.928 23.2405 102.57C23.496 103.057 23.7259 103.544 24.0325 104.006C24.288 104.416 24.6456 104.75 24.9267 105.16C25.1822 105.519 25.5143 105.673 25.9486 105.673C26.1786 105.673 26.4085 105.622 26.6384 105.647C27.3027 105.724 27.8392 105.468 28.3502 105.057C29.0145 104.519 29.6532 103.955 30.3941 103.518C31.4161 102.877 32.2336 102.005 33.0512 101.159C33.741 100.415 34.4308 99.6713 35.1206 98.9019C35.8615 98.0555 36.5513 97.1835 37.0368 96.1576C37.5222 95.1317 38.0843 94.1314 38.6208 93.1568C39.1829 92.1309 39.8216 91.1563 40.2559 90.0535C40.6902 88.9506 41.1501 87.8734 41.5844 86.7962C41.6611 86.4628 41.8655 86.155 41.6866 85.719ZM49.198 116.163C48.9936 116.624 48.968 117.06 49.1469 117.368C49.2746 117.573 49.3768 117.753 49.479 117.958C49.7345 118.471 49.99 118.625 50.552 118.497C51.0886 118.369 51.5995 118.215 52.1361 118.086C53.0814 117.856 54.0522 117.676 55.0231 117.445C55.534 117.317 56.045 117.112 56.556 116.984C57.2714 116.778 58.0123 116.599 58.7276 116.445C59.1364 116.342 59.3663 116.137 59.443 115.727C59.5452 115.111 59.8773 115.034 60.3372 115.419C60.3627 115.445 60.3883 115.419 60.4649 115.419C60.7971 114.932 60.8737 114.342 60.8737 113.778C60.8737 113.213 60.9759 112.572 60.6949 111.982C60.0817 112.264 59.4941 112.495 58.932 112.752C58.7787 112.829 58.6254 112.88 58.4721 112.931C58.0123 113.085 57.5524 113.239 57.1181 113.393C56.4027 113.649 55.7129 113.983 54.972 114.188C54.1544 114.444 53.3879 114.752 52.5959 115.06C52.3149 115.163 52.0083 115.214 51.7273 115.291C51.2163 115.445 50.7053 115.599 50.2199 115.778C50.0922 115.829 49.9133 115.881 49.8367 115.983C49.6578 116.188 49.479 116.265 49.198 116.163ZM59.5196 117.343C59.0853 117.394 58.7532 117.445 58.3955 117.496C58.0889 117.548 57.7823 117.573 57.4757 117.65C56.5815 117.881 55.6873 118.138 54.7931 118.343C54.3333 118.445 53.8734 118.471 53.4135 118.574C52.7492 118.728 52.0594 118.881 51.3951 119.112C50.5776 119.369 50.4754 119.189 50.6798 120.138C50.8842 121.01 51.3185 121.369 52.1616 121.138C52.6726 121.01 53.158 120.779 53.6945 120.677C54.6143 120.497 55.4318 120.036 56.3005 119.677C56.9392 119.42 57.5268 119.112 58.14 118.805C58.3188 118.702 58.5232 118.599 58.6254 118.42C58.7787 118.189 58.9576 118.086 59.2386 118.112C59.5196 118.163 59.5963 118.061 59.5963 117.779C59.5963 117.65 59.5452 117.522 59.5196 117.343ZM60.9759 110.418C60.8737 110.392 60.7971 110.366 60.746 110.366C60.3627 110.469 59.9795 110.572 59.5963 110.7C59.1109 110.879 58.651 111.085 58.1145 110.931C58.0378 110.905 57.9101 110.931 57.8334 110.982C56.4027 111.777 54.7931 112.059 53.2857 112.598C52.6726 112.803 52.0594 113.008 51.4718 113.188C51.293 113.239 51.0886 113.316 50.8842 113.316C50.2199 113.29 49.5556 113.265 48.8914 113.213C48.4059 113.162 48.2271 113.29 48.2527 113.752C48.2782 114.111 48.3548 114.444 48.4315 114.778C48.4826 115.009 48.6614 115.111 48.8658 115.111C49.0447 115.111 49.2235 115.086 49.4023 115.06C49.8111 114.957 50.2199 114.803 50.6542 114.727C51.9061 114.47 53.0047 113.829 54.2055 113.419C54.8698 113.188 55.5085 112.906 56.1472 112.649C57.1436 112.264 58.14 111.905 59.1364 111.521C59.6218 111.341 60.0817 111.085 60.5416 110.879C60.7204 110.777 60.9248 110.725 60.9759 110.418ZM58.2677 119.907C57.8079 120.087 57.3224 120.241 56.8881 120.472C55.7895 121.01 54.6143 121.318 53.439 121.6C53.0303 121.703 52.6726 121.882 52.2383 121.882C52.085 121.882 51.8806 122.036 51.8295 122.19C51.6762 122.498 51.8806 122.985 52.1872 123.139C52.4171 123.267 52.8514 123.19 53.0303 122.934C53.2091 122.677 53.439 122.6 53.7201 122.626C54.3077 122.677 54.8698 122.549 55.3807 122.216C55.5596 122.087 55.7384 121.959 55.9173 121.857C56.6071 121.523 57.2969 121.215 57.9867 120.908C58.5232 120.677 58.5999 120.446 58.2677 119.907ZM44.1649 77.999C44.7269 76.9988 45.1357 75.6907 44.778 74.87C44.6247 75.5625 44.497 76.2293 44.3692 76.8705C44.2926 77.204 44.2415 77.5374 44.1649 77.999Z" stroke="#F5BE6B"/>
<path d="M23.7769 83.4878C23.6492 83.7186 23.7003 83.9238 23.8791 84.052C24.4412 84.4624 24.6711 85.1292 24.9522 85.7191C25.4632 86.822 25.4376 88.0018 25.3099 89.1815C25.2843 89.3611 25.2332 89.5406 25.0288 89.6176C24.9011 89.6689 24.7989 89.7714 24.6711 89.874C24.62 89.874 24.569 89.874 24.5434 89.8484C23.8025 89.6689 23.7258 89.5663 23.8791 88.8225C24.058 87.7966 24.0324 86.7963 23.7003 85.7961C23.4704 85.1549 23.1127 84.6163 22.7295 84.0777C22.6528 83.9751 22.5251 83.9494 22.3973 83.8981C22.0141 83.7699 21.6309 83.616 21.5798 83.1287C21.5798 83.0517 21.5031 82.9748 21.4265 82.9492C20.7622 82.6414 20.149 82.2567 19.5103 81.8976C18.6672 81.4103 17.8752 80.7948 17.2876 79.974C16.8021 79.2815 16.2401 78.6147 15.8568 77.8709C15.4225 77.0758 14.9115 76.3064 14.7072 75.3831C14.5028 74.4085 14.1451 73.4595 13.8385 72.5105C13.6852 71.9976 13.5319 71.4846 13.3531 70.9973C13.1742 70.4844 13.1487 70.4587 12.6377 70.5613C12.1267 70.6896 11.6413 70.5613 11.1559 70.4331C10.977 70.3818 10.8237 70.2023 10.7216 70.0484C9.90399 69.0225 9.46967 67.8427 9.21418 66.5859C9.18863 66.4577 9.13753 66.3038 9.06089 66.073C8.9076 66.2525 8.8054 66.3551 8.72875 66.4577C8.37107 66.9193 7.70681 66.9706 7.29803 66.5603C6.53157 65.7652 6.12279 64.8419 6.02059 63.739C5.94395 62.8157 6.12279 61.9437 6.48047 61.0973C6.50602 61.0204 6.55712 60.9434 6.58266 60.8665C6.68486 60.4561 6.58266 60.2253 6.17388 60.0971C6.14833 60.0971 6.09724 60.0714 6.07169 60.0714C5.48407 60.0458 5.15194 59.661 4.84535 59.225C4.74316 59.0968 4.64096 58.9686 4.53877 58.8403C4.02779 58.2761 3.90005 57.6349 4.23218 56.968C4.43657 56.532 4.56432 56.0704 4.94755 55.737C5.02419 55.6857 5.02419 55.5574 5.07529 55.4548C5.20304 55.224 5.33078 54.9932 5.43297 54.7623C5.48407 54.6598 5.48407 54.5059 5.50962 54.3776C5.15194 54.1724 4.79425 53.9929 4.46212 53.7621C4.25773 53.6082 4.07889 53.403 3.95115 53.1722C3.64456 52.6079 3.44017 52.018 3.46572 51.3512C3.49127 51.0691 3.36353 50.7613 3.26133 50.4792C3.13359 50.1201 3.18469 49.9919 3.54237 49.8636C3.67011 49.8123 3.79786 49.7097 3.84895 49.5815C3.9767 49.2481 4.05334 48.889 4.15554 48.5299C4.20663 48.3504 4.10444 48.2478 3.9256 48.1965C3.67011 48.1452 3.44017 48.0426 3.18468 48.0426C2.827 48.017 2.54597 47.8631 2.23938 47.7349C1.9328 47.581 1.70286 47.3758 1.54957 47.068C1.49847 46.9398 1.42182 46.8372 1.31963 46.7346C0.757557 46.1191 0.629813 45.324 0.553167 44.5289C0.450972 43.3748 0.502072 42.2206 0.655364 41.0665C0.73201 40.3996 0.859752 39.7328 1.01304 39.0916C1.08969 38.6812 1.29408 38.3222 1.57512 37.9887C1.9328 37.5784 2.18828 37.0911 2.46932 36.6294C2.62261 36.3986 2.57152 36.1934 2.46932 35.9626C2.36713 35.7317 2.29048 35.5009 2.26493 35.2444C2.16274 34.4494 2.29048 33.6799 2.49487 32.9105C2.62261 32.4232 2.75036 31.9102 3.00584 31.4486C3.15914 31.1921 3.23578 30.8843 3.31243 30.6022C3.49127 29.9867 3.95115 29.5507 4.28328 29.0377C4.33438 28.9608 4.43657 28.9095 4.48767 28.8069C5.07529 27.8323 5.94395 27.2167 6.88925 26.6268C7.14473 26.4729 7.40022 26.3447 7.68126 26.2165C8.11559 25.96 8.57546 25.7035 9.00979 25.4727C9.13753 25.3957 9.29083 25.3701 9.41857 25.2931C9.64851 25.1905 9.87845 25.1136 10.1084 25.011C10.185 24.9854 10.2617 24.9341 10.3383 24.9341C10.696 24.8315 11.0537 24.7289 11.4114 24.6006C11.8968 24.4211 12.4078 24.5494 12.8932 24.575C13.6086 24.6006 14.3239 24.8058 14.9626 25.1649C15.3203 25.3701 15.6269 25.3188 15.9846 25.1136C16.7 24.7032 17.4409 24.3185 18.1562 23.9338C18.5139 23.7543 18.8971 23.5491 19.2804 23.4209C19.5614 23.3183 19.8935 23.2413 20.2001 23.2413C20.8388 23.19 21.4776 23.1131 22.0907 23.1644C22.8572 23.2413 23.6237 23.3439 24.339 23.6773C24.8244 23.9082 25.3865 23.9595 25.8975 24.1903C26.8172 24.6006 27.8136 24.7802 28.7334 25.1393C29.4488 25.4214 30.1386 25.7035 30.7773 26.0882C30.905 26.1652 31.0072 26.2677 31.1094 26.3703C31.4416 26.6268 31.7226 26.8833 32.2336 26.8064C33.23 26.6525 34.2775 26.6525 35.2483 26.9346C35.7848 27.0885 36.3469 27.1654 36.8579 27.3962C37.0623 27.4988 37.2156 27.6271 37.42 27.7297C38.2631 28.1657 38.8251 28.9095 39.2595 29.7045C39.4894 30.1149 39.6938 30.6022 39.6938 31.1152C39.6938 31.1921 39.7193 31.2947 39.7193 31.3716C39.7193 32.1411 40.1281 32.654 40.6902 33.1413C41.1501 33.526 41.661 33.9108 41.7377 34.6032C41.7377 34.6545 41.7632 34.7058 41.7888 34.7571C42.2487 35.347 42.2487 36.0395 42.402 36.732C42.5808 37.5784 42.6063 38.4248 42.4786 39.2711C42.4531 39.5533 42.5041 39.7584 42.7596 39.9636C43.5261 40.5535 43.9093 41.3486 43.9604 42.3232C44.0115 43.2722 44.0626 44.2211 43.9604 45.1957C43.8838 45.9908 43.6538 46.7346 43.3984 47.4784C43.3728 47.5553 43.3217 47.6323 43.2962 47.7092C42.964 48.1965 42.6063 48.6582 42.2998 49.1455C42.0698 49.5046 41.9165 49.9149 41.6866 50.2996C41.4566 50.7357 41.2012 51.146 40.9457 51.5564C40.869 51.6846 40.7413 51.7872 40.6135 51.8129C40.3836 51.8898 40.1281 51.9154 39.8726 51.9667C39.8215 51.9667 39.7193 51.9924 39.6682 51.9667C39.0295 51.6333 38.3653 51.3512 38.0076 50.6331C37.8543 50.2996 37.6243 50.0175 37.3944 49.6328C36.2447 49.2737 35.7082 48.1709 35.0184 47.145C34.8395 47.2476 34.7118 47.3245 34.584 47.4271C33.7665 48.017 32.8467 48.1965 31.8503 48.017C31.7992 48.017 31.7481 47.9913 31.697 47.9913C30.7773 48.1452 30.113 47.6323 29.3977 47.2219C29.1166 47.068 28.8611 46.8628 28.6057 46.709C28.4013 46.5807 28.2224 46.6064 28.0947 46.8116C28.018 46.9398 27.8903 47.0424 27.8392 47.1706C27.3282 48.0426 26.5107 48.2991 25.5909 48.4017C25.4376 48.4274 25.2588 48.4274 25.1055 48.4787C24.3901 48.7351 23.7514 48.4274 23.1638 48.0939C22.8316 47.9144 22.5251 47.6066 22.1674 47.3245C21.8608 47.7092 21.6309 48.0939 21.2987 48.4274C20.9666 48.7351 20.5578 48.966 20.1746 49.2224C20.1746 49.4533 20.2768 49.5302 20.4556 49.5302C21.0943 49.5302 21.6564 49.7867 22.2185 49.9662C22.3462 50.0175 22.4995 50.0945 22.5762 50.2227C22.6784 50.3766 22.7805 50.4535 22.9338 50.5048C23.2404 50.5818 23.4448 51.2486 23.2149 51.4794C23.1382 51.582 22.8827 51.6077 22.7805 51.5564C22.4229 51.3768 22.0141 51.1717 21.733 50.8895C21.3243 50.4279 20.8644 50.4279 20.379 50.5048C19.6892 50.6331 18.9993 50.9152 18.3095 51.0178C17.6708 51.0947 17.2876 51.5307 16.8277 51.8642C16.5211 52.095 16.2145 52.3002 15.8824 52.4797C15.7036 52.5566 15.4736 52.5053 15.2181 52.531C15.2181 52.3771 15.2181 52.2489 15.2437 52.1976C15.5247 51.6846 15.8313 51.1717 16.3423 50.8382C16.7255 50.6074 17.1087 50.4022 17.5175 50.1714C17.6964 50.0688 17.773 49.9662 17.6964 49.7097C16.6744 49.7354 15.9079 49.1711 15.1159 48.3761C15.0393 48.5043 14.9882 48.6069 14.9115 48.7095C14.5539 49.1968 14.2217 49.7354 13.8129 50.1971C13.4042 50.6587 12.9187 51.0434 12.4333 51.4025C12.0245 51.6846 11.5647 51.8641 11.1303 52.095C10.9004 52.2232 10.8237 52.4284 10.7982 52.6849C10.7471 53.3517 10.696 54.0186 10.6449 54.6854C10.6449 54.8136 10.6449 54.9419 10.6194 55.0445C10.2361 55.9678 10.6705 56.8142 10.9004 57.6862C11.1303 58.5582 11.5391 59.3789 11.3603 60.3022C11.3347 60.4561 11.2836 60.6357 11.2581 60.7895C11.207 61.0717 11.2836 61.1743 11.5647 61.1743C11.7946 61.1743 12.1012 61.0204 12.2545 61.2769C12.3567 61.4564 12.3311 61.7129 12.3567 61.9437C12.4589 62.9952 12.5355 64.0212 12.9443 65.0471C13.2509 65.8421 13.4042 66.7142 13.6341 67.5605C13.8385 68.2787 13.9918 69.0225 14.2217 69.7406C14.7072 71.3051 15.2181 72.8696 15.7291 74.4341C16.0357 75.3318 16.3678 76.2295 16.8277 77.0502C17.4409 78.1787 18.1818 79.179 18.9993 80.1279C19.1782 80.3331 19.4081 80.487 19.6125 80.6665C20.2512 81.2308 21.0177 81.6155 21.7586 82.0002C21.9885 82.1284 22.2696 82.1541 22.5251 82.231C23.3171 82.4362 24.0835 82.667 24.9011 82.6157C25.9741 82.5388 27.0727 82.4875 28.1202 82.308C28.9633 82.1797 29.7042 81.7181 30.4196 81.2308C30.9306 80.8973 31.4671 80.5639 31.9781 80.2305C32.3869 79.9484 32.7445 79.6406 33.1533 79.3841C34.0475 78.8199 34.5841 77.9479 35.1206 77.0758C35.2994 76.7681 35.5038 76.4859 35.6826 76.2038C36.1936 75.46 36.5513 74.6393 36.8068 73.7416C37.0878 72.767 37.4711 71.8437 37.7521 70.8691C38.1353 69.5867 38.3653 68.253 38.4419 66.9194C38.5186 65.7909 38.7229 64.6623 38.7996 63.5082C38.9273 61.7898 39.004 60.0714 39.1317 58.353C39.2084 57.2502 39.2339 56.1473 39.3617 55.0445C39.4638 54.275 39.6682 53.5313 39.8471 52.7875C39.9237 52.4797 40.1537 52.3771 40.4092 52.3258C40.9968 52.6079 40.8946 53.1722 40.8946 53.6338C40.9201 54.2237 40.8435 54.8136 40.8179 55.3779C40.7924 55.9678 40.7924 56.5577 40.7413 57.1219C40.6902 58.0196 40.6391 58.8916 40.588 59.7893C40.5369 60.7126 40.4603 61.6359 40.4347 62.5336C40.4092 64.0725 40.1026 65.6113 39.9748 67.1245C39.8726 68.2017 39.6938 69.2789 39.4128 70.3305C39.3106 70.6639 39.2084 70.9973 39.0806 71.3308C38.7996 72.1771 38.4674 73.0235 38.212 73.8955C37.9054 74.9727 37.3178 75.8704 36.7046 76.7681C36.5002 77.0758 36.2447 77.3836 36.1936 77.7683C36.2192 77.8196 36.2192 77.8196 36.2447 77.8453C36.9856 78.2556 37.0367 78.4352 36.5258 79.1533C36.2703 79.538 35.9892 79.8971 35.7593 80.3074C35.5549 80.6922 35.4016 81.1025 35.1972 81.4872C34.4819 82.8979 33.9709 84.3854 33.511 85.873C33.0511 87.3862 32.6934 88.8994 32.5657 90.4896C32.5402 90.8486 32.4124 91.2077 32.3613 91.5668C32.208 92.5157 32.0803 93.4904 31.927 94.4906C31.416 94.5419 31.416 95.2601 30.8028 95.3626C30.7773 95.0036 30.7262 94.6702 30.7006 94.3111C30.5984 92.6183 31.0839 91.0025 31.2627 89.3354C31.3905 88.13 31.7226 86.9758 32.0547 85.7961C32.5402 84.052 33.1022 82.3336 33.9453 80.7178C34.0731 80.487 34.1497 80.2305 34.303 79.8714C33.7665 80.2049 33.3577 80.487 32.9234 80.7178C32.2336 81.0769 31.697 81.6411 31.0583 82.0258C30.8028 82.1797 30.5729 82.4106 30.3174 82.6157C30.2408 82.667 30.1386 82.7183 30.0619 82.744C29.4488 82.9235 28.8356 83.1543 28.1969 83.2569C27.3282 83.4108 26.4596 83.4878 25.5654 83.5391C25.0544 83.5647 24.5434 83.4878 24.0324 83.4621C23.9813 83.4621 23.8791 83.4878 23.7769 83.4878ZM37.5222 48.4017C37.701 48.0426 37.8798 47.6836 38.0587 47.3245C38.1353 47.1706 38.2375 47.0167 38.4674 47.0167C38.8507 47.0167 39.1573 47.2732 39.4639 47.4527C39.515 47.4784 39.566 47.6066 39.5405 47.6836C39.4894 47.9401 39.4383 48.2222 39.3361 48.453C39.2339 48.6838 39.0295 48.8634 38.9273 49.0686C38.8251 49.2481 38.7485 49.4789 38.774 49.6841C38.7996 49.9406 38.9018 50.1971 39.004 50.4535C39.3106 51.1204 39.6682 51.146 40.1026 50.5561C40.5114 49.9662 40.9457 49.3507 41.0479 48.5812C41.0734 48.3761 41.1245 48.2222 41.4055 48.1709C41.5588 48.1452 41.7121 47.9401 41.8399 47.7862C42.0187 47.5297 42.1465 47.2732 42.2742 46.9911C42.683 46.2217 42.9385 45.3753 42.9896 44.5033C43.0407 43.6569 42.9896 42.8362 42.9385 41.9898C42.9129 41.6564 42.7852 41.2973 42.7085 40.9639C42.6574 40.7843 42.5297 40.6561 42.3509 40.7587C42.0187 40.9382 41.8143 40.7843 41.5588 40.6305C41.0734 40.3227 40.9201 40.0149 41.1501 39.4763C41.2267 39.2968 41.3289 39.1172 41.3545 38.9121C41.5588 37.8092 41.5588 36.7064 41.3289 35.6035C41.2523 35.2188 41.099 34.8341 40.869 34.5007C40.588 34.0903 40.3581 33.603 39.8982 33.3209C39.796 33.2439 39.7193 33.2439 39.5916 33.2696C38.9018 33.3722 38.3397 32.7053 38.5185 32.0385C38.5952 31.7564 38.5952 31.4486 38.5952 31.1408C38.5952 30.9613 38.493 30.7817 38.4674 30.6022C38.3142 29.4224 37.5988 28.7556 36.5002 28.4222C36.3469 28.3709 36.2192 28.2426 36.0659 28.217C35.2739 28.0887 34.4563 27.9348 33.6387 28.0887C33.2811 28.14 32.8978 28.1144 32.5402 28.2939C32.2591 28.4478 31.9014 28.4222 31.6459 28.0887C31.3649 27.7553 31.0839 27.3706 30.7262 27.1398C30.2152 26.8064 29.6276 26.5242 29.0655 26.319C28.5035 26.1139 27.9158 25.9856 27.3538 25.883C26.5362 25.7291 25.8208 25.2931 25.0288 25.088C24.5179 24.9341 23.9813 24.7289 23.4448 24.575C22.5762 24.2929 21.7075 24.3955 20.8388 24.5237C20.5067 24.575 20.1746 24.7032 19.8424 24.8571C19.2548 25.1392 18.6928 25.4727 18.1051 25.7035C17.4153 25.96 16.8532 26.3447 16.4189 26.9602C16.2145 27.268 15.9079 27.2424 15.6014 26.9859C15.2692 26.7038 14.9626 26.3447 14.4772 26.3447C14.4261 26.3447 14.375 26.2677 14.2984 26.2421C13.7618 25.8574 13.1231 25.8574 12.51 25.96C11.9734 26.0626 11.3858 26.0369 10.9004 26.3447C10.8493 26.3703 10.7982 26.3703 10.7471 26.3703C10.1339 26.6268 9.49522 26.8833 8.88205 27.1911C8.54991 27.345 8.21778 27.5501 7.88565 27.7553C7.27248 28.0887 6.68486 28.4478 6.22498 29.0121C6.14834 29.1146 6.04614 29.2172 5.94395 29.2942C5.50962 29.7045 5.12639 30.1149 4.8709 30.6535C4.64096 31.1152 4.38548 31.5768 4.18109 32.0385C3.74676 33.0387 3.41463 34.0646 3.41463 35.1931C3.41463 35.86 3.54237 36.0139 4.15554 36.0652C4.8709 36.1165 5.38187 36.5268 5.8162 37.0398C5.96949 37.2193 6.02059 37.4245 5.8673 37.6553C5.68846 37.9118 5.56071 37.9631 5.22858 37.8862C4.89645 37.8092 4.56432 37.7066 4.20663 37.6297C3.8745 37.5271 3.59347 37.604 3.38908 37.8605C2.90365 38.4504 2.41822 39.0147 2.21383 39.8097C1.9328 40.9382 1.67731 42.0924 1.72841 43.2722C1.75396 43.8621 1.80505 44.452 1.77951 45.0162C1.75396 45.5548 1.90725 46.0165 2.13719 46.4525C2.44377 47.068 2.69926 47.2989 3.49127 47.1963C4.12999 47.0937 4.76871 46.9911 5.38188 46.7346C5.71401 46.5807 6.04614 46.6577 6.35273 46.7859C6.42937 46.8116 6.53157 46.9654 6.53157 47.0424C6.55712 47.2989 6.53156 47.581 6.30163 47.7349C5.96949 47.9657 5.7651 48.2991 5.61181 48.6582C5.35633 49.2737 5.12639 49.9149 4.94755 50.5305C4.84535 50.8639 4.922 51.0691 5.20304 51.146C5.45852 51.223 5.73956 51.2743 6.02059 51.3255C6.40382 51.3768 6.8126 51.4025 7.19583 51.4538C7.83455 51.5307 8.44772 51.6077 9.08644 51.5564C9.49522 51.5051 9.67406 51.2743 9.59741 50.8639C9.57186 50.6331 9.54632 50.4022 9.54632 50.1714C9.52077 49.5302 9.46967 48.9147 9.46967 48.2735C9.46967 48.0426 9.54631 47.8375 9.59741 47.6066C10.0573 47.6066 10.4405 47.7349 10.5683 48.0939C10.7982 48.6838 11.0281 49.325 10.7471 49.9919C10.6449 50.2227 10.6705 50.4535 10.9004 50.6074C11.1814 50.5305 11.4625 50.4535 11.718 50.3509C11.8712 50.274 12.0756 50.1458 12.1267 49.9919C12.2034 49.7354 12.3567 49.6328 12.5611 49.5815C12.6633 49.5559 12.7399 49.4789 12.8165 49.402C13.1998 48.889 13.6852 48.4787 13.9407 47.8631C14.0173 47.7092 14.1451 47.5553 14.2473 47.4015C14.375 47.2219 14.5794 47.145 14.7327 47.2219C15.0904 47.4527 15.5503 47.4784 15.8313 47.9144C16.3423 48.7095 17.1598 48.8121 18.0029 48.6325C18.5395 48.5299 19.0504 48.3248 19.587 48.1709C20.0724 47.9913 20.4301 47.6579 20.6855 47.1963C20.941 46.709 21.171 46.2473 21.4009 45.76C21.5031 45.5292 21.6564 45.4266 21.9119 45.5035C22.4229 45.6574 22.755 45.9395 22.8572 46.4781C22.9594 47.0937 23.5726 47.5553 24.2113 47.581C24.9266 47.6066 25.5909 47.4015 26.2296 47.068C26.4596 46.9654 26.6639 46.7346 26.7917 46.5294C26.9705 46.2473 27.1238 45.9139 27.226 45.5805C27.4304 44.9649 27.6348 44.3494 27.8136 43.7082C27.8647 43.5543 27.9158 43.3235 28.0947 43.3748C28.3757 43.4517 28.6312 43.6056 28.9122 43.7338C29.1422 43.8621 29.0655 44.0929 29.0655 44.2724C29.0655 44.4263 29.04 44.5802 29.0655 44.7341C29.1677 45.5035 29.2955 46.2473 30.113 46.709C30.8284 47.1193 31.5437 47.2219 32.3358 47.0937C32.5146 47.068 32.719 47.0424 32.8978 46.9911C33.511 46.7859 33.9198 46.3755 34.1497 45.7856C34.3286 45.4009 34.4819 44.9906 34.6607 44.5802C34.8395 44.5802 34.9928 44.5546 35.1206 44.5802C35.6826 44.6571 35.8359 44.8367 35.887 45.3753C35.9126 45.5805 35.9381 45.8113 35.9892 46.0165C36.1681 46.7346 36.3725 47.4271 36.8068 48.0426C36.9345 48.3504 37.1389 48.5043 37.5222 48.4017ZM4.79425 51.9411C4.69206 52.967 4.8198 53.2235 5.48407 53.5313C5.56071 53.5569 5.63736 53.5825 5.71401 53.6082C6.14834 53.6851 6.55712 53.7364 6.99144 53.7877C7.34913 53.8134 7.57906 53.9673 7.65571 54.2237C7.73236 54.5315 7.65571 54.6085 7.34913 54.8649C6.96589 55.1727 6.60821 55.5318 6.25053 55.8652C6.19943 55.9165 6.17389 55.9678 6.14834 56.0191C5.8673 56.4807 5.58627 56.9424 5.33078 57.4041C4.8709 58.1991 5.07529 59.0712 6.02059 59.4302C6.35273 59.5585 6.63376 59.6098 6.96589 59.4046C7.22138 59.225 7.52797 59.0199 7.809 58.9942C8.11559 58.9686 8.42217 59.1737 8.72875 59.2763C8.7543 59.2763 8.75431 59.302 8.77985 59.3276C8.88205 59.6354 8.62656 59.8149 8.49882 60.0201C8.03894 60.687 7.57907 61.3282 7.37468 62.1232C7.29803 62.4566 7.24693 62.8157 7.14473 63.1491C6.88925 63.9699 7.06809 64.7649 7.34913 65.56C7.45132 65.8165 7.68126 65.8421 7.8601 65.637C7.9112 65.5857 7.96229 65.5087 7.98784 65.4318C8.37107 64.6367 8.7543 63.8416 9.08644 63.0209C9.34192 62.3797 9.46967 61.7129 9.69961 61.0717C9.7507 60.9178 9.8529 60.7895 9.95509 60.687C10.0573 60.5844 10.2361 60.4818 10.2361 60.3792C10.2872 59.8919 10.4916 59.4302 10.3639 58.9429C10.2106 58.43 10.0317 57.917 9.8529 57.4297C9.7507 57.1219 9.62296 56.8142 9.54632 56.4807C9.41857 56.0704 9.34192 55.6344 9.21418 55.224C9.16308 55.0445 9.16308 54.9162 9.29083 54.7623C9.39302 54.6598 9.49522 54.4802 9.52076 54.352C9.57186 53.9929 9.59741 53.6595 9.59741 53.3004C9.59741 52.8131 9.49521 52.531 8.8565 52.6079C8.77985 52.6079 8.70321 52.5823 8.60101 52.5823C8.21778 52.5823 7.83455 52.531 7.47687 52.7105C7.40022 52.7618 7.24693 52.7105 7.14473 52.6592C6.8126 52.5053 6.45492 52.5053 6.12279 52.531C5.71401 52.095 5.27968 52.018 4.79425 51.9411ZM11.0792 61.5077C11.0281 61.5077 10.977 61.5077 10.9259 61.482C10.8493 61.6359 10.7471 61.7642 10.696 61.9181C10.4405 62.5849 10.185 63.2517 9.92955 63.9186C9.8529 64.1237 9.8529 64.3546 9.98064 64.5341C10.2872 64.9701 10.3128 65.4574 10.3639 65.9704C10.415 66.3807 10.4916 66.7911 10.5938 67.2015C10.7216 67.6888 10.9004 68.1504 11.0792 68.6121C11.1814 68.9199 11.2836 69.2533 11.6413 69.4328C11.8968 69.0738 12.1267 68.7403 12.3567 68.4069C12.4078 68.3043 12.4078 68.1504 12.4078 68.0222C12.2545 67.1245 12.1267 66.2269 11.7946 65.3805C11.3858 64.3546 11.1303 63.3287 11.1559 62.2002C11.1559 61.995 11.1048 61.7642 11.0792 61.5077Z" stroke="#F5BE6B"/>
<path d="M55.2276 65.9191C55.6619 65.6882 56.0451 65.5087 56.3517 65.2779C56.9393 64.8162 56.9138 64.5597 56.6583 63.9185C56.3517 63.1235 55.8152 62.4823 55.2787 61.8411C54.2823 60.6613 53.337 59.4302 52.6727 58.0196C52.4428 57.5323 52.1362 57.0963 51.8552 56.6346C51.6763 56.3525 51.5997 56.0447 51.7785 55.7369C51.9062 55.5061 51.8807 55.2753 51.7785 55.0701C51.6508 54.788 51.5486 54.4802 51.4208 54.1981C51.0631 53.4286 50.8843 52.6079 50.8332 51.7615C50.8077 51.2999 50.7055 50.8382 50.731 50.3509C50.7566 49.9149 50.8588 49.4532 50.9865 49.0172C51.0631 48.7095 51.2675 48.4786 51.5997 48.4273C51.6763 48.4017 51.7785 48.4017 51.8296 48.3504C52.0851 48.017 52.4172 47.8631 52.8005 47.7605C52.8771 47.7348 52.9282 47.5553 52.9282 47.4527C52.9027 47.1193 52.9537 46.8372 53.1581 46.5551C53.2348 46.4525 53.2348 46.2986 53.2348 46.1703C53.2348 45.9139 53.2092 45.6317 53.1837 45.3753C53.1326 44.9649 53.0559 44.5545 53.337 44.1698C53.4136 44.0672 53.4136 43.8877 53.4136 43.7338C53.4392 42.3232 53.4647 40.9126 53.4392 39.5019C53.4136 38.0144 53.337 36.5525 53.3114 35.0905C53.2859 33.3208 53.2859 31.5255 53.4136 29.7558C53.4903 28.3708 53.5158 26.9602 53.5158 25.5752C53.5414 24.0107 53.5414 22.4206 53.5669 20.8561C53.5925 19.8558 53.6691 18.8556 53.7202 17.8553C53.7458 17.4193 53.6691 16.9833 53.6436 16.5473C53.6436 16.3677 53.618 16.2138 53.6436 16.0343C53.7202 14.7006 53.618 13.3669 53.5158 12.0333C53.4392 11.1099 53.4136 10.1866 53.4136 9.26332C53.3881 8.26306 53.3625 7.28844 53.3625 6.28818C53.3625 5.21098 53.3881 4.10813 53.3881 3.03093C53.3881 2.67186 53.337 2.33844 53.3114 1.97937C53.2859 1.56901 53.4392 1.26124 53.8735 1.18429C53.9246 1.18429 53.9502 1.133 54.0012 1.10735C54.8955 0.850874 55.1254 1.03041 55.1254 1.90243C55.0998 3.05657 55.1254 4.21072 55.0998 5.36487C55.0998 6.64725 55.0743 7.92964 55.0743 9.23767C55.0743 9.59673 55.1509 9.93016 55.1765 10.2892C55.2531 11.7768 55.3553 13.2644 55.432 14.7519C55.4575 15.1366 55.432 15.5214 55.432 15.9061C55.4064 17.2397 55.3553 18.5734 55.3298 19.9071C55.3042 22.3436 55.3042 24.8058 55.2531 27.2423C55.2531 27.9861 55.1509 28.7043 55.0998 29.448C55.0487 30.6022 54.9721 31.7563 54.9721 32.9105C54.9465 34.3468 54.9465 35.783 54.9465 37.2193C54.9465 37.2962 54.9465 37.3475 54.9465 37.4245C55.202 38.7838 55.0232 40.1431 55.0232 41.5025C55.0232 41.8615 54.9721 42.1949 54.9721 42.554C54.9721 42.6053 54.9976 42.6823 55.0487 42.8105C55.2276 42.7335 55.3809 42.6823 55.6108 42.6053C55.4831 43.1696 55.432 43.7338 55.2276 44.2468C55.0743 44.6571 54.9465 45.0675 54.9465 45.5035C54.9465 45.9908 54.8955 46.4781 54.8699 46.9398C55.1509 47.0424 55.4064 47.1962 55.6619 47.2219C56.3006 47.2475 56.4539 47.7861 56.6583 48.1965C56.9393 48.812 57.1182 49.5045 57.3226 50.1714C57.5014 50.8382 57.2459 51.4281 56.5817 51.582C56.224 51.6589 56.1729 51.8898 56.4284 52.1719C56.735 52.5053 57.0415 52.8387 57.3481 53.1978C57.4759 53.3517 57.527 53.5569 57.6036 53.7364C57.8847 54.4032 58.1657 55.0444 58.4723 55.7113C58.4978 55.7369 58.5234 55.7626 58.5234 55.7882C58.6 56.532 58.7533 57.2758 58.7533 58.0196C58.7789 58.5582 58.3445 58.8659 57.808 58.8659C57.7058 58.8659 57.6036 58.8659 57.527 58.9172C57.1182 59.0968 56.735 59.0711 56.3006 58.9172C55.8152 58.7634 55.3042 58.7121 54.8188 58.6095C54.6911 58.8659 54.7677 59.0198 54.8699 59.1994C55.1254 59.6354 55.3553 60.0714 55.6619 60.4817C55.9174 60.8152 56.1984 61.1229 56.5306 61.3538C56.9393 61.6359 57.1693 62.0206 57.4248 62.4053C57.7569 62.8926 57.9613 63.4312 58.2423 63.9442C58.6 64.6367 58.4723 65.1496 57.8846 65.6626C57.2715 66.2012 56.505 66.432 55.7641 66.7654C55.6619 66.8167 55.5342 66.7911 55.4064 66.7911C55.0487 66.7654 54.8188 66.8937 54.64 67.2271C54.5122 67.5092 54.3078 67.7144 54.0268 67.8426C53.6691 67.9965 53.3881 68.0735 53.0048 67.8939C52.8005 67.7913 52.6216 67.7144 52.4428 67.5862C52.2895 67.4579 52.1106 67.381 51.9318 67.2784C50.8843 66.6372 50.0923 65.7652 49.3003 64.8419C48.9937 63.9955 48.355 63.2517 48.4316 62.2771C48.4827 61.6872 48.5083 61.0973 49.0959 60.7382C49.3258 60.5843 49.3514 60.3022 49.2747 60.0457C49.1981 59.7893 49.1214 59.5328 49.0448 59.2763C48.6871 58.276 48.6105 57.2245 48.4827 56.1729C48.4061 55.5574 48.7127 54.9931 49.0959 54.5315C49.3258 54.2494 49.658 54.0698 50.0667 54.275C50.1945 54.3263 50.3989 54.275 50.5522 54.275C50.6799 54.5828 50.6288 54.8393 50.45 55.147C50.0923 55.7626 50.0667 56.4551 50.1689 57.1476C50.22 57.5066 50.22 57.8913 50.2967 58.2504C50.3478 58.5838 50.4755 58.9172 50.5522 59.2763C50.6033 59.4815 50.6288 59.661 50.7055 59.8662C50.7821 60.0714 50.8588 60.2766 50.961 60.4561C51.1909 60.8408 51.4719 61.2255 51.5741 61.6872C51.6252 61.995 51.8807 62.2771 52.034 62.5592C52.2895 63.0209 52.545 63.4825 52.7749 63.9698C52.9282 64.252 53.0815 64.5341 53.3625 64.688C53.4392 64.7393 53.5158 64.8675 53.5669 64.9444C53.7458 65.2522 54.0012 65.3548 54.3334 65.4061C54.6655 65.4061 55.1254 65.3292 55.2276 65.9191ZM52.5961 49.5558C52.3661 49.838 52.3406 50.1714 52.315 50.4792C52.2895 51.6589 52.4939 52.8131 52.7494 53.9416C52.7749 54.0442 52.826 54.1468 52.8771 54.275C53.0304 54.6084 53.1837 54.9162 53.337 55.2496C53.5669 55.7626 53.7713 56.2755 54.0779 56.7628C54.3589 57.2245 54.6911 57.5579 55.1509 57.7374C55.6108 57.917 55.994 58.3017 56.5817 58.1478C56.9649 58.0452 57.0671 58.0452 57.0926 57.6349C57.0926 57.481 57.0926 57.3271 57.0671 57.1732C56.9904 56.3781 56.7861 55.6087 56.5306 54.8393C56.2751 53.9929 55.7897 53.326 55.3298 52.6079C55.202 52.4284 55.0487 52.2488 54.8699 52.0693C54.129 51.3512 53.3625 50.633 52.8005 49.7354C52.7494 49.6841 52.6727 49.6328 52.5961 49.5558ZM50.2456 62.0719C49.9645 62.354 50.0156 62.6618 50.0667 62.8926C50.1945 63.5851 50.5011 64.2263 50.8843 64.8162C51.242 65.4061 51.7019 65.8678 52.2639 66.2781C52.5194 66.4577 52.7749 66.6372 53.0815 66.6885C53.4392 66.2012 53.4136 66.0986 52.9793 65.7908C52.4683 65.4574 52.0084 65.0727 51.6763 64.5084C51.3186 63.8672 50.8588 63.2517 50.5522 62.5592C50.5011 62.4053 50.3733 62.2514 50.2456 62.0719Z" stroke="#F5BE6B"/>
<path d="M15.9336 58.2503C16.3935 57.9169 16.6745 57.5322 16.7767 56.9936C16.7767 56.9423 16.8022 56.891 16.8022 56.8397C16.7512 56.1472 17.0066 55.5317 17.1599 54.8905C17.3132 54.1724 17.9519 53.5055 18.6673 53.4799C19.1272 53.4542 19.5871 53.5055 20.0469 53.7364C20.7623 54.0441 21.2733 54.5827 21.8353 55.07C22.0653 55.2752 22.2186 55.583 22.423 55.8138C23.3938 56.8654 23.9048 58.0965 23.9559 59.5071C23.9814 60.2252 24.007 60.9434 23.9048 61.6615C23.777 62.6105 23.496 63.5594 22.7296 64.2006C22.3208 64.5597 21.8864 64.9187 21.401 65.1239C20.6857 65.4573 19.8936 65.6112 19.1272 65.3035C18.6162 65.0983 18.0541 64.8674 17.7475 64.3032C17.4921 63.8159 17.1088 63.4055 16.8278 62.9439C16.6234 62.5848 16.4446 62.2001 16.3679 61.8154C16.2402 61.1998 16.2146 60.5843 16.1891 59.9687C16.1635 59.4045 16.2146 58.8146 15.9336 58.2503ZM18.2841 61.9949C18.233 62.0206 18.1819 62.0462 18.1563 62.0718C18.1563 62.1744 18.1563 62.3027 18.1819 62.4053C18.233 62.6105 18.3096 62.8156 18.4118 63.0208C18.6929 63.5851 18.9994 64.1493 19.536 64.534C19.6382 64.611 19.8425 64.6879 19.9447 64.6623C20.4813 64.5084 21.0433 64.3032 21.4266 63.8672C22.1675 63.0208 22.5252 62.0206 22.5252 60.8664C22.5252 60.5586 22.5763 60.2252 22.5763 59.9174C22.5507 59.148 22.5507 58.3529 22.193 57.6092C21.9375 57.0706 21.6565 56.5576 21.2222 56.0703C20.7112 55.5317 20.2002 55.0444 19.6893 54.5058C19.5104 54.3006 19.2805 54.2237 19.0761 54.3519C18.7439 54.5571 18.3352 54.711 18.1563 55.1213C18.0541 55.3265 17.9008 55.506 17.7475 55.6856C17.5432 55.9421 17.5687 56.1216 17.7986 56.3524C18.003 56.5576 18.233 56.5576 18.4885 56.532C18.8972 56.5063 19.306 56.5832 19.6637 56.7884C20.3535 57.1475 20.7112 57.8143 20.9922 58.4812C21.401 59.4814 21.3499 60.533 21.1966 61.5845C21.1711 61.7384 21.12 61.8667 21.0433 61.9949C20.9156 62.2514 20.7878 62.5079 20.6601 62.7643C20.5068 63.0721 20.0214 63.3286 19.7659 63.2516C19.3571 63.1234 18.9994 62.9439 18.7695 62.5335C18.6162 62.3027 18.4374 62.1488 18.2841 61.9949ZM18.8461 57.9169C19.1783 57.5835 19.1527 57.4809 18.7695 57.327C18.795 57.5322 18.6162 57.7117 18.8461 57.9169Z" fill="#F5BE6B"/>
<path d="M30.1897 61.5334C30.1386 62.3797 30.7006 62.7388 31.1605 63.1492C31.3394 63.3031 31.5438 63.2518 31.697 63.0979C31.9525 62.8414 32.208 62.6106 32.4124 62.3284C33.4088 60.9948 33.8687 59.5072 33.7665 57.8657C33.7154 56.8398 33.5621 55.7883 33.2044 54.8137C33.0256 54.3264 32.7701 53.8391 32.5146 53.3774C32.2591 52.967 31.9781 52.9158 31.5438 53.0953C31.2627 53.1979 30.9817 53.3005 30.7006 53.3774C30.5984 53.4031 30.4963 53.3518 30.3174 53.3261C30.5218 52.9157 30.7773 52.5823 31.135 52.4284C31.5693 52.2489 32.0036 52.2233 32.4891 52.2746C33.0767 52.3259 33.3322 52.6849 33.6643 53.0696C34.3797 53.8391 34.584 54.788 34.8906 55.7113C35.2739 56.8655 35.2483 58.0709 35.1717 59.2507C35.1206 60.0971 34.814 60.9178 34.4308 61.6872C34.0986 62.3284 33.7154 62.9696 33.1278 63.4569C32.8467 63.6878 32.5913 63.9443 32.2591 64.0981C32.0292 64.2007 31.697 64.1494 31.416 64.1494C31.0072 64.1238 30.624 63.9955 30.2663 63.7904C29.551 63.4056 29.1933 62.7132 28.8356 62.0463C27.9158 60.3279 27.9158 58.5069 28.2224 56.6603C28.2991 56.2243 28.4013 55.8139 28.5035 55.3779C28.6567 54.7367 29.1166 54.4033 29.7298 54.2751C30.5218 54.1212 31.1094 54.2238 31.7226 55.1984C32.1825 55.9165 32.3613 56.686 32.5402 57.481C32.5913 57.7119 32.5913 57.994 32.5146 58.2248C32.2591 58.8917 32.3102 59.5841 32.2591 60.251C32.2336 60.6357 32.208 61.0204 31.9781 61.3538C31.4927 61.995 31.2116 61.995 30.5218 61.6872C30.4452 61.636 30.343 61.5847 30.1897 61.5334ZM30.8795 60.1484C30.905 60.1484 30.9561 60.174 30.9817 60.174C31.2372 59.6867 31.1861 59.1225 31.2372 58.6095C31.2883 57.8914 31.3905 57.1476 30.8795 56.5064C30.8795 57.7375 30.8795 58.9429 30.8795 60.1484ZM30.4452 55.224C30.2152 55.5318 29.9853 55.6857 30.113 56.0448C30.3174 56.0961 30.5474 56.173 30.7517 56.2243C30.905 55.7883 30.5984 55.6088 30.4452 55.224Z" fill="#F5BE6B"/>
<path d="M44.1904 130.115C44.1904 130.705 43.9093 130.962 43.3984 131.013C42.9896 131.038 42.683 130.885 42.4531 130.602C42.0698 130.141 41.7377 129.654 41.3545 129.166C40.7924 128.448 40.2559 127.73 39.6938 127.063C38.9273 126.165 38.1353 125.293 37.3178 124.421C36.8068 123.857 36.3725 123.242 35.887 122.652C34.9162 121.446 33.9198 120.266 32.9234 119.061C32.6168 118.702 32.3613 118.292 32.0547 117.907C31.927 117.727 31.7737 117.573 31.646 117.42C31.0072 116.522 30.3685 115.599 29.7298 114.701C29.1166 113.829 28.5035 112.957 27.8903 112.085C27.5326 111.572 27.1749 111.033 26.8173 110.52C26.6129 110.213 26.6129 109.982 26.9194 109.802C27.3793 109.52 27.8392 109.418 28.1969 109.93C28.4524 110.29 28.6823 110.674 28.9378 111.059C29.1166 111.315 29.2955 111.546 29.4488 111.777C29.9342 112.495 30.4196 113.213 30.9306 113.906C31.3394 114.496 31.7737 115.086 32.1825 115.65C32.7701 116.445 33.3577 117.266 33.9709 118.061C34.0986 118.24 34.303 118.394 34.4563 118.548C35.0184 119.241 35.5549 119.933 36.117 120.6C36.7046 121.318 37.2922 122.036 37.8798 122.754C38.0076 122.908 38.1098 123.088 38.212 123.242C38.3908 123.472 38.5441 123.703 38.7229 123.908C39.3361 124.652 40.1281 125.268 40.6902 126.063C41.1501 126.704 41.7632 127.243 42.1976 127.909C42.4786 128.345 42.7852 128.73 43.0918 129.141C43.2962 129.423 43.5261 129.73 43.7816 129.987C43.8838 130.064 44.0371 130.064 44.1904 130.115Z" stroke="#F5BE6B"/>
<path d="M23.3428 75.9986C23.9559 75.7677 24.6713 75.7934 25.2078 75.1522C24.6457 75.2548 24.1603 75.2804 23.6749 75.1009C23.215 74.947 22.704 74.8957 22.3975 74.3058C22.6785 74.3058 22.934 74.2802 23.1639 74.3058C23.5472 74.3827 23.9048 74.3571 24.2881 74.2032C24.799 74.0237 25.2845 73.7929 25.7699 73.5107C26.3575 73.1773 26.6641 72.6131 26.9962 72.1001C27.2773 71.6641 27.6605 71.5102 28.1715 71.4589C28.7846 71.382 29.219 71.6385 29.6533 72.0232C29.6788 72.0488 29.7299 72.0745 29.781 72.1001C29.781 72.1001 29.8066 72.1001 29.8832 72.1258C30.0876 71.9206 30.3176 71.6641 30.5475 71.4333C30.6752 71.3307 30.803 71.2281 30.9563 71.1511C31.4417 70.9203 31.9782 71.2537 32.0038 71.7923C32.0293 72.3822 31.876 72.5618 31.3395 72.8182C31.1607 72.8952 31.0074 73.0747 30.8796 73.2543C30.7263 73.4338 30.5986 73.5107 30.3687 73.4081C29.9088 73.2543 29.4745 73.0747 29.1679 72.69C28.9124 72.3566 28.5802 72.3566 28.2992 72.7156C28.2481 72.7926 28.1715 72.8695 28.1204 72.9465C27.7627 73.7416 27.0984 74.2289 26.3575 74.6649C26.2298 74.7418 26.1531 74.8701 26.0509 74.9726C26.0765 74.9983 26.0765 75.0496 26.102 75.0752C26.3064 75.0239 26.5108 75.0239 26.7152 74.947C27.405 74.7162 28.0948 74.5623 28.8613 74.7931C29.1168 74.8701 29.4234 74.7162 29.7044 74.6649C30.0621 74.5879 30.3942 74.4853 30.7519 74.434C30.9818 74.3827 31.084 74.5623 31.1607 74.7418C31.2118 74.8701 31.2118 75.0239 31.2373 75.2035C30.8541 75.2804 30.6241 75.6651 30.1898 75.5113C29.3467 75.7677 28.4781 75.6651 27.6349 75.8703C27.5072 75.896 27.3284 75.896 27.2006 75.8703C26.9707 75.819 26.8429 75.9216 26.7152 76.1268C26.894 76.2807 27.0729 76.4859 27.3028 76.6141C28.0182 76.9988 28.8102 77.1271 29.6022 77.1271C29.8321 77.1271 30.1387 76.9219 30.3176 76.7423C30.7774 76.2294 31.1862 75.6651 31.5694 75.1265C31.876 74.6905 32.1571 74.6905 32.4892 75.1009C32.7191 75.383 32.7447 75.6395 32.5659 75.9729C32.1571 76.7423 31.6972 77.4348 30.9052 77.8195C30.5731 77.9734 30.1898 78.2299 29.781 77.9221C29.3978 77.9991 29.0657 77.6656 28.6824 77.8452C28.6313 77.8708 28.5547 77.8452 28.5036 77.8195C27.8649 77.5631 27.2006 77.3835 26.5874 76.9732C26.332 76.7936 26.0765 76.6397 25.8465 76.4346C25.6932 76.2807 25.5655 76.2037 25.3356 76.2807C25.029 76.3833 24.6713 76.3833 24.3392 76.3576C24.0326 76.332 23.7515 76.2294 23.445 76.1268C23.3683 76.1268 23.3683 76.0499 23.3428 75.9986Z" stroke="#F5BE6B"/>
<path d="M28.9122 69.3047C28.4012 69.356 27.9669 69.356 27.5581 69.4586C27.0471 69.5868 26.5362 69.7151 26.1529 70.1254C25.8464 70.4589 25.4887 70.7153 24.9521 70.5614C24.7478 70.5101 24.5178 70.5614 24.2879 70.5614C24.2112 70.3306 24.2879 70.1767 24.4412 70.0485C24.8755 69.6894 25.2843 69.356 25.7186 69.0226C26.2551 68.6379 26.8683 68.484 27.5326 68.4583C27.5326 68.048 27.3282 67.7658 27.1493 67.4837C26.6128 66.7143 26.3573 65.8423 26.0507 64.9703C25.7953 64.2521 25.642 63.4827 25.4631 62.7389C25.3865 62.4055 25.412 62.1234 25.6675 61.8412C25.7953 61.6873 25.9485 61.6361 26.1018 61.7899C26.3829 62.0464 26.6128 62.3029 26.715 62.7389C26.9449 63.7392 27.2004 64.7138 27.5326 65.6884C27.7625 66.3296 28.1202 66.9451 28.4523 67.5607C28.6312 67.9197 28.8611 68.2531 29.0144 68.6122C29.0399 68.8174 28.9377 69.0482 28.9122 69.3047Z" stroke="#F5BE6B"/>
<path d="M32.6677 48.8889C32.9487 48.9402 33.383 48.9915 33.7918 49.1454C34.0473 49.248 34.2517 49.4788 34.4305 49.7096C34.6349 49.9661 34.8393 50.2739 34.967 50.5817C35.0948 50.8638 34.7626 51.2229 34.4561 51.1203C34.2517 51.0433 34.0473 50.9151 33.8684 50.7612C33.7151 50.633 33.5874 50.4278 33.4341 50.2739C32.9231 49.684 32.31 49.5301 31.5691 49.7866C31.518 49.8122 31.4413 49.8379 31.3902 49.8635C30.726 49.9661 30.1639 50.2483 29.7296 50.7869C29.4996 51.0946 29.193 51.1459 28.8353 51.069C28.5543 51.0177 28.5032 50.9151 28.5288 50.6586C28.5799 50.3765 28.7587 50.1713 28.9886 50.0174C29.3463 49.7866 29.7296 49.5814 30.1128 49.4019C30.8792 48.9402 31.7224 48.9659 32.6677 48.8889Z" stroke="#F5BE6B"/>
<path d="M44.1646 77.9991C44.2412 77.5375 44.2923 77.2041 44.3689 76.8706C44.4967 76.2294 44.6244 75.5883 44.7777 74.8701C45.1354 75.6908 44.7266 76.9989 44.1646 77.9991Z" stroke="#F5BE6B"/>
</svg>
