<svg width="96" height="96" viewBox="0 0 96 96" fill="none" xmlns="http://www.w3.org/2000/svg">
<path d="M64.6255 81.6814H32.6991C31.9258 81.6814 31.2998 81.0922 31.2998 80.368V56.457H66.0248V80.368C66.0248 81.0922 65.3988 81.6814 64.6255 81.6814Z" fill="url(#paint0_linear_3021_37457)"/>
<path d="M44.0166 82.909H51.9582V55.5488H44.0166V82.909Z" fill="#40434F"/>
<path d="M55.1004 47.1406H47.9443L55.1986 59.9799L56.1806 55.3892L60.624 56.9235L55.1004 47.1406Z" fill="#40434F"/>
<path d="M40.7882 47.1406H47.9444L40.69 59.9799L39.7081 55.3892L35.2646 56.9235L40.7882 47.1406Z" fill="#40434F"/>
<path d="M65.3006 82.909H30.6861C29.8514 82.909 29.1641 82.2707 29.1641 81.4851V55.5488H66.8226V81.4851C66.8226 82.2707 66.1475 82.909 65.3006 82.909Z" stroke="#40434F" stroke-width="2.5" stroke-miterlimit="10" stroke-linecap="round" stroke-linejoin="round"/>
<path d="M68.4307 47.9017V55.5487H27.4824V47.9017C27.4824 47.4843 27.8261 47.1406 28.2435 47.1406H67.6696C68.087 47.1406 68.4307 47.4843 68.4307 47.9017Z" stroke="#40434F" stroke-width="2.5" stroke-miterlimit="10" stroke-linecap="round" stroke-linejoin="round"/>
<path d="M51.7002 47.1405H57.8621L58.0339 47.0546L58.1935 46.9564L58.3653 46.8459L58.5249 46.7478L58.6722 46.6373L58.8318 46.5145L58.9791 46.3918L59.1263 46.269L59.2736 46.1463L59.4087 46.0113L59.5437 45.864L59.6051 45.7903L59.6664 45.7167L59.7278 45.643L59.7892 45.5694L59.8505 45.4957L59.9119 45.4221L59.9733 45.3362L60.0224 45.2625L60.0838 45.1766L60.1329 45.1029L60.2065 44.9802L60.2679 44.8574L60.3415 44.7347L60.4029 44.612L60.452 44.4769L60.5134 44.3542L60.5625 44.2192L60.6116 44.0841L60.6607 43.9491L60.6975 43.8141L60.7343 43.6791L60.7711 43.5441L60.808 43.409L60.8325 43.274L60.8571 43.1267L60.8693 42.9917L60.8939 42.8444L60.9062 42.7094V42.5621L60.9184 42.4271V42.2798V42.1447L60.9062 41.9975L60.8939 41.8624L60.8816 41.7274L60.8571 41.5801L60.8325 41.4451L60.808 41.3101L60.7711 41.1751L60.7343 41.04L60.6975 40.905L60.6484 40.7823L60.6239 40.6963L60.587 40.6104L60.5502 40.5245L60.5134 40.4508L60.4766 40.3649L60.4397 40.2913L60.4029 40.2054L60.3538 40.1317L60.317 40.0581L60.2679 39.9844L60.2188 39.9108L60.1697 39.8371L60.1206 39.7635L60.0715 39.6898L60.0224 39.6162L59.961 39.5425L59.9119 39.4811L59.8505 39.4075L59.7892 39.3461L59.7278 39.2848L59.6787 39.2111L59.6173 39.1497L59.5437 39.0884L59.4823 39.027L59.4209 38.9656L59.3473 38.9165L59.2859 38.8551L59.2123 38.806L59.1509 38.7447L59.0772 38.6956L59.0036 38.6465L58.93 38.5974L58.8195 38.5237L58.6967 38.4501L58.574 38.3887L58.4512 38.3273L58.3285 38.266L58.2057 38.2046L58.0707 38.1555L57.948 38.1064L57.813 38.0696L57.6779 38.0205L57.5429 37.9836L57.4079 37.9468L57.2729 37.9223L57.1379 37.8854L57.0028 37.8609L56.8555 37.8363L56.6837 37.8118L56.5241 37.7995L56.3523 37.775L56.1804 37.7627H56.0086H55.8367H55.6649L55.4931 37.775L55.3212 37.7995L55.2353 37.8118H55.1494L55.0634 37.8363L54.9775 37.8486L54.9039 37.8609L54.818 37.8854L54.732 37.8977L54.6584 37.9223L54.5725 37.9468L54.4865 37.9714L54.4129 37.9959L54.327 38.0205L54.2533 38.0573L54.1797 38.0818L54.0815 38.1309L53.9833 38.18L53.8851 38.2291L53.7869 38.2782L53.6887 38.3273L53.6028 38.3887L53.5046 38.4378L53.4186 38.4992L53.3327 38.5728L53.2468 38.6342L53.1609 38.7078L53.075 38.7692L52.989 38.8429L52.9031 38.9165L52.8295 38.9902L52.7435 39.0761L52.6699 39.1497L52.5962 39.2357L52.5103 39.3093L52.4489 39.3952L52.3753 39.4811L52.3017 39.5671L52.228 39.653L52.1666 39.7389L52.1053 39.8371L52.0439 39.923L51.9211 40.1072L51.7984 40.2913L51.7002 40.4754V47.1405Z" stroke="#40434F" stroke-width="2.5" stroke-miterlimit="10" stroke-linecap="round" stroke-linejoin="round"/>
<path d="M44.189 47.1405H38.0271L37.8552 47.0546L37.6957 46.9564L37.5238 46.8459L37.3643 46.7478L37.217 46.6373L37.0574 46.5145L36.9101 46.3918L36.7628 46.269L36.6155 46.1463L36.4805 46.0113L36.3455 45.864L36.2841 45.7903L36.2227 45.7167L36.1613 45.643L36.1 45.5694L36.0386 45.4957L35.9772 45.4221L35.9281 45.3362L35.8668 45.2625L35.8177 45.1766L35.7563 45.1029L35.6949 44.9802L35.6213 44.8574L35.5599 44.7347L35.4862 44.612L35.4371 44.4769L35.3758 44.3542L35.3267 44.2192L35.2776 44.0841L35.2285 43.9491L35.1916 43.8141L35.1548 43.6791L35.118 43.5441L35.0812 43.409L35.0566 43.274L35.0321 43.1267L35.0198 42.9917L34.9953 42.8444L34.983 42.7094V42.5621L34.9707 42.4271V42.2798L34.983 42.1447V41.9975L34.9953 41.8624L35.0075 41.7274L35.0321 41.5801L35.0566 41.4451L35.0812 41.3101L35.118 41.1751L35.1548 41.04L35.1916 40.905L35.2407 40.7823L35.2653 40.6963L35.3021 40.6104L35.3389 40.5245L35.3758 40.4508L35.4126 40.3649L35.4494 40.2913L35.4862 40.2054L35.5353 40.1317L35.5722 40.0581L35.6213 39.9844L35.6704 39.9108L35.7195 39.8371L35.7686 39.7635L35.8177 39.6898L35.879 39.6162L35.9281 39.5425L35.9772 39.4811L36.0386 39.4075L36.1 39.3461L36.1613 39.2848L36.2227 39.2111L36.2841 39.1497L36.3455 39.0884L36.4068 39.027L36.4682 38.9656L36.5419 38.9165L36.6032 38.8551L36.6769 38.806L36.7382 38.7447L36.8119 38.6956L36.8855 38.6465L36.9592 38.5974L37.0697 38.5237L37.1924 38.4501L37.3152 38.3887L37.4379 38.3273L37.5607 38.266L37.6834 38.2046L37.8184 38.1555L37.9534 38.1064L38.0762 38.0696L38.2112 38.0205L38.3462 37.9836L38.4812 37.9468L38.6163 37.9223L38.7513 37.8854L38.8986 37.8609L39.0336 37.8363L39.2055 37.8118L39.3773 37.7995L39.5491 37.775L39.721 37.7627H39.8928H40.0647H40.2365L40.3961 37.775L40.5679 37.7995L40.6539 37.8118H40.7398L40.8257 37.8363L40.9116 37.8486L40.9853 37.8609L41.0712 37.8854L41.1571 37.8977L41.243 37.9223L41.3167 37.9468L41.4026 37.9714L41.4763 37.9959L41.5622 38.0205L41.6358 38.0573L41.7095 38.0818L41.8199 38.1309L41.9181 38.18L42.0041 38.2291L42.1023 38.2782L42.2005 38.3273L42.2864 38.3887L42.3846 38.4378L42.4705 38.4992L42.5564 38.5728L42.6546 38.6342L42.7405 38.7078L42.8265 38.7692L42.9001 38.8429L42.986 38.9165L43.072 38.9902L43.1456 39.0761L43.2193 39.1497L43.3052 39.2357L43.3788 39.3093L43.4525 39.3952L43.5138 39.4811L43.5875 39.5671L43.6611 39.653L43.7225 39.7389L43.7839 39.8371L43.8575 39.923L43.968 40.1072L44.0908 40.2913L44.189 40.4754V47.1405Z" stroke="#40434F" stroke-width="2.5" stroke-miterlimit="10" stroke-linecap="round" stroke-linejoin="round"/>
<path d="M44.1885 43.3967C44.1885 41.3223 45.8701 39.6406 47.9445 39.6406C50.0189 39.6406 51.7005 41.3223 51.7005 43.3967C51.7005 45.4711 50.0189 47.1527 47.9445 47.1527C45.8701 47.1527 44.1885 45.4588 44.1885 43.3967Z" stroke="#40434F" stroke-width="2.5" stroke-miterlimit="10" stroke-linecap="round" stroke-linejoin="round"/>
<path d="M78.2383 70.9536V69.0879" stroke="url(#paint1_linear_3021_37457)" stroke-width="2.5" stroke-miterlimit="10" stroke-linecap="round" stroke-linejoin="round"/>
<path d="M80.4238 73.1387H82.2773" stroke="url(#paint2_linear_3021_37457)" stroke-width="2.5" stroke-miterlimit="10" stroke-linecap="round" stroke-linejoin="round"/>
<path d="M78.2383 75.3232V77.1767" stroke="url(#paint3_linear_3021_37457)" stroke-width="2.5" stroke-miterlimit="10" stroke-linecap="round" stroke-linejoin="round"/>
<path d="M76.0537 73.1387H74.2002" stroke="url(#paint4_linear_3021_37457)" stroke-width="2.5" stroke-miterlimit="10" stroke-linecap="round" stroke-linejoin="round"/>
<path d="M15.5761 40.5498H13.7227" stroke="url(#paint5_linear_3021_37457)" stroke-width="2.5" stroke-miterlimit="10" stroke-linecap="round" stroke-linejoin="round"/>
<path d="M17.7607 42.7344V44.5879" stroke="url(#paint6_linear_3021_37457)" stroke-width="2.5" stroke-miterlimit="10" stroke-linecap="round" stroke-linejoin="round"/>
<path d="M19.9463 40.5498H21.812" stroke="url(#paint7_linear_3021_37457)" stroke-width="2.5" stroke-miterlimit="10" stroke-linecap="round" stroke-linejoin="round"/>
<path d="M17.7607 38.3648V36.499" stroke="url(#paint8_linear_3021_37457)" stroke-width="2.5" stroke-miterlimit="10" stroke-linecap="round" stroke-linejoin="round"/>
<path d="M82.1789 52.2588H74.3477" stroke="url(#paint9_linear_3021_37457)" stroke-width="2.5" stroke-miterlimit="10" stroke-linecap="round" stroke-linejoin="round"/>
<path d="M78.5202 17.0312L65.8896 29.6005" stroke="url(#paint10_linear_3021_37457)" stroke-width="2.5" stroke-miterlimit="10" stroke-linecap="round" stroke-linejoin="round"/>
<path d="M47.9688 24.0153V13.0908" stroke="url(#paint11_linear_3021_37457)" stroke-width="2.5" stroke-miterlimit="10" stroke-linecap="round" stroke-linejoin="round"/>
<path d="M17.3682 17.0312L25.4081 25.0343" stroke="url(#paint12_linear_3021_37457)" stroke-width="2.5" stroke-miterlimit="10" stroke-linecap="round" stroke-linejoin="round"/>
<path d="M13.7471 58.8018H21.5783" stroke="url(#paint13_linear_3021_37457)" stroke-width="2.5" stroke-miterlimit="10" stroke-linecap="round" stroke-linejoin="round"/>
<path d="M15.5146 76.796C15.5146 75.2248 16.7912 73.9482 18.3624 73.9482C19.9335 73.9482 21.2101 75.2248 21.2101 76.796C21.2101 78.3671 19.9335 79.6437 18.3624 79.6437C16.7912 79.6437 15.5146 78.3671 15.5146 76.796Z" stroke="url(#paint14_linear_3021_37457)" stroke-width="2.5" stroke-miterlimit="10" stroke-linecap="round" stroke-linejoin="round"/>
<path d="M61.4102 18.7863C61.4102 17.252 62.6622 16 64.1965 16C65.7309 16 66.9829 17.252 66.9829 18.7863C66.9829 20.3207 65.7309 21.5727 64.1965 21.5727C62.6622 21.5727 61.4102 20.333 61.4102 18.7863Z" stroke="url(#paint15_linear_3021_37457)" stroke-width="2.5" stroke-miterlimit="10" stroke-linecap="round" stroke-linejoin="round"/>
<path d="M75.292 38.8181C75.292 38.2657 75.7462 37.8115 76.2985 37.8115C76.8509 37.8115 77.305 38.2657 77.305 38.8181C77.305 39.3704 76.8509 39.8246 76.2985 39.8246C75.7462 39.8246 75.292 39.3704 75.292 38.8181Z" fill="url(#paint16_linear_3021_37457)"/>
<path d="M33.6807 17.8903C33.6807 17.3379 34.1348 16.8838 34.6872 16.8838C35.2395 16.8838 35.6937 17.3379 35.6937 17.8903C35.6937 18.4427 35.2395 18.8968 34.6872 18.8968C34.1348 18.9091 33.6807 18.4549 33.6807 17.8903Z" fill="url(#paint17_linear_3021_37457)"/>
<defs>
<linearGradient id="paint0_linear_3021_37457" x1="66.0248" y1="56.457" x2="27.2046" y2="68.77" gradientUnits="userSpaceOnUse">
<stop stop-color="#82869F"/>
<stop offset="1" stop-color="#3D4053"/>
</linearGradient>
<linearGradient id="paint1_linear_3021_37457" x1="79.2383" y1="69.0879" x2="78.0264" y2="69.2376" gradientUnits="userSpaceOnUse">
<stop stop-color="#82869F"/>
<stop offset="1" stop-color="#3D4053"/>
</linearGradient>
<linearGradient id="paint2_linear_3021_37457" x1="82.2773" y1="73.1387" x2="80.3485" y2="73.9623" gradientUnits="userSpaceOnUse">
<stop stop-color="#82869F"/>
<stop offset="1" stop-color="#3D4053"/>
</linearGradient>
<linearGradient id="paint3_linear_3021_37457" x1="79.2383" y1="75.3232" x2="78.0266" y2="75.4739" gradientUnits="userSpaceOnUse">
<stop stop-color="#82869F"/>
<stop offset="1" stop-color="#3D4053"/>
</linearGradient>
<linearGradient id="paint4_linear_3021_37457" x1="76.0537" y1="73.1387" x2="74.1249" y2="73.9623" gradientUnits="userSpaceOnUse">
<stop stop-color="#82869F"/>
<stop offset="1" stop-color="#3D4053"/>
</linearGradient>
<linearGradient id="paint5_linear_3021_37457" x1="15.5761" y1="40.5498" x2="13.6474" y2="41.3735" gradientUnits="userSpaceOnUse">
<stop stop-color="#82869F"/>
<stop offset="1" stop-color="#3D4053"/>
</linearGradient>
<linearGradient id="paint6_linear_3021_37457" x1="18.7607" y1="42.7344" x2="17.5491" y2="42.885" gradientUnits="userSpaceOnUse">
<stop stop-color="#82869F"/>
<stop offset="1" stop-color="#3D4053"/>
</linearGradient>
<linearGradient id="paint7_linear_3021_37457" x1="21.812" y1="40.5498" x2="19.8745" y2="41.3827" gradientUnits="userSpaceOnUse">
<stop stop-color="#82869F"/>
<stop offset="1" stop-color="#3D4053"/>
</linearGradient>
<linearGradient id="paint8_linear_3021_37457" x1="18.7607" y1="36.499" x2="17.5488" y2="36.6487" gradientUnits="userSpaceOnUse">
<stop stop-color="#82869F"/>
<stop offset="1" stop-color="#3D4053"/>
</linearGradient>
<linearGradient id="paint9_linear_3021_37457" x1="82.1789" y1="52.2588" x2="79.9147" y2="56.3442" gradientUnits="userSpaceOnUse">
<stop stop-color="#82869F"/>
<stop offset="1" stop-color="#3D4053"/>
</linearGradient>
<linearGradient id="paint10_linear_3021_37457" x1="78.5202" y1="17.0312" x2="63.7702" y2="20.4462" gradientUnits="userSpaceOnUse">
<stop stop-color="#82869F"/>
<stop offset="1" stop-color="#3D4053"/>
</linearGradient>
<linearGradient id="paint11_linear_3021_37457" x1="48.9687" y1="13.0908" x2="47.7389" y2="13.1168" gradientUnits="userSpaceOnUse">
<stop stop-color="#82869F"/>
<stop offset="1" stop-color="#3D4053"/>
</linearGradient>
<linearGradient id="paint12_linear_3021_37457" x1="25.4081" y1="17.0312" x2="16.0188" y2="19.2045" gradientUnits="userSpaceOnUse">
<stop stop-color="#82869F"/>
<stop offset="1" stop-color="#3D4053"/>
</linearGradient>
<linearGradient id="paint13_linear_3021_37457" x1="21.5783" y1="58.8018" x2="19.3141" y2="62.8871" gradientUnits="userSpaceOnUse">
<stop stop-color="#82869F"/>
<stop offset="1" stop-color="#3D4053"/>
</linearGradient>
<linearGradient id="paint14_linear_3021_37457" x1="21.2101" y1="73.9482" x2="14.5557" y2="75.4814" gradientUnits="userSpaceOnUse">
<stop stop-color="#82869F"/>
<stop offset="1" stop-color="#3D4053"/>
</linearGradient>
<linearGradient id="paint15_linear_3021_37457" x1="66.9829" y1="16" x2="60.4718" y2="17.5002" gradientUnits="userSpaceOnUse">
<stop stop-color="#82869F"/>
<stop offset="1" stop-color="#3D4053"/>
</linearGradient>
<linearGradient id="paint16_linear_3021_37457" x1="77.305" y1="37.8115" x2="74.953" y2="38.3534" gradientUnits="userSpaceOnUse">
<stop stop-color="#82869F"/>
<stop offset="1" stop-color="#3D4053"/>
</linearGradient>
<linearGradient id="paint17_linear_3021_37457" x1="35.6937" y1="16.8838" x2="33.3417" y2="17.4256" gradientUnits="userSpaceOnUse">
<stop stop-color="#82869F"/>
<stop offset="1" stop-color="#3D4053"/>
</linearGradient>
</defs>
</svg>
