<svg width="89" height="89" viewBox="0 0 89 89" fill="none" xmlns="http://www.w3.org/2000/svg">
<path d="M59.593 44.3405C59.593 42.3108 61.2345 40.6693 63.2642 40.6693C65.2939 40.6693 66.9354 42.3108 66.9354 44.3405C66.9354 46.3702 65.2939 48.0117 63.2642 48.0117C61.2345 48.0117 59.593 46.3591 59.593 44.3405Z" fill="#484C65"/>
<path d="M62.399 48.6297L61.4452 48.1971C60.9793 47.9864 60.447 47.9531 59.959 48.1084L59.8037 48.1639L59.6484 48.2193L59.4931 48.2859L59.3378 48.3524L59.2269 48.4079L59.116 48.4633L59.0162 48.5188L58.9164 48.5742L58.8166 48.6408L58.7167 48.7073L58.6169 48.7739L58.5171 48.8404L58.4284 48.9181L58.3396 48.9957L58.2509 49.0734L58.1622 49.151L58.0734 49.2286L58.0291 49.273L57.9847 49.3174L57.9403 49.3617L57.9071 49.4061L57.8738 49.4505L57.8405 49.4948L57.8073 49.5503L57.774 49.6057L57.7407 49.6612L57.7074 49.7166L57.6742 49.7721L57.6409 49.8276L57.6076 49.883L57.5743 49.9385L57.5411 49.9939L57.5078 50.0494L57.4745 50.1048L57.4523 50.1603L57.3969 50.2823L57.3525 50.4043L57.3081 50.5263L57.2638 50.6483L57.2305 50.7703L57.1972 50.8923L57.164 51.0143L57.1418 51.1363L57.1196 51.2583L57.0974 51.3803V56.4934C57.0974 57.1921 57.6631 57.7578 58.3618 57.7578H68.1554C68.8541 57.7578 69.4198 57.1921 69.4198 56.4934V51.3803L69.3976 51.2583L69.3754 51.1363L69.3532 51.0143L69.32 50.8923L69.2867 50.7703L69.2534 50.6483L69.2091 50.5263L69.1647 50.4043L69.1203 50.2823L69.0649 50.1603L69.0427 50.1048L69.0094 50.0494L68.9761 49.9939L68.9429 49.9385L68.9096 49.883L68.8763 49.8276L68.843 49.7721L68.8098 49.7166L68.7765 49.6612L68.7432 49.6057L68.7099 49.5503L68.6767 49.4948L68.6434 49.4505L68.6101 49.4061L68.5769 49.3617L68.5325 49.3174L68.4881 49.273L68.4438 49.2286L68.355 49.151L68.2663 49.0734L68.1776 48.9957L68.0888 48.9181L68.0001 48.8404L67.9003 48.7739L67.8005 48.7073L67.7006 48.6408L67.6008 48.5742L67.501 48.5188L67.4012 48.4633L67.2903 48.4079L67.1794 48.3524L67.0241 48.2859L66.8688 48.2193L66.7135 48.1639L66.5582 48.1084C66.0702 47.9531 65.5379 47.9864 65.072 48.1971L64.1182 48.6297C63.5636 48.8737 62.9425 48.8737 62.399 48.6297Z" fill="#484C65"/>
<path d="M68.7987 61.7808H57.5741C57.2302 61.7808 56.9531 61.4591 56.9531 61.0598V59.3518C56.9531 58.9525 57.2302 58.6309 57.5741 58.6309H68.7987C69.1426 58.6309 69.4196 58.9525 69.4196 59.3518V61.0598C69.4196 61.448 69.1426 61.7808 68.7987 61.7808Z" fill="#484C65"/>
<path d="M23.2442 55.4363H34.7515C35.1041 55.4363 35.3881 55.1146 35.3881 54.7154V53.0073C35.3881 52.608 35.1041 52.2864 34.7515 52.2864H23.2442C22.8917 52.2864 22.6077 52.608 22.6077 53.0073V54.7154C22.6077 55.1146 22.8917 55.4363 23.2442 55.4363Z" fill="#484C65"/>
<rect x="22.7832" y="55.8435" width="12.3757" height="21.0769" rx="1" fill="#484C65"/>
<rect x="38.0537" y="46.7333" width="16.1267" height="30.1871" rx="1" fill="#484C65"/>
<rect x="56.9531" y="62.2092" width="12.3757" height="14.7112" rx="1" fill="#484C65"/>
<path d="M28.1383 42.5188L27.1844 42.0863C26.7186 41.8756 26.1862 41.8423 25.6982 41.9976L25.5429 42.053L25.3877 42.1085L25.2324 42.175L25.0771 42.2416L24.9662 42.297L24.8553 42.3525L24.7555 42.4079L24.6556 42.4634L24.5558 42.5299L24.456 42.5965L24.3562 42.663L24.2563 42.7296L24.1676 42.8072L24.0789 42.8849L23.9902 42.9625L23.9014 43.0401L23.8127 43.1178L23.7683 43.1621L23.724 43.2065L23.6796 43.2509L23.6463 43.2952L23.6131 43.3396L23.5798 43.384L23.5465 43.4394L23.5132 43.4949L23.48 43.5503L23.4467 43.6058L23.4134 43.6612L23.3801 43.7167L23.3469 43.7722L23.3136 43.8276L23.2803 43.8831L23.247 43.9385L23.2138 43.994L23.1916 44.0494L23.1361 44.1714L23.0918 44.2934L23.0474 44.4155L23.003 44.5375L22.9698 44.6595L22.9365 44.7815L22.9032 44.8924L22.881 45.0144L22.8589 45.1364L22.8367 45.2584V50.3714C22.8367 51.0702 23.4023 51.6359 24.1011 51.6359H33.8946C34.5934 51.6359 35.159 51.0702 35.159 50.3714V45.2584L35.1369 45.1364L35.1147 45.0144L35.0925 44.8924L35.0592 44.7704L35.0259 44.6484L34.9927 44.5264L34.9483 44.4044L34.9039 44.2824L34.8596 44.1604L34.8041 44.0383L34.7819 43.9829L34.7487 43.9274L34.7154 43.872L34.6821 43.8165L34.6488 43.7611L34.6156 43.7056L34.5823 43.6502L34.549 43.5947L34.5157 43.5392L34.4825 43.4838L34.4492 43.4283L34.4159 43.3729L34.3827 43.3285L34.3494 43.2841L34.3161 43.2398L34.2717 43.1954L34.2274 43.151L34.183 43.1067L34.0943 43.029L34.0055 42.9514L33.9168 42.8738L33.8281 42.7961L33.7394 42.7185L33.6395 42.6519L33.5397 42.5854L33.4399 42.5188L33.3401 42.4523L33.2403 42.3968L33.1404 42.3414L33.0295 42.2859L32.9186 42.2305L32.7633 42.1639L32.6081 42.0974L32.4528 42.0419L32.2975 41.9865C31.8095 41.8312 31.2771 41.8645 30.8113 42.0752L29.8574 42.5078C29.3029 42.7629 28.6818 42.7629 28.1383 42.5188Z" fill="#484C65"/>
<path d="M25.3318 38.2193C25.3318 36.1896 26.9733 34.5481 29.003 34.5481C31.0327 34.5481 32.6742 36.1896 32.6742 38.2193C32.6742 40.249 31.0327 41.8905 29.003 41.8905C26.9733 41.8905 25.3318 40.2379 25.3318 38.2193Z" fill="#484C65"/>
<path d="M44.9968 29.7492L43.7435 29.1836C43.1335 28.9063 42.4347 28.873 41.7914 29.0727L41.5807 29.1392L41.37 29.2169L41.1703 29.2945L40.9707 29.3832L40.8265 29.4498L40.6823 29.5163L40.5492 29.594L40.4161 29.6716L40.283 29.7492L40.1499 29.838L40.0168 29.9267L39.8948 30.0154L39.7728 30.1152L39.6508 30.2151L39.5288 30.3149L39.4179 30.4147L39.307 30.5256L39.2515 30.5811L39.1961 30.6365L39.1406 30.692L39.0852 30.7474L39.0408 30.8029L38.9964 30.8584L38.941 30.9249L38.8966 30.9915L38.8522 31.058L38.8079 31.1246L38.7635 31.1911L38.7192 31.2576L38.6748 31.3353L38.6304 31.4129L38.5861 31.4906L38.5528 31.5682L38.5195 31.6458L38.4862 31.7235L38.4197 31.8788L38.3531 32.034L38.2977 32.1893L38.2422 32.3557L38.1979 32.522L38.1535 32.6884L38.1202 32.8548L38.087 33.0212L38.0537 33.1875L38.0315 33.3539V40.0641C38.0315 40.9736 38.7746 41.7167 39.6841 41.7167H52.5277C53.4372 41.7167 54.1803 40.9736 54.1803 40.0641V33.3539L54.1582 33.1875L54.1249 33.0212L54.0916 32.8548L54.0583 32.6884L54.014 32.522L53.9696 32.3557L53.9141 32.1893L53.8587 32.034L53.7921 31.8788L53.7256 31.7235L53.6923 31.6458L53.659 31.5682L53.6258 31.4906L53.5814 31.4129L53.537 31.3353L53.5149 31.2909L53.4705 31.2244L53.4261 31.1578L53.3818 31.0913L53.3374 31.0247L53.293 30.9582L53.2376 30.8916L53.1932 30.8362L53.1489 30.7807L53.0934 30.7253L53.0379 30.6698L52.9825 30.6144L52.927 30.5589L52.8161 30.448L52.7052 30.3482L52.5832 30.2483L52.4612 30.1485L52.3392 30.0487L52.2172 29.96L52.0841 29.8712L51.951 29.7825L51.8179 29.7049L51.6848 29.6272L51.5517 29.5496L51.4075 29.483L51.2633 29.4165L51.0637 29.3278L50.8641 29.2501L50.6533 29.1725L50.4426 29.1059C49.7993 28.9063 49.1116 28.9396 48.4905 29.2169L47.2372 29.7825C46.5385 30.0598 45.7177 30.0598 44.9968 29.7492Z" fill="#484C65"/>
<path d="M41.3147 24.3737C41.3147 21.7229 43.4664 19.5712 46.1172 19.5712C48.768 19.5712 50.9197 21.7229 50.9197 24.3737C50.9197 27.0245 48.768 29.1762 46.1172 29.1762C43.4664 29.1762 41.3147 27.0356 41.3147 24.3737Z" fill="#484C65"/>
<path d="M38.3248 46.3195H53.8865C54.213 46.3195 54.476 45.9978 54.476 45.5985V43.8128C54.476 43.4136 54.213 43.0919 53.8865 43.0919H38.3248C37.9983 43.0919 37.7354 43.4136 37.7354 43.8128V45.5985C37.7354 45.9978 37.9983 46.3195 38.3248 46.3195Z" fill="#484C65"/>
<path d="M41.991 19.0573H50.2429L50.9305 16.5506C51.3631 16.5839 51.7513 16.2623 51.7845 15.8297C51.8178 15.3971 51.4962 15.0089 51.0636 14.9757C50.631 14.9424 50.2429 15.264 50.2096 15.6966C50.1874 15.9073 50.2539 16.107 50.387 16.2733L50.3316 16.3288L50.2761 16.3843L50.2207 16.4397L50.1652 16.4841L50.1098 16.5284L50.0432 16.5728L49.9767 16.6172L49.9101 16.6615L49.8436 16.7059L49.777 16.7392L49.7105 16.7725L49.6439 16.8057L49.5774 16.839L49.5108 16.8723L49.4332 16.8945L49.3999 16.9056L49.3666 16.9166L49.3223 16.9277L49.2779 16.9388L49.2336 16.9499L49.1892 16.961L49.1448 16.9721L49.1005 16.9832L49.0561 16.9943L49.0117 17.0054H48.9674H48.923H48.8675H48.8121H48.7566H48.7012H48.6457H48.5903H48.5348H48.4904L48.4461 16.9943L48.4017 16.9832L48.3573 16.9721L48.313 16.961L48.2686 16.9499L48.2243 16.9388L48.1799 16.9277L48.1355 16.9166L48.0912 16.9056L48.0468 16.8945L48.0024 16.8723L47.9581 16.8501L47.9137 16.8279L47.8693 16.8057L47.825 16.7835L47.7806 16.7614L47.7362 16.7392L47.6919 16.717L47.6475 16.6837L47.5255 16.6615L47.4811 16.6283L47.4368 16.595L47.3924 16.5617L47.348 16.5284L47.3037 16.4952L47.2704 16.4619L47.2371 16.4286L47.2039 16.3954L47.1706 16.351L47.1373 16.3066L47.1151 16.2733L47.0929 16.2401L47.0708 16.2068L47.0486 16.1735L47.0264 16.1403L47.0042 16.107L46.9598 16.0404L46.9266 15.9739L46.8933 15.9073L46.86 15.8408L46.8268 15.7632L46.7935 15.6855L46.7602 15.6079L46.7048 15.4526L46.6493 15.2973L46.5495 14.9757L46.5051 14.7982L46.4607 14.6208L46.4386 14.532L46.4164 14.4433C46.8157 14.2769 47.0153 13.8222 46.8489 13.4118C46.6826 13.0125 46.2278 12.8129 45.8175 12.9792C45.4182 13.1456 45.2185 13.6004 45.3849 14.0107C45.4625 14.2104 45.6178 14.3657 45.8175 14.4433L45.7953 14.532L45.7731 14.6208L45.7287 14.7982L45.6844 14.9757L45.5845 15.2973L45.5291 15.4526L45.4736 15.6079L45.4404 15.6855L45.4071 15.7632L45.3738 15.8408L45.3405 15.9073L45.3073 15.9739L45.274 16.0404L45.2296 16.107L45.2074 16.1403L45.1853 16.1735L45.1631 16.2068L45.1409 16.2401L45.1187 16.2733L45.0965 16.3066L45.0632 16.351L45.03 16.3954L44.9967 16.4286L44.9634 16.4619L44.9302 16.4952L44.8858 16.5284L44.8414 16.5617L44.7971 16.595L44.7527 16.6283L44.7083 16.6615L44.664 16.6948L44.6196 16.7281L44.5752 16.7503L44.5309 16.7725L44.4865 16.7946L44.4421 16.8168L44.3978 16.839L44.3534 16.8612L44.309 16.8834L44.2647 16.9056L44.2203 16.9166L44.1759 16.9277L44.1316 16.9388L44.0872 16.9499L44.0429 16.961L43.9985 16.9721L43.9541 16.9832L43.9098 16.9943L43.8654 17.0054L43.821 17.0165H43.7767H43.7212H43.6658H43.6103H43.5548H43.4994H43.4439H43.3885H43.3441H43.2997L43.2554 17.0054L43.211 16.9943L43.1666 16.9832L43.1223 16.9721L43.0779 16.961L43.0336 16.9499L42.9892 16.9388L42.9448 16.9277L42.9115 16.9166L42.8783 16.9056L42.8006 16.8834L42.7341 16.8501L42.6675 16.8168L42.601 16.7835L42.5344 16.7503L42.4679 16.717L42.4014 16.6726L42.3348 16.6283L42.2683 16.5839L42.2017 16.5395L42.1463 16.4952L42.0908 16.4508L42.0353 16.3954L41.9799 16.3399L41.9244 16.2844C42.2017 15.9517 42.1573 15.4526 41.8246 15.1753C41.4919 14.898 40.9928 14.9424 40.7155 15.2751C40.4382 15.6079 40.4826 16.107 40.8153 16.3843C40.9706 16.5174 41.1813 16.5839 41.392 16.5617L41.991 19.0573Z" fill="#484C65"/>
<path d="M18.4666 15.0089L19.8751 16.4175" stroke="#484C65" stroke-miterlimit="10" stroke-linecap="round" stroke-linejoin="round"/>
<path d="M19.8751 15.0089L18.4666 16.4175" stroke="#484C65" stroke-miterlimit="10" stroke-linecap="round" stroke-linejoin="round"/>
<path d="M14.0342 39.2208H16.0262" stroke="#484C65" stroke-miterlimit="10" stroke-linecap="round" stroke-linejoin="round"/>
<path d="M15.0302 38.2248V40.2168" stroke="#484C65" stroke-miterlimit="10" stroke-linecap="round" stroke-linejoin="round"/>
<path d="M61.1492 33.5521H63.1412" stroke="#484C65" stroke-miterlimit="10" stroke-linecap="round" stroke-linejoin="round"/>
<path d="M62.1452 32.5561V34.5481" stroke="#484C65" stroke-miterlimit="10" stroke-linecap="round" stroke-linejoin="round"/>
<path d="M72.98 23.4379H74.972" stroke="#484C65" stroke-miterlimit="10" stroke-linecap="round" stroke-linejoin="round"/>
<path d="M73.976 22.4418V24.4339" stroke="#484C65" stroke-miterlimit="10" stroke-linecap="round" stroke-linejoin="round"/>
<path d="M16.0264 68.5797L17.435 69.9883" stroke="#484C65" stroke-miterlimit="10" stroke-linecap="round" stroke-linejoin="round"/>
<path d="M17.435 68.5797L16.0264 69.9883" stroke="#484C65" stroke-miterlimit="10" stroke-linecap="round" stroke-linejoin="round"/>
<path d="M73.5632 57.0535L74.9718 58.4621" stroke="#484C65" stroke-miterlimit="10" stroke-linecap="round" stroke-linejoin="round"/>
<path d="M74.9718 57.0535L73.5632 58.4621" stroke="#484C65" stroke-miterlimit="10" stroke-linecap="round" stroke-linejoin="round"/>
<path d="M62.4988 14.3436L63.9074 15.7522" stroke="#484C65" stroke-miterlimit="10" stroke-linecap="round" stroke-linejoin="round"/>
<path d="M63.9074 14.3436L62.4988 15.7522" stroke="#484C65" stroke-miterlimit="10" stroke-linecap="round" stroke-linejoin="round"/>
<path d="M30.6824 24.434H32.6744" stroke="#484C65" stroke-miterlimit="10" stroke-linecap="round" stroke-linejoin="round"/>
<path d="M31.6784 23.4379V25.43" stroke="#484C65" stroke-miterlimit="10" stroke-linecap="round" stroke-linejoin="round"/>
</svg>
