<svg width="96" height="96" viewBox="0 0 96 96" fill="none" xmlns="http://www.w3.org/2000/svg">
<path d="M45.3269 20.3026H54.1471L54.8821 17.6234C55.3445 17.659 55.7594 17.3152 55.795 16.8528C55.8306 16.3905 55.4868 15.9755 55.0244 15.94C54.5621 15.9044 54.1471 16.2482 54.1116 16.7105C54.0879 16.9358 54.159 17.1492 54.3013 17.327L54.242 17.3863L54.1827 17.4456L54.1234 17.5048L54.0641 17.5523L54.0049 17.5997L53.9337 17.6471L53.8626 17.6945L53.7915 17.7419L53.7204 17.7894L53.6492 17.8249L53.5781 17.8605L53.507 17.8961L53.4358 17.9316L53.3647 17.9672L53.2817 17.9909L53.2461 18.0028L53.2106 18.0146L53.1632 18.0265L53.1157 18.0383L53.0683 18.0502L53.0209 18.062L52.9735 18.0739L52.9261 18.0857L52.8786 18.0976L52.8312 18.1094H52.7838H52.7364H52.6771H52.6178H52.5586H52.4993H52.44H52.3807H52.3214H52.274L52.2266 18.0976L52.1792 18.0857L52.1318 18.0739L52.0843 18.062L52.0369 18.0502L51.9895 18.0383L51.9421 18.0265L51.8947 18.0146L51.8472 18.0028L51.7998 17.9909L51.7524 17.9672L51.705 17.9435L51.6576 17.9198L51.6101 17.8961L51.5627 17.8723L51.5153 17.8486L51.4679 17.8249L51.4205 17.8012L51.373 17.7657L51.3256 17.7301L51.2782 17.6945L51.1478 17.6827L51.1004 17.6471L51.053 17.6115L51.0055 17.576L50.97 17.5404L50.9344 17.5048L50.8988 17.4693L50.8633 17.4219L50.8277 17.3744L50.7921 17.327L50.7684 17.2914L50.7447 17.2559L50.721 17.2203L50.6973 17.1848L50.6736 17.1492L50.6262 17.0781L50.5906 17.0069L50.555 16.9358L50.5195 16.8647L50.4839 16.7817L50.4483 16.6987L50.4128 16.6157L50.3535 16.4497L50.2942 16.2838L50.1875 15.94L50.1401 15.7503L50.0927 15.5606L50.069 15.4658L50.0453 15.3709C50.4721 15.1931 50.6854 14.707 50.5076 14.2684C50.3298 13.8416 49.8437 13.6282 49.4051 13.8061C48.9783 13.9839 48.7649 14.4699 48.9427 14.9086C49.0257 15.122 49.1917 15.2879 49.4051 15.3709L49.3814 15.4658L49.3577 15.5606L49.3103 15.7503L49.2628 15.94L49.1561 16.2838L49.0969 16.4497L49.0376 16.6157L49.002 16.6987L48.9665 16.7817L48.9309 16.8647L48.8953 16.9358L48.8598 17.0069L48.8242 17.0781L48.7768 17.1492L48.7531 17.1848L48.7294 17.2203L48.7056 17.2559L48.6819 17.2914L48.6582 17.327L48.6345 17.3626L48.599 17.41L48.5634 17.4574L48.5278 17.493L48.4923 17.5286L48.4567 17.5641L48.4093 17.5997L48.3619 17.6352L48.3144 17.6708L48.267 17.7064L48.2196 17.7419L48.1722 17.7775L48.1247 17.8131L48.0773 17.8368L48.0299 17.8605L47.9825 17.8842L47.9469 17.9198L47.8995 17.9435L47.8521 17.9672L47.8047 17.9909L47.7572 18.0146L47.7098 18.0265L47.6624 18.0383L47.615 18.0502L47.5676 18.062L47.5201 18.0739L47.4727 18.0857L47.4253 18.0976L47.3779 18.1094L47.3305 18.1213L47.283 18.1332H47.2356H47.1763H47.1171H47.0578H46.9985H46.9392H46.88H46.8207H46.7733H46.7258L46.6784 18.1213L46.631 18.1094L46.5836 18.0976L46.5362 18.0857L46.4887 18.0739L46.4413 18.062L46.3939 18.0502L46.3465 18.0383L46.3109 18.0265L46.2754 18.0146L46.1924 17.9909L46.1212 17.9553L46.0501 17.9198L45.979 17.8842L45.9078 17.8486L45.8367 17.8131L45.7656 17.7657L45.6945 17.7182L45.6233 17.6708L45.5522 17.6234L45.4929 17.576L45.4336 17.5286L45.3744 17.4693L45.3151 17.41L45.2558 17.3507C45.5522 16.9951 45.5048 16.4616 45.1491 16.1652C44.7935 15.8688 44.26 15.9163 43.9636 16.2719C43.6672 16.6276 43.7147 17.161 44.0703 17.4574C44.2363 17.5997 44.4615 17.6708 44.6868 17.6471L45.3269 20.3026Z" fill="url(#paint0_linear_3021_37404)"/>
<path d="M74.6564 67.8175H61.8529C61.4617 67.8175 61.1416 67.4737 61.1416 67.047V65.2213C61.1416 64.7945 61.4617 64.4507 61.8529 64.4507H74.6564C75.0476 64.4507 75.3677 64.7945 75.3677 65.2213V67.047C75.3677 67.4619 75.0476 67.8175 74.6564 67.8175Z" fill="url(#paint1_linear_3021_37404)"/>
<path d="M23.8101 60.9176H37.7398C38.1666 60.9176 38.5104 60.5738 38.5104 60.147V58.3214C38.5104 57.8946 38.1666 57.5508 37.7398 57.5508H23.8101C23.3833 57.5508 23.0396 57.8946 23.0396 58.3214V60.147C23.0396 60.5738 23.3833 60.9176 23.8101 60.9176Z" fill="url(#paint2_linear_3021_37404)"/>
<path d="M39.4112 51.3507H59.7545C60.1813 51.3507 60.5251 51.0069 60.5251 50.5801V48.6715C60.5251 48.2447 60.1813 47.9009 59.7545 47.9009H39.4112C38.9844 47.9009 38.6406 48.2447 38.6406 48.6715V50.5801C38.6406 51.0069 38.9844 51.3507 39.4112 51.3507Z" fill="url(#paint3_linear_3021_37404)"/>
<path d="M63.9277 46.5612C63.9277 44.3918 65.6823 42.6372 67.8518 42.6372C70.0212 42.6372 71.7758 44.3918 71.7758 46.5612C71.7758 48.7307 70.0212 50.4853 67.8518 50.4853C65.6823 50.4853 63.9277 48.7189 63.9277 46.5612Z" stroke="url(#paint4_linear_3021_37404)" stroke-width="2.5" stroke-miterlimit="10"/>
<path d="M66.927 52.1449L65.9074 51.6826C65.4095 51.4573 64.8405 51.4218 64.3189 51.5877L64.1529 51.647L63.9869 51.7063L63.821 51.7774L63.655 51.8485L63.5364 51.9078L63.4179 51.9671L63.3112 52.0264L63.2045 52.0856L63.0978 52.1568L62.9911 52.2279L62.8844 52.299L62.7777 52.3702L62.6829 52.4531L62.588 52.5361L62.4932 52.6191L62.3983 52.7021L62.3035 52.7851L62.2561 52.8325L62.2087 52.8799L62.1612 52.9274L62.1257 52.9748L62.0901 53.0222L62.0545 53.0696L62.019 53.1289L61.9834 53.1882L61.9479 53.2474L61.9123 53.3067L61.8767 53.366L61.8412 53.4253L61.8056 53.4845L61.77 53.5438L61.7345 53.6031L61.6989 53.6624L61.6633 53.7216L61.6396 53.7809L61.5803 53.9113L61.5329 54.0417L61.4855 54.1721L61.4381 54.3025L61.4025 54.4329L61.367 54.5634L61.3314 54.6938L61.3077 54.8242L61.284 54.9546L61.2603 55.085V60.5502C61.2603 61.297 61.8649 61.9016 62.6117 61.9016H73.0798C73.8266 61.9016 74.4312 61.297 74.4312 60.5502V55.085L74.4075 54.9546L74.3838 54.8242L74.3601 54.6938L74.3245 54.5634L74.289 54.4329L74.2534 54.3025L74.206 54.1721L74.1586 54.0417L74.1112 53.9113L74.0519 53.7809L74.0282 53.7216L73.9926 53.6624L73.957 53.6031L73.9215 53.5438L73.8859 53.4845L73.8503 53.4253L73.8148 53.366L73.7792 53.3067L73.7437 53.2474L73.7081 53.1882L73.6725 53.1289L73.637 53.0696L73.6014 53.0222L73.5658 52.9748L73.5303 52.9274L73.4828 52.8799L73.4354 52.8325L73.388 52.7851L73.2932 52.7021L73.1983 52.6191L73.1035 52.5361L73.0086 52.4531L72.9138 52.3702L72.8071 52.299L72.7004 52.2279L72.5937 52.1568L72.487 52.0856L72.3803 52.0264L72.2736 51.9671L72.1551 51.9078L72.0365 51.8485L71.8705 51.7774L71.7046 51.7063L71.5386 51.647L71.3726 51.5877C70.851 51.4218 70.282 51.4573 69.7841 51.6826L68.7645 52.1449C68.1718 52.4057 67.5079 52.4057 66.927 52.1449Z" stroke="url(#paint5_linear_3021_37404)" stroke-width="2.5" stroke-miterlimit="10"/>
<path d="M75.9605 66.7506H62.0308C61.6041 66.7506 61.2603 66.4068 61.2603 65.9801V64.1544C61.2603 63.7276 61.6041 63.3838 62.0308 63.3838H75.9605C76.3873 63.3838 76.7311 63.7276 76.7311 64.1544V65.9801C76.7311 66.395 76.3873 66.7506 75.9605 66.7506Z" stroke="url(#paint6_linear_3021_37404)" stroke-width="2.5" stroke-miterlimit="10"/>
<path d="M74.206 82.909H61.4736C61.3551 82.909 61.2603 82.8141 61.2603 82.6956V66.7505H74.4312V82.6956C74.4194 82.8141 74.3245 82.909 74.206 82.909Z" stroke="url(#paint7_linear_3021_37404)" stroke-width="2.5" stroke-miterlimit="10"/>
<path d="M23.0987 59.9694H37.0284C37.4552 59.9694 37.799 59.6256 37.799 59.1988V57.3731C37.799 56.9463 37.4552 56.6025 37.0284 56.6025H23.0987C22.6719 56.6025 22.3281 56.9463 22.3281 57.3731V59.1988C22.3281 59.6256 22.6719 59.9694 23.0987 59.9694Z" stroke="url(#paint8_linear_3021_37404)" stroke-width="2.5" stroke-miterlimit="10"/>
<path d="M24.8535 82.9093H37.5859C37.7044 82.9093 37.7993 82.8144 37.7993 82.6959V59.9697H24.6401V82.6959C24.6401 82.8144 24.735 82.9093 24.8535 82.9093Z" stroke="url(#paint9_linear_3021_37404)" stroke-width="2.5" stroke-miterlimit="10"/>
<path d="M30.3069 45.3755L29.2873 44.9132C28.7894 44.6879 28.2204 44.6524 27.6987 44.8183L27.5328 44.8776L27.3668 44.9369L27.2008 45.008L27.0349 45.0791L26.9163 45.1384L26.7978 45.1977L26.6911 45.257L26.5844 45.3162L26.4777 45.3874L26.371 45.4585L26.2643 45.5296L26.1576 45.6008L26.0627 45.6838L25.9679 45.7667L25.8731 45.8497L25.7782 45.9327L25.6834 46.0157L25.636 46.0631L25.5885 46.1105L25.5411 46.158L25.5056 46.2054L25.47 46.2528L25.4344 46.3002L25.3989 46.3595L25.3633 46.4188L25.3277 46.478L25.2922 46.5373L25.2566 46.5966L25.221 46.6559L25.1855 46.7151L25.1499 46.7744L25.1143 46.8337L25.0788 46.893L25.0432 46.9522L25.0195 47.0115L24.9602 47.1419L24.9128 47.2723L24.8654 47.4027L24.818 47.5331L24.7824 47.6636L24.7468 47.794L24.7113 47.9125L24.6876 48.0429L24.6638 48.1733L24.6401 48.3037V53.7689C24.6401 54.5158 25.2447 55.1204 25.9916 55.1204H36.4596C37.2065 55.1204 37.8111 54.5158 37.8111 53.7689V48.3037L37.7874 48.1733L37.7637 48.0429L37.74 47.9125L37.7044 47.7821L37.6689 47.6517L37.6333 47.5213L37.5859 47.3909L37.5385 47.2605L37.491 47.1301L37.4318 46.9997L37.408 46.9404L37.3725 46.8811L37.3369 46.8218L37.3014 46.7626L37.2658 46.7033L37.2302 46.644L37.1947 46.5847L37.1591 46.5255L37.1235 46.4662L37.088 46.4069L37.0524 46.3476L37.0168 46.2884L36.9813 46.2409L36.9457 46.1935L36.9101 46.1461L36.8627 46.0987L36.8153 46.0513L36.7679 46.0038L36.673 45.9209L36.5782 45.8379L36.4834 45.7549L36.3885 45.6719L36.2937 45.5889L36.187 45.5178L36.0803 45.4467L35.9736 45.3755L35.8669 45.3044L35.7602 45.2451L35.6535 45.1858L35.5349 45.1266L35.4164 45.0673L35.2504 44.9962L35.0845 44.925L34.9185 44.8658L34.7525 44.8065C34.2309 44.6405 33.6618 44.6761 33.1639 44.9013L32.1444 45.3637C31.5516 45.6363 30.8878 45.6363 30.3069 45.3755Z" stroke="url(#paint10_linear_3021_37404)" stroke-width="2.5" stroke-miterlimit="10"/>
<path d="M27.3071 39.78C27.3071 37.6105 29.0617 35.856 31.2312 35.856C33.4006 35.856 35.1552 37.6105 35.1552 39.78C35.1552 41.9495 33.4006 43.704 31.2312 43.704C29.0617 43.704 27.3071 41.9376 27.3071 39.78Z" stroke="url(#paint11_linear_3021_37404)" stroke-width="2.5" stroke-miterlimit="10"/>
<path d="M48.3263 32.5132L46.9867 31.9086C46.3347 31.6122 45.5878 31.5767 44.9002 31.7901L44.675 31.8612L44.4497 31.9442L44.2363 32.0272L44.0229 32.122L43.8688 32.1931L43.7147 32.2643L43.5724 32.3473L43.4302 32.4302L43.2879 32.5132L43.1457 32.6081L43.0034 32.7029L42.873 32.7978L42.7426 32.9044L42.6122 33.0111L42.4818 33.1178L42.3632 33.2245L42.2447 33.3431L42.1854 33.4024L42.1261 33.4616L42.0669 33.5209L42.0076 33.5802L41.9602 33.6395L41.9127 33.6987L41.8535 33.7699L41.806 33.841L41.7586 33.9121L41.7112 33.9833L41.6638 34.0544L41.6164 34.1255L41.5689 34.2085L41.5215 34.2915L41.4741 34.3745L41.4385 34.4575L41.403 34.5404L41.3674 34.6234L41.2963 34.7894L41.2251 34.9554L41.1659 35.1213L41.1066 35.2992L41.0592 35.477L41.0118 35.6548L40.9762 35.8326L40.9406 36.0105L40.9051 36.1883L40.8813 36.3661V43.5384C40.8813 44.5106 41.6756 45.3048 42.6478 45.3048H56.3759C57.348 45.3048 58.1423 44.5106 58.1423 43.5384V36.3661L58.1186 36.1883L58.083 36.0105L58.0475 35.8326L58.0119 35.6548L57.9645 35.477L57.9171 35.2992L57.8578 35.1213L57.7985 34.9554L57.7274 34.7894L57.6563 34.6234L57.6207 34.5404L57.5851 34.4575L57.5496 34.3745L57.5021 34.2915L57.4547 34.2085L57.431 34.1611L57.3836 34.09L57.3362 34.0188L57.2888 33.9477L57.2413 33.8766L57.1939 33.8054L57.1346 33.7343L57.0872 33.675L57.0398 33.6157L56.9805 33.5565L56.9213 33.4972L56.862 33.4379L56.8027 33.3786L56.6842 33.2601L56.5656 33.1534L56.4352 33.0467L56.3048 32.94L56.1744 32.8333L56.044 32.7385L55.9017 32.6436L55.7595 32.5488L55.6172 32.4658L55.4749 32.3828L55.3327 32.2998L55.1786 32.2287L55.0244 32.1576L54.811 32.0627L54.5977 31.9798L54.3724 31.8968L54.1472 31.8256C53.4596 31.6122 52.7246 31.6478 52.0607 31.9442L50.7211 32.5488C49.9742 32.8452 49.0969 32.8452 48.3263 32.5132Z" stroke="url(#paint12_linear_3021_37404)" stroke-width="2.5" stroke-miterlimit="10"/>
<path d="M44.3906 25.7675C44.3906 22.9342 46.6905 20.6343 49.5239 20.6343C52.3572 20.6343 54.6571 22.9342 54.6571 25.7675C54.6571 28.6009 52.3572 30.9008 49.5239 30.9008C46.6905 30.9008 44.3906 28.6127 44.3906 25.7675Z" stroke="url(#paint13_linear_3021_37404)" stroke-width="2.5" stroke-miterlimit="10"/>
<path d="M41.1187 82.909H57.941C58.0596 82.909 58.1544 82.8142 58.1544 82.6957V50.2246H40.9053V82.6957C40.9053 82.8142 41.0001 82.909 41.1187 82.909Z" stroke="url(#paint14_linear_3021_37404)" stroke-width="2.5" stroke-miterlimit="10"/>
<path d="M39.3521 50.2247H59.6955C60.1223 50.2247 60.466 49.8809 60.466 49.4541V47.5455C60.466 47.1187 60.1223 46.7749 59.6955 46.7749H39.3521C38.9253 46.7749 38.5815 47.1187 38.5815 47.5455V49.4541C38.5815 49.8809 38.9253 50.2247 39.3521 50.2247Z" stroke="url(#paint15_linear_3021_37404)" stroke-width="2.5" stroke-miterlimit="10"/>
<path d="M45.1136 19.6503H53.9337L54.6688 16.971C55.1311 17.0066 55.546 16.6628 55.5816 16.2005C55.6172 15.7381 55.2734 15.3232 54.811 15.2876C54.3487 15.2521 53.9337 15.5959 53.8982 16.0582C53.8745 16.2835 53.9456 16.4968 54.0879 16.6747L54.0286 16.7339L53.9693 16.7932L53.91 16.8525L53.8508 16.8999L53.7915 16.9473L53.7203 16.9948L53.6492 17.0422L53.5781 17.0896L53.507 17.137L53.4358 17.1726L53.3647 17.2081L53.2936 17.2437L53.2224 17.2793L53.1513 17.3148L53.0683 17.3386L53.0328 17.3504L52.9972 17.3623L52.9498 17.3741L52.9023 17.386L52.8549 17.3978L52.8075 17.4097L52.7601 17.4215L52.7127 17.4334L52.6652 17.4452L52.6178 17.4571H52.5704H52.523H52.4637H52.4044H52.3452H52.2859H52.2266H52.1673H52.1081H52.0606L52.0132 17.4452L51.9658 17.4334L51.9184 17.4215L51.871 17.4097L51.8235 17.3978L51.7761 17.386L51.7287 17.3741L51.6813 17.3623L51.6339 17.3504L51.5864 17.3386L51.539 17.3148L51.4916 17.2911L51.4442 17.2674L51.3968 17.2437L51.3493 17.22L51.3019 17.1963L51.2545 17.1726L51.2071 17.1489L51.1597 17.1133L51.0292 17.0896L50.9818 17.054L50.9344 17.0185L50.887 16.9829L50.8396 16.9473L50.7921 16.9118L50.7566 16.8762L50.721 16.8406L50.6855 16.8051L50.6499 16.7577L50.6143 16.7102L50.5906 16.6747L50.5669 16.6391L50.5432 16.6035L50.5195 16.568L50.4958 16.5324L50.4721 16.4968L50.4246 16.4257L50.3891 16.3546L50.3535 16.2835L50.3179 16.2123L50.2824 16.1293L50.2468 16.0464L50.2112 15.9634L50.152 15.7974L50.0927 15.6314L49.986 15.2876L49.9386 15.0979L49.8912 14.9083L49.8675 14.8134L49.8437 14.7186C50.2705 14.5408 50.4839 14.0547 50.3061 13.6161C50.1283 13.1893 49.6422 12.9759 49.2036 13.1537C48.7768 13.3315 48.5634 13.8176 48.7412 14.2562C48.8242 14.4696 48.9902 14.6356 49.2036 14.7186L49.1799 14.8134L49.1561 14.9083L49.1087 15.0979L49.0613 15.2876L48.9546 15.6314L48.8953 15.7974L48.8361 15.9634L48.8005 16.0464L48.7649 16.1293L48.7294 16.2123L48.6938 16.2835L48.6582 16.3546L48.6227 16.4257L48.5752 16.4968L48.5515 16.5324L48.5278 16.568L48.5041 16.6035L48.4804 16.6391L48.4567 16.6747L48.433 16.7102L48.3974 16.7577L48.3619 16.8051L48.3263 16.8406L48.2907 16.8762L48.2552 16.9118L48.2077 16.9473L48.1603 16.9829L48.1129 17.0185L48.0655 17.054L48.0181 17.0896L47.9706 17.1252L47.9232 17.1607L47.8758 17.1844L47.8284 17.2081L47.781 17.2319L47.7335 17.2556L47.6861 17.2793L47.6387 17.303L47.5913 17.3267L47.5439 17.3504L47.4964 17.3623L47.449 17.3741L47.4016 17.386L47.3542 17.3978L47.3068 17.4097L47.2593 17.4215L47.2119 17.4334L47.1645 17.4452L47.1171 17.4571L47.0697 17.469H47.0222H46.963H46.9037H46.8444H46.7851H46.7259H46.6666H46.6073H46.5599H46.5125L46.465 17.4571L46.4176 17.4452L46.3702 17.4334L46.3228 17.4215L46.2754 17.4097L46.2279 17.3978L46.1805 17.386L46.1331 17.3741L46.0975 17.3623L46.062 17.3504L45.979 17.3267L45.9079 17.2911L45.8367 17.2556L45.7656 17.22L45.6945 17.1844L45.6233 17.1489L45.5522 17.1015L45.4811 17.054L45.4099 17.0066L45.3388 16.9592L45.2795 16.9118L45.2203 16.8644L45.161 16.8051L45.1017 16.7458L45.0424 16.6865C45.3388 16.3309 45.2914 15.7974 44.9357 15.501C44.5801 15.2046 44.0466 15.2521 43.7502 15.6077C43.4539 15.9634 43.5013 16.4968 43.8569 16.7932C44.0229 16.9355 44.2481 17.0066 44.4734 16.9829L45.1136 19.6503Z" stroke="url(#paint16_linear_3021_37404)" stroke-miterlimit="10"/>
<path d="M19.9688 16.7578L21.4743 18.2634" stroke="url(#paint17_linear_3021_37404)" stroke-miterlimit="10" stroke-linecap="round" stroke-linejoin="round"/>
<path d="M15.2314 42.6372H17.3607" stroke="url(#paint18_linear_3021_37404)" stroke-miterlimit="10" stroke-linecap="round" stroke-linejoin="round"/>
<path d="M76.731 38.7158H78.8602" stroke="url(#paint19_linear_3021_37404)" stroke-miterlimit="10" stroke-linecap="round" stroke-linejoin="round"/>
<path d="M21.4743 16.7578L19.9688 18.2634" stroke="url(#paint20_linear_3021_37404)" stroke-miterlimit="10" stroke-linecap="round" stroke-linejoin="round"/>
<path d="M16.2961 41.5726V43.7018" stroke="url(#paint21_linear_3021_37404)" stroke-miterlimit="10" stroke-linecap="round" stroke-linejoin="round"/>
<path d="M77.7956 37.6512V39.7804" stroke="url(#paint22_linear_3021_37404)" stroke-miterlimit="10" stroke-linecap="round" stroke-linejoin="round"/>
<path d="M17.3608 74.0176L18.8664 75.5232" stroke="url(#paint23_linear_3021_37404)" stroke-miterlimit="10" stroke-linecap="round" stroke-linejoin="round"/>
<path d="M18.8664 74.0176L17.3608 75.5232" stroke="url(#paint24_linear_3021_37404)" stroke-miterlimit="10" stroke-linecap="round" stroke-linejoin="round"/>
<path d="M61.106 31.2207L62.6116 32.7263" stroke="url(#paint25_linear_3021_37404)" stroke-miterlimit="10" stroke-linecap="round" stroke-linejoin="round"/>
<path d="M62.6116 31.2207L61.106 32.7263" stroke="url(#paint26_linear_3021_37404)" stroke-miterlimit="10" stroke-linecap="round" stroke-linejoin="round"/>
<path d="M67.0337 16.0464L68.5393 17.552" stroke="url(#paint27_linear_3021_37404)" stroke-miterlimit="10" stroke-linecap="round" stroke-linejoin="round"/>
<path d="M68.5393 16.0464L67.0337 17.552" stroke="url(#paint28_linear_3021_37404)" stroke-miterlimit="10" stroke-linecap="round" stroke-linejoin="round"/>
<path d="M33.0259 26.832H35.1551" stroke="url(#paint29_linear_3021_37404)" stroke-miterlimit="10" stroke-linecap="round" stroke-linejoin="round"/>
<path d="M34.0905 25.7674V27.8966" stroke="url(#paint30_linear_3021_37404)" stroke-miterlimit="10" stroke-linecap="round" stroke-linejoin="round"/>
<defs>
<linearGradient id="paint0_linear_3021_37404" x1="55.7975" y1="13.7432" x2="43.2394" y2="19.049" gradientUnits="userSpaceOnUse">
<stop stop-color="#82869F"/>
<stop offset="1" stop-color="#3D4053"/>
</linearGradient>
<linearGradient id="paint1_linear_3021_37404" x1="75.3677" y1="64.4507" x2="66.381" y2="73.1994" gradientUnits="userSpaceOnUse">
<stop stop-color="#82869F"/>
<stop offset="1" stop-color="#3D4053"/>
</linearGradient>
<linearGradient id="paint2_linear_3021_37404" x1="38.5104" y1="57.5508" x2="29.5351" y2="67.053" gradientUnits="userSpaceOnUse">
<stop stop-color="#82869F"/>
<stop offset="1" stop-color="#3D4053"/>
</linearGradient>
<linearGradient id="paint3_linear_3021_37404" x1="60.5251" y1="47.9009" x2="51.9394" y2="60.4496" gradientUnits="userSpaceOnUse">
<stop stop-color="#82869F"/>
<stop offset="1" stop-color="#3D4053"/>
</linearGradient>
<linearGradient id="paint4_linear_3021_37404" x1="71.7758" y1="42.6372" x2="62.6063" y2="44.7499" gradientUnits="userSpaceOnUse">
<stop stop-color="#82869F"/>
<stop offset="1" stop-color="#3D4053"/>
</linearGradient>
<linearGradient id="paint5_linear_3021_37404" x1="74.4312" y1="51.4844" x2="59.4933" y2="55.8359" gradientUnits="userSpaceOnUse">
<stop stop-color="#82869F"/>
<stop offset="1" stop-color="#3D4053"/>
</linearGradient>
<linearGradient id="paint6_linear_3021_37404" x1="76.7311" y1="63.3838" x2="67.7558" y2="72.886" gradientUnits="userSpaceOnUse">
<stop stop-color="#82869F"/>
<stop offset="1" stop-color="#3D4053"/>
</linearGradient>
<linearGradient id="paint7_linear_3021_37404" x1="74.4312" y1="66.7505" x2="58.7778" y2="69.6902" gradientUnits="userSpaceOnUse">
<stop stop-color="#82869F"/>
<stop offset="1" stop-color="#3D4053"/>
</linearGradient>
<linearGradient id="paint8_linear_3021_37404" x1="37.799" y1="56.6025" x2="28.8237" y2="66.1048" gradientUnits="userSpaceOnUse">
<stop stop-color="#82869F"/>
<stop offset="1" stop-color="#3D4053"/>
</linearGradient>
<linearGradient id="paint9_linear_3021_37404" x1="37.7993" y1="59.9697" x2="21.8862" y2="62.0729" gradientUnits="userSpaceOnUse">
<stop stop-color="#82869F"/>
<stop offset="1" stop-color="#3D4053"/>
</linearGradient>
<linearGradient id="paint10_linear_3021_37404" x1="37.8111" y1="44.7031" x2="22.8732" y2="49.0546" gradientUnits="userSpaceOnUse">
<stop stop-color="#82869F"/>
<stop offset="1" stop-color="#3D4053"/>
</linearGradient>
<linearGradient id="paint11_linear_3021_37404" x1="35.1552" y1="35.856" x2="25.9857" y2="37.9686" gradientUnits="userSpaceOnUse">
<stop stop-color="#82869F"/>
<stop offset="1" stop-color="#3D4053"/>
</linearGradient>
<linearGradient id="paint12_linear_3021_37404" x1="58.1423" y1="31.6538" x2="38.5659" y2="37.357" gradientUnits="userSpaceOnUse">
<stop stop-color="#82869F"/>
<stop offset="1" stop-color="#3D4053"/>
</linearGradient>
<linearGradient id="paint13_linear_3021_37404" x1="54.6571" y1="20.6343" x2="42.662" y2="23.398" gradientUnits="userSpaceOnUse">
<stop stop-color="#82869F"/>
<stop offset="1" stop-color="#3D4053"/>
</linearGradient>
<linearGradient id="paint14_linear_3021_37404" x1="58.1544" y1="50.2246" x2="37.2403" y2="52.7676" gradientUnits="userSpaceOnUse">
<stop stop-color="#82869F"/>
<stop offset="1" stop-color="#3D4053"/>
</linearGradient>
<linearGradient id="paint15_linear_3021_37404" x1="60.466" y1="46.7749" x2="51.8803" y2="59.3236" gradientUnits="userSpaceOnUse">
<stop stop-color="#82869F"/>
<stop offset="1" stop-color="#3D4053"/>
</linearGradient>
<linearGradient id="paint16_linear_3021_37404" x1="55.5841" y1="13.0908" x2="43.026" y2="18.3966" gradientUnits="userSpaceOnUse">
<stop stop-color="#82869F"/>
<stop offset="1" stop-color="#3D4053"/>
</linearGradient>
<linearGradient id="paint17_linear_3021_37404" x1="21.4743" y1="16.7578" x2="19.7152" y2="17.1631" gradientUnits="userSpaceOnUse">
<stop stop-color="#82869F"/>
<stop offset="1" stop-color="#3D4053"/>
</linearGradient>
<linearGradient id="paint18_linear_3021_37404" x1="16.2961" y1="41.5726" x2="15.3388" y2="43.1031" gradientUnits="userSpaceOnUse">
<stop stop-color="#82869F"/>
<stop offset="1" stop-color="#3D4053"/>
</linearGradient>
<linearGradient id="paint19_linear_3021_37404" x1="77.7956" y1="37.6512" x2="76.8383" y2="39.1817" gradientUnits="userSpaceOnUse">
<stop stop-color="#82869F"/>
<stop offset="1" stop-color="#3D4053"/>
</linearGradient>
<linearGradient id="paint20_linear_3021_37404" x1="21.4743" y1="16.7578" x2="19.7152" y2="17.1631" gradientUnits="userSpaceOnUse">
<stop stop-color="#82869F"/>
<stop offset="1" stop-color="#3D4053"/>
</linearGradient>
<linearGradient id="paint21_linear_3021_37404" x1="16.2961" y1="41.5726" x2="15.3388" y2="43.1031" gradientUnits="userSpaceOnUse">
<stop stop-color="#82869F"/>
<stop offset="1" stop-color="#3D4053"/>
</linearGradient>
<linearGradient id="paint22_linear_3021_37404" x1="77.7956" y1="37.6512" x2="76.8383" y2="39.1817" gradientUnits="userSpaceOnUse">
<stop stop-color="#82869F"/>
<stop offset="1" stop-color="#3D4053"/>
</linearGradient>
<linearGradient id="paint23_linear_3021_37404" x1="18.8664" y1="74.0176" x2="17.1073" y2="74.4229" gradientUnits="userSpaceOnUse">
<stop stop-color="#82869F"/>
<stop offset="1" stop-color="#3D4053"/>
</linearGradient>
<linearGradient id="paint24_linear_3021_37404" x1="18.8664" y1="74.0176" x2="17.1073" y2="74.4229" gradientUnits="userSpaceOnUse">
<stop stop-color="#82869F"/>
<stop offset="1" stop-color="#3D4053"/>
</linearGradient>
<linearGradient id="paint25_linear_3021_37404" x1="62.6116" y1="31.2207" x2="60.8524" y2="31.626" gradientUnits="userSpaceOnUse">
<stop stop-color="#82869F"/>
<stop offset="1" stop-color="#3D4053"/>
</linearGradient>
<linearGradient id="paint26_linear_3021_37404" x1="62.6116" y1="31.2207" x2="60.8524" y2="31.626" gradientUnits="userSpaceOnUse">
<stop stop-color="#82869F"/>
<stop offset="1" stop-color="#3D4053"/>
</linearGradient>
<linearGradient id="paint27_linear_3021_37404" x1="68.5393" y1="16.0464" x2="66.7802" y2="16.4517" gradientUnits="userSpaceOnUse">
<stop stop-color="#82869F"/>
<stop offset="1" stop-color="#3D4053"/>
</linearGradient>
<linearGradient id="paint28_linear_3021_37404" x1="68.5393" y1="16.0464" x2="66.7802" y2="16.4517" gradientUnits="userSpaceOnUse">
<stop stop-color="#82869F"/>
<stop offset="1" stop-color="#3D4053"/>
</linearGradient>
<linearGradient id="paint29_linear_3021_37404" x1="34.0905" y1="25.7674" x2="33.1332" y2="27.2979" gradientUnits="userSpaceOnUse">
<stop stop-color="#82869F"/>
<stop offset="1" stop-color="#3D4053"/>
</linearGradient>
<linearGradient id="paint30_linear_3021_37404" x1="34.0905" y1="25.7674" x2="33.1332" y2="27.2979" gradientUnits="userSpaceOnUse">
<stop stop-color="#82869F"/>
<stop offset="1" stop-color="#3D4053"/>
</linearGradient>
</defs>
</svg>
