<svg width="89" height="89" viewBox="0 0 89 89" fill="none" xmlns="http://www.w3.org/2000/svg">
<path d="M58.0823 43.3085C58.0823 41.2788 59.7238 39.6373 61.7535 39.6373C63.7832 39.6373 65.4247 41.2788 65.4247 43.3085C65.4247 45.3382 63.7832 46.9797 61.7535 46.9797C59.7238 46.9797 58.0823 45.3271 58.0823 43.3085Z" fill="#484C65"/>
<path d="M60.8883 47.5977L59.9344 47.1652C59.4686 46.9544 58.9362 46.9212 58.4482 47.0764L58.2929 47.1319L58.1377 47.1873L57.9824 47.2539L57.8271 47.3204L57.7162 47.3759L57.6053 47.4314L57.5055 47.4868L57.4056 47.5423L57.3058 47.6088L57.206 47.6754L57.1062 47.7419L57.0064 47.8085L56.9176 47.8861L56.8289 47.9637L56.7402 48.0414L56.6514 48.119L56.5627 48.1966L56.5183 48.241L56.474 48.2854L56.4296 48.3297L56.3963 48.3741L56.3631 48.4185L56.3298 48.4628L56.2965 48.5183L56.2632 48.5738L56.23 48.6292L56.1967 48.6847L56.1634 48.7401L56.1301 48.7956L56.0969 48.851L56.0636 48.9065L56.0303 48.9619L55.997 49.0174L55.9638 49.0729L55.9416 49.1283L55.8861 49.2503L55.8418 49.3723L55.7974 49.4943L55.753 49.6163L55.7198 49.7383L55.6865 49.8603L55.6532 49.9823L55.631 50.1043L55.6089 50.2263L55.5867 50.3483V55.4614C55.5867 56.1602 56.1523 56.7258 56.8511 56.7258H66.6446C67.3434 56.7258 67.909 56.1602 67.909 55.4614V50.3483L67.8869 50.2263L67.8647 50.1043L67.8425 49.9823L67.8092 49.8603L67.776 49.7383L67.7427 49.6163L67.6983 49.4943L67.6539 49.3723L67.6096 49.2503L67.5541 49.1283L67.5319 49.0729L67.4987 49.0174L67.4654 48.9619L67.4321 48.9065L67.3988 48.851L67.3656 48.7956L67.3323 48.7401L67.299 48.6847L67.2658 48.6292L67.2325 48.5738L67.1992 48.5183L67.1659 48.4628L67.1327 48.4185L67.0994 48.3741L67.0661 48.3297L67.0217 48.2854L66.9774 48.241L66.933 48.1966L66.8443 48.119L66.7556 48.0414L66.6668 47.9637L66.5781 47.8861L66.4894 47.8085L66.3895 47.7419L66.2897 47.6754L66.1899 47.6088L66.0901 47.5423L65.9903 47.4868L65.8904 47.4314L65.7795 47.3759L65.6686 47.3204L65.5133 47.2539L65.3581 47.1873L65.2028 47.1319L65.0475 47.0764C64.5595 46.9212 64.0271 46.9544 63.5613 47.1652L62.6074 47.5977C62.0529 47.8417 61.4318 47.8417 60.8883 47.5977Z" fill="#484C65"/>
<path d="M67.2882 61.7488H56.0636C55.7197 61.7488 55.4426 61.4272 55.4426 61.0279V59.3198C55.4426 58.9205 55.7197 58.5989 56.0636 58.5989H67.2882C67.6321 58.5989 67.9091 58.9205 67.9091 59.3198V61.0279C67.9091 61.4161 67.6321 61.7488 67.2882 61.7488Z" fill="#484C65"/>
<path d="M21.7335 55.4043H33.2408C33.5934 55.4043 33.8774 55.0827 33.8774 54.6834V52.9753C33.8774 52.576 33.5934 52.2544 33.2408 52.2544H21.7335C21.3809 52.2544 21.0969 52.576 21.0969 52.9753V54.6834C21.0969 55.0827 21.3809 55.4043 21.7335 55.4043Z" fill="#484C65"/>
<rect x="21.2725" y="55.8115" width="12.3757" height="21.0769" rx="1" fill="#484C65"/>
<rect x="36.543" y="46.7013" width="16.1267" height="30.1871" rx="1" fill="#484C65"/>
<rect x="55.4426" y="62.1772" width="12.3757" height="14.7112" rx="1" fill="#484C65"/>
<path d="M26.6275 41.4869L25.6737 41.0543C25.2079 40.8436 24.6755 40.8103 24.1875 40.9656L24.0322 41.021L23.8769 41.0765L23.7216 41.143L23.5664 41.2096L23.4554 41.265L23.3445 41.3205L23.2447 41.376L23.1449 41.4314L23.0451 41.498L22.9452 41.5645L22.8454 41.631L22.7456 41.6976L22.6569 41.7752L22.5681 41.8529L22.4794 41.9305L22.3907 42.0082L22.302 42.0858L22.2576 42.1302L22.2132 42.1745L22.1689 42.2189L22.1356 42.2633L22.1023 42.3076L22.069 42.352L22.0358 42.4074L22.0025 42.4629L21.9692 42.5183L21.9359 42.5738L21.9027 42.6293L21.8694 42.6847L21.8361 42.7402L21.8029 42.7956L21.7696 42.8511L21.7363 42.9065L21.703 42.962L21.6808 43.0175L21.6254 43.1395L21.581 43.2615L21.5367 43.3835L21.4923 43.5055L21.459 43.6275L21.4257 43.7495L21.3925 43.8604L21.3703 43.9824L21.3481 44.1044L21.3259 44.2264V49.3395C21.3259 50.0382 21.8916 50.6039 22.5903 50.6039H32.3839C33.0826 50.6039 33.6483 50.0382 33.6483 49.3395V44.2264L33.6261 44.1044L33.6039 43.9824L33.5817 43.8604L33.5485 43.7384L33.5152 43.6164L33.4819 43.4944L33.4376 43.3724L33.3932 43.2504L33.3488 43.1284L33.2934 43.0064L33.2712 42.9509L33.2379 42.8955L33.2046 42.84L33.1714 42.7845L33.1381 42.7291L33.1048 42.6736L33.0716 42.6182L33.0383 42.5627L33.005 42.5073L32.9717 42.4518L32.9385 42.3963L32.9052 42.3409L32.8719 42.2965L32.8386 42.2522L32.8054 42.2078L32.761 42.1634L32.7166 42.1191L32.6723 42.0747L32.5835 41.9971L32.4948 41.9194L32.4061 41.8418L32.3173 41.7641L32.2286 41.6865L32.1288 41.62L32.029 41.5534L31.9292 41.4869L31.8293 41.4203L31.7295 41.3649L31.6297 41.3094L31.5188 41.2539L31.4079 41.1985L31.2526 41.1319L31.0973 41.0654L30.942 41.0099L30.7868 40.9545C30.2987 40.7992 29.7664 40.8325 29.3005 41.0432L28.3467 41.4758C27.7921 41.7309 27.171 41.7309 26.6275 41.4869Z" fill="#484C65"/>
<path d="M23.8213 37.1873C23.8213 35.1576 25.4628 33.5161 27.4925 33.5161C29.5222 33.5161 31.1637 35.1576 31.1637 37.1873C31.1637 39.217 29.5222 40.8585 27.4925 40.8585C25.4628 40.8585 23.8213 39.2059 23.8213 37.1873Z" fill="#484C65"/>
<path d="M43.4861 29.7173L42.2327 29.1516C41.6227 28.8743 40.924 28.841 40.2807 29.0407L40.0699 29.1072L39.8592 29.1849L39.6596 29.2625L39.4599 29.3512L39.3157 29.4178L39.1716 29.4843L39.0385 29.562L38.9054 29.6396L38.7723 29.7173L38.6392 29.806L38.5061 29.8947L38.3841 29.9834L38.2621 30.0833L38.1401 30.1831L38.0181 30.2829L37.9072 30.3827L37.7962 30.4936L37.7408 30.5491L37.6853 30.6046L37.6299 30.66L37.5744 30.7155L37.5301 30.7709L37.4857 30.8264L37.4302 30.8929L37.3859 30.9595L37.3415 31.026L37.2971 31.0926L37.2528 31.1591L37.2084 31.2257L37.164 31.3033L37.1197 31.3809L37.0753 31.4586L37.042 31.5362L37.0088 31.6139L36.9755 31.6915L36.9089 31.8468L36.8424 32.0021L36.7869 32.1573L36.7315 32.3237L36.6871 32.4901L36.6428 32.6564L36.6095 32.8228L36.5762 32.9892L36.5429 33.1555L36.5208 33.3219V40.0321C36.5208 40.9416 37.2639 41.6847 38.1733 41.6847H51.017C51.9265 41.6847 52.6696 40.9416 52.6696 40.0321V33.3219L52.6474 33.1555L52.6141 32.9892L52.5809 32.8228L52.5476 32.6564L52.5032 32.4901L52.4589 32.3237L52.4034 32.1573L52.3479 32.0021L52.2814 31.8468L52.2149 31.6915L52.1816 31.6139L52.1483 31.5362L52.115 31.4586L52.0707 31.3809L52.0263 31.3033L52.0041 31.2589L51.9598 31.1924L51.9154 31.1258L51.871 31.0593L51.8267 30.9927L51.7823 30.9262L51.7268 30.8597L51.6825 30.8042L51.6381 30.7487L51.5827 30.6933L51.5272 30.6378L51.4717 30.5824L51.4163 30.5269L51.3054 30.416L51.1945 30.3162L51.0725 30.2164L50.9505 30.1165L50.8284 30.0167L50.7064 29.928L50.5733 29.8393L50.4403 29.7505L50.3072 29.6729L50.1741 29.5953L50.041 29.5176L49.8968 29.4511L49.7526 29.3845L49.553 29.2958L49.3533 29.2182L49.1426 29.1405L48.9318 29.074C48.2886 28.8743 47.6009 28.9076 46.9798 29.1849L45.7265 29.7505C45.0277 30.0278 44.207 30.0278 43.4861 29.7173Z" fill="#484C65"/>
<path d="M39.804 24.3417C39.804 21.6909 41.9557 19.5392 44.6065 19.5392C47.2573 19.5392 49.409 21.6909 49.409 24.3417C49.409 26.9925 47.2573 29.1442 44.6065 29.1442C41.9557 29.1442 39.804 27.0036 39.804 24.3417Z" fill="#484C65"/>
<path d="M36.8143 46.2875H52.376C52.7025 46.2875 52.9655 45.9658 52.9655 45.5666V43.7809C52.9655 43.3816 52.7025 43.0599 52.376 43.0599H36.8143C36.4878 43.0599 36.2249 43.3816 36.2249 43.7809V45.5666C36.2249 45.9658 36.4878 46.2875 36.8143 46.2875Z" fill="#484C65"/>
<path d="M40.4802 19.0253H48.7321L49.4198 16.5186C49.8523 16.5519 50.2405 16.2303 50.2738 15.7977C50.3071 15.3652 49.9854 14.977 49.5529 14.9437C49.1203 14.9104 48.7321 15.2321 48.6988 15.6646C48.6767 15.8754 48.7432 16.075 48.8763 16.2414L48.8208 16.2968L48.7654 16.3523L48.7099 16.4077L48.6545 16.4521L48.599 16.4965L48.5325 16.5408L48.4659 16.5852L48.3994 16.6296L48.3328 16.6739L48.2663 16.7072L48.1997 16.7405L48.1332 16.7737L48.0666 16.807L48.0001 16.8403L47.9225 16.8625L47.8892 16.8736L47.8559 16.8847L47.8115 16.8958L47.7672 16.9068L47.7228 16.9179L47.6784 16.929L47.6341 16.9401L47.5897 16.9512L47.5454 16.9623L47.501 16.9734H47.4566H47.4123H47.3568H47.3013H47.2459H47.1904H47.135H47.0795H47.0241H46.9797L46.9353 16.9623L46.891 16.9512L46.8466 16.9401L46.8022 16.929L46.7579 16.9179L46.7135 16.9068L46.6691 16.8958L46.6248 16.8847L46.5804 16.8736L46.5361 16.8625L46.4917 16.8403L46.4473 16.8181L46.403 16.7959L46.3586 16.7737L46.3142 16.7516L46.2699 16.7294L46.2255 16.7072L46.1811 16.685L46.1368 16.6517L46.0148 16.6296L45.9704 16.5963L45.926 16.563L45.8817 16.5297L45.8373 16.4965L45.7929 16.4632L45.7597 16.4299L45.7264 16.3966L45.6931 16.3634L45.6598 16.319L45.6266 16.2746L45.6044 16.2414L45.5822 16.2081L45.56 16.1748L45.5378 16.1415L45.5157 16.1083L45.4935 16.075L45.4491 16.0085L45.4158 15.9419L45.3826 15.8754L45.3493 15.8088L45.316 15.7312L45.2827 15.6535L45.2495 15.5759L45.194 15.4206L45.1386 15.2653L45.0387 14.9437L44.9944 14.7662L44.95 14.5888L44.9278 14.5L44.9056 14.4113C45.3049 14.2449 45.5046 13.7902 45.3382 13.3798C45.1718 12.9805 44.7171 12.7809 44.3067 12.9473C43.9074 13.1136 43.7078 13.5684 43.8742 13.9788C43.9518 14.1784 44.1071 14.3337 44.3067 14.4113L44.2845 14.5L44.2623 14.5888L44.218 14.7662L44.1736 14.9437L44.0738 15.2653L44.0183 15.4206L43.9629 15.5759L43.9296 15.6535L43.8963 15.7312L43.8631 15.8088L43.8298 15.8754L43.7965 15.9419L43.7632 16.0085L43.7189 16.075L43.6967 16.1083L43.6745 16.1415L43.6523 16.1748L43.6301 16.2081L43.608 16.2414L43.5858 16.2746L43.5525 16.319L43.5192 16.3634L43.486 16.3966L43.4527 16.4299L43.4194 16.4632L43.375 16.4965L43.3307 16.5297L43.2863 16.563L43.242 16.5963L43.1976 16.6296L43.1532 16.6628L43.1089 16.6961L43.0645 16.7183L43.0201 16.7405L42.9758 16.7627L42.9314 16.7848L42.887 16.807L42.8427 16.8292L42.7983 16.8514L42.7539 16.8736L42.7096 16.8847L42.6652 16.8958L42.6208 16.9068L42.5765 16.9179L42.5321 16.929L42.4877 16.9401L42.4434 16.9512L42.399 16.9623L42.3547 16.9734L42.3103 16.9845H42.2659H42.2105H42.155H42.0996H42.0441H41.9886H41.9332H41.8777H41.8334H41.789L41.7446 16.9734L41.7003 16.9623L41.6559 16.9512L41.6115 16.9401L41.5672 16.929L41.5228 16.9179L41.4784 16.9068L41.4341 16.8958L41.4008 16.8847L41.3675 16.8736L41.2899 16.8514L41.2233 16.8181L41.1568 16.7848L41.0903 16.7516L41.0237 16.7183L40.9572 16.685L40.8906 16.6407L40.8241 16.5963L40.7575 16.5519L40.691 16.5076L40.6355 16.4632L40.5801 16.4188L40.5246 16.3634L40.4691 16.3079L40.4137 16.2525C40.691 15.9197 40.6466 15.4206 40.3139 15.1433C39.9811 14.8661 39.482 14.9104 39.2047 15.2432C38.9275 15.5759 38.9718 16.075 39.3046 16.3523C39.4598 16.4854 39.6706 16.5519 39.8813 16.5297L40.4802 19.0253Z" fill="#484C65"/>
</svg>
