<svg width="114" height="40" viewBox="0 0 114 40" fill="none" xmlns="http://www.w3.org/2000/svg">
<g clip-path="url(#clip0_4515_52881)">
<path d="M38.2832 33.0264L40.4685 16.7474H44.535L44.2975 18.5194H44.8878C45.2452 17.973 45.7797 17.4968 46.4899 17.0918C47.2001 16.6868 48.0909 16.4849 49.1621 16.4849C50.3212 16.4849 51.2191 16.7094 51.8593 17.1583C52.4994 17.6072 52.9555 18.1915 53.231 18.9136H53.8212C54.2868 18.2129 54.889 17.6334 55.6276 17.1737C56.3664 16.7141 57.3593 16.4849 58.6051 16.4849C59.6099 16.4849 60.4946 16.6987 61.2583 17.125C62.0208 17.5514 62.5909 18.1974 62.9673 19.0621C63.3438 19.9267 63.4448 21.0146 63.2702 22.3281L61.8426 33.0276H57.7085L59.098 22.6227C59.218 21.7259 59.0778 21.0526 58.6787 20.6037C58.2785 20.1559 57.6645 19.9314 56.8331 19.9314C55.8925 19.9314 55.1253 20.2319 54.5315 20.834C53.9365 21.4362 53.5647 22.2949 53.4163 23.4113L52.13 33.0276H47.9958L49.389 22.6227C49.5089 21.7259 49.37 21.0526 48.9709 20.6037C48.5719 20.1559 47.9566 19.9314 47.1253 19.9314C46.1847 19.9314 45.4175 20.2319 44.8236 20.834C44.2286 21.4362 43.8569 22.2949 43.7072 23.4113L42.4175 33.0276H38.2832V33.0264Z" fill="#FFFDFD"/>
<path d="M68.4993 14.8431C67.7559 14.8431 67.1596 14.602 66.7095 14.121C66.2595 13.64 66.0884 13.0046 66.1929 12.2171C66.2975 11.4297 66.6395 10.7956 67.2167 10.3134C67.7939 9.83239 68.4554 9.59131 69.1989 9.59131C69.9637 9.59131 70.5659 9.83239 71.004 10.3134C71.4423 10.7956 71.6098 11.4297 71.5053 12.2171C71.4008 13.0046 71.0646 13.64 70.497 14.121C69.9305 14.602 69.2642 14.8431 68.4993 14.8431ZM64.0088 33.026L66.0361 19.2813L70.3117 16.7469L68.143 33.026H64.0088Z" fill="#FFFDFD"/>
<path d="M76.9426 33.4857C75.6516 33.4857 74.4865 33.1627 73.445 32.5178C72.4034 31.8729 71.6279 30.9263 71.116 29.6793C70.6041 28.4323 70.4652 26.9228 70.7015 25.1497L70.7715 24.6247C71.008 22.8515 71.5471 21.342 72.3915 20.095C73.2348 18.848 74.2573 17.9014 75.4592 17.2565C76.66 16.6104 77.9165 16.2886 79.2288 16.2886C80.7158 16.2886 81.8084 16.5344 82.5091 17.0273C83.2086 17.5202 85.0302 19.3847 85.3052 19.9537L84.6711 17.3159L85.6969 10.0522H89.8286L86.7836 33.0273H82.7134L82.9747 31.0582H82.3844C81.9307 31.671 81.2835 32.2292 80.4391 32.7316C79.5946 33.234 78.4296 33.4857 76.9426 33.4857ZM78.6683 29.8752C79.9366 29.8752 81.0519 29.4656 82.0139 28.6449C82.9759 27.8242 83.5611 26.6259 83.7702 25.0511L83.8144 24.7232C84.0236 23.1472 83.7611 21.9501 83.0281 21.1294C82.2954 20.3087 81.2835 19.8991 79.9937 19.8991C78.7253 19.8991 77.6113 20.3087 76.6493 21.1294C75.6873 21.9501 75.1017 23.1484 74.8915 24.7232L74.8476 25.0511C74.6386 26.6271 74.9058 27.8242 75.6493 28.6449C76.3939 29.4656 77.3999 29.8752 78.6683 29.8752Z" fill="#FFFDFD"/>
<path d="M89.0781 33.0259L92.1206 10.0508H96.2523L93.2131 33.0259H89.0781Z" fill="#FFFDFD"/>
<path d="M96.414 39.5915L99.794 35.981H105.751C106.362 35.981 106.713 35.6521 106.8 34.9965L107.34 30.8932H106.75C106.415 31.4407 105.852 31.9762 105.061 32.5012C104.27 33.0262 103.142 33.2887 101.677 33.2887C100.407 33.2887 99.3357 32.9988 98.4598 32.4192C97.5848 31.8397 96.9532 31.0357 96.5648 30.0072C96.1748 28.9787 96.069 27.7969 96.2448 26.462L97.529 16.7471H101.661L100.421 26.1342C100.259 27.3599 100.437 28.2792 100.959 28.8907C101.479 29.5036 102.297 29.81 103.414 29.81C104.682 29.81 105.722 29.3884 106.532 28.5463C107.344 27.7043 107.848 26.5273 108.048 25.0178L109.138 16.7471H113.27L110.747 35.9145C110.6 37.0309 110.155 37.9217 109.412 38.5891C108.667 39.2566 107.747 39.5903 106.653 39.5903H96.414V39.5915Z" fill="#FFFDFD"/>
<path d="M38.2834 10.0282H32.0633L35.2585 0.152344H26.8678L23.4491 10.0282H22.1942L25.3893 0.152344H16.9987L13.5799 10.0282H12.088L15.2832 0.152344H6.89257L1.43009 15.9301H6.5755L0.683594 33.4857L13.8748 15.9301H16.6828L10.7908 33.4857L23.982 15.9301H26.553L20.6611 33.4857L38.2834 10.0282ZM6.13161 22.88L9.58042 13.7573L4.12907 13.8686L8.02289 2.7434L12.3618 2.63215L9.24667 11.7548H14.8092L15.2543 10.9761L14.2819 11.0172L14.3643 11.1986M22.2632 14.9812L21.5957 15.8712L20.4831 17.4287L16.2555 23.2137L19.8156 14.0911H15.2543L18.307 10.0282L15.8105 9.97475L18.4806 2.18715H22.3744L19.1481 11.9773L22.9307 12.0886H23.7094H24.8219H24.2657L22.2632 14.9812ZM25.2669 14.0911L28.4132 10.0282L25.6008 10.0861L28.1595 2.0759H32.4983L29.3833 11.8661L33.8333 11.9773L26.3795 22.6575L29.4945 14.2023L25.2669 14.0911Z" fill="#FFFDFD"/>
</g>
<defs>
<clipPath id="clip0_4515_52881">
<rect width="113.333" height="40" fill="white"/>
</clipPath>
</defs>
</svg>
