<svg width="72" height="29" viewBox="0 0 72 29" fill="none" xmlns="http://www.w3.org/2000/svg">
<g clip-path="url(#clip0)">
<path d="M31.9444 9.35852C31.9529 7.85221 30.4064 6.84075 29.0588 7.43941C28.3042 7.77466 27.8244 8.51047 27.8309 9.32416L27.8142 15.2962L27.809 17.0041L27.809 19.7869C27.83 21.868 29.9424 23.2814 31.8289 22.4433C31.8828 22.4193 31.9246 22.3681 31.9273 22.3016L31.9444 9.35852Z" fill="white"/>
<path d="M69.2605 7.30329C70.735 7.30329 71.7377 8.85553 71.1184 10.2287L63.1559 28.1093C63.1264 28.169 63.0674 28.1988 63.0084 28.1988C60.9441 28.1988 59.5875 26.0496 60.4133 24.1391L62.2712 19.96L57.4937 10.2884C56.8154 8.91523 57.8181 7.27344 59.3221 7.27344C60.0889 7.27344 60.7966 7.7212 61.1505 8.43762L64.424 15.0943L67.3731 8.49732C67.7269 7.7809 68.4642 7.30329 69.2605 7.30329Z" fill="white"/>
<path d="M49.6491 2.34785V22.2583H47.5553C46.7001 22.2583 45.9038 21.7508 45.5499 20.9747C45.1076 21.4523 44.4588 21.8404 43.6625 22.1687C42.8663 22.4673 42.011 22.6464 41.1558 22.6464C40.0942 22.6464 39.121 22.4374 38.2362 22.0195C37.3515 21.6016 36.5848 21.0344 35.936 20.318C35.2872 19.6016 34.7858 18.7658 34.432 17.8105C34.0781 16.8553 33.8716 15.8404 33.8716 14.7658C33.8716 13.6911 34.0486 12.6762 34.432 11.721C34.7858 10.7658 35.3167 9.92994 35.936 9.21352C36.5848 8.49711 37.3515 7.92994 38.2362 7.51203C39.121 7.09412 40.0942 6.88517 41.1558 6.88517C42.0995 6.88517 42.9253 7.00457 43.633 7.21352C44.3703 7.42248 44.9896 7.81054 45.5499 8.318V2.34785C45.5499 1.21352 46.4641 0.258301 47.6143 0.258301C48.7349 0.258301 49.6491 1.18367 49.6491 2.34785ZM45.5499 14.7956C45.5499 14.0195 45.4614 13.3628 45.255 12.8255C45.0486 12.2882 44.7832 11.8702 44.4293 11.5419C44.0754 11.2135 43.6625 10.9747 43.1907 10.8255C42.7188 10.6762 42.2175 10.5867 41.6867 10.5867C41.1558 10.5867 40.6545 10.7061 40.1826 10.915C39.7108 11.124 39.2979 11.4225 38.9735 11.8105C38.6196 12.1687 38.3542 12.6165 38.1478 13.124C37.9413 13.6314 37.8529 14.1687 37.8529 14.7359C37.8529 15.3329 37.9413 15.8702 38.1478 16.3479C38.3542 16.8553 38.6196 17.2732 38.9735 17.6613C39.3274 18.0195 39.7403 18.318 40.1826 18.5568C40.6545 18.7658 41.1558 18.8852 41.6867 18.8852C42.7483 18.8852 43.6625 18.5568 44.3998 17.8702C45.137 17.2135 45.5204 16.1986 45.5499 14.7956Z" fill="white"/>
<path d="M53.6894 0.228516C54.81 0.228516 55.7537 1.15389 55.7537 2.31807V22.2584H54.869C53.0701 22.2584 51.6251 20.7957 51.6251 18.9748V2.31807C51.6546 1.15389 52.5688 0.228516 53.6894 0.228516Z" fill="white"/>
<path d="M2.89008 10.4377C4.48623 10.4377 5.78016 9.12792 5.78016 7.51229C5.78016 5.89665 4.48623 4.58691 2.89008 4.58691C1.29393 4.58691 0 5.89665 0 7.51229C0 9.12792 1.29393 10.4377 2.89008 10.4377Z" fill="#F7C75C"/>
<path d="M18.8445 7.27316C16.9866 7.27316 15.2761 8.04928 14.0965 9.30301C12.8874 8.07913 11.2064 7.27316 9.31902 7.27316C8.55226 7.27316 7.815 7.42241 7.10722 7.66122C7.13671 7.81047 7.13671 7.95973 7.13671 8.10898C7.13671 10.1388 5.51473 11.8105 3.47988 11.8105C3.33243 11.8105 3.24395 11.8105 3.0965 11.7806C2.86058 12.497 2.83109 13.2433 2.83109 14.0194V20.7657C2.83109 22.4373 4.60052 23.6612 6.36996 21.6314V14.0791C6.36996 12.497 7.66754 11.1836 9.23055 11.1239C10.8525 11.0642 12.2681 12.3776 12.2681 14.0194V20.7657C12.2681 22.4373 14.0375 23.6612 15.807 21.6314V14.0194C15.807 12.4075 17.2225 11.0941 18.8445 11.1239C20.4075 11.1538 21.7051 12.497 21.7051 14.0791V20.7657C21.7051 22.4373 24.0643 23.6612 25.5389 21.6314V14.109C25.5389 10.3776 22.5308 7.24331 18.8445 7.27316Z" fill="white"/>
</g>
<defs>
<clipPath id="clip0">
<rect width="72" height="28" fill="white" transform="translate(0 0.228516)"/>
</clipPath>
</defs>
</svg>
