<svg width="136" height="48" viewBox="0 0 136 48" fill="none" xmlns="http://www.w3.org/2000/svg">
<g clip-path="url(#clip0_4508_52882)">
<path d="M45.9395 39.6316L48.5619 20.0967H53.4417L53.1566 22.2231H53.865C54.2939 21.5675 54.9353 20.996 55.7875 20.51C56.6398 20.024 57.7087 19.7817 58.9942 19.7817C60.3851 19.7817 61.4626 20.0511 62.2308 20.5898C62.9989 21.1285 63.5462 21.8297 63.8768 22.6962H64.5851C65.1438 21.8554 65.8664 21.1599 66.7528 20.6083C67.6393 20.0568 68.8308 19.7817 70.3258 19.7817C71.5315 19.7817 72.5932 20.0383 73.5096 20.5499C74.4246 21.0615 75.1087 21.8368 75.5604 22.8744C76.0122 23.9119 76.1334 25.2174 75.9239 26.7936L74.2108 39.633H69.2498L70.9172 27.1471C71.0612 26.071 70.893 25.263 70.4141 24.7243C69.9338 24.187 69.197 23.9176 68.1994 23.9176C67.0707 23.9176 66.15 24.2782 65.4374 25.0007C64.7234 25.7233 64.2773 26.7537 64.0992 28.0934L62.5557 39.633H57.5946L59.2664 27.1471C59.4103 26.071 59.2436 25.263 58.7647 24.7243C58.2859 24.187 57.5476 23.9176 56.55 23.9176C55.4213 23.9176 54.5006 24.2782 53.788 25.0007C53.074 25.7233 52.6279 26.7537 52.4483 28.0934L50.9006 39.633H45.9395V39.6316Z" fill="black"/>
<path d="M82.1991 17.8119C81.307 17.8119 80.5915 17.5226 80.0514 16.9454C79.5113 16.3682 79.306 15.6057 79.4314 14.6608C79.5569 13.7159 79.9673 12.9549 80.66 12.3763C81.3526 11.7991 82.1464 11.5098 83.0386 11.5098C83.9564 11.5098 84.679 11.7991 85.2048 12.3763C85.7307 12.9549 85.9317 13.7159 85.8063 14.6608C85.6809 15.6057 85.2775 16.3682 84.5963 16.9454C83.9165 17.5226 83.117 17.8119 82.1991 17.8119ZM76.8105 39.6314L79.2433 23.1378L84.374 20.0965L81.7716 39.6314H76.8105Z" fill="black"/>
<path d="M92.3314 40.1827C90.7822 40.1827 89.3841 39.795 88.1342 39.0212C86.8843 38.2473 85.9537 37.1114 85.3394 35.615C84.7252 34.1186 84.5585 32.3072 84.8421 30.1794L84.9261 29.5494C85.2098 27.4216 85.8568 25.6102 86.8701 24.1138C87.882 22.6174 89.109 21.4815 90.5513 20.7076C91.9922 19.9323 93.5 19.5461 95.0748 19.5461C96.8592 19.5461 98.1703 19.8411 99.0112 20.4326C99.8506 21.024 102.036 23.2615 102.366 23.9442L101.605 20.7789L102.836 12.0625H107.794L104.14 39.6326H99.2563L99.5699 37.2696H98.8615C98.3171 38.005 97.5404 38.6749 96.5271 39.2777C95.5138 39.8806 94.1157 40.1827 92.3314 40.1827ZM94.4022 35.8501C95.9242 35.8501 97.2625 35.3585 98.4169 34.3737C99.5713 33.3889 100.273 31.9509 100.524 30.0611L100.577 29.6677C100.828 27.7765 100.513 26.3399 99.634 25.3551C98.7547 24.3703 97.5404 23.8787 95.9927 23.8787C94.4706 23.8787 93.1338 24.3703 91.9794 25.3551C90.825 26.3399 90.1223 27.7779 89.8701 29.6677L89.8174 30.0611C89.5665 31.9523 89.8872 33.3889 90.7794 34.3737C91.6729 35.3585 92.8801 35.8501 94.4022 35.8501Z" fill="black"/>
<path d="M106.894 39.6311L110.545 12.061H115.503L111.856 39.6311H106.894Z" fill="black"/>
<path d="M115.697 47.51L119.753 43.1774H126.901C127.635 43.1774 128.056 42.7827 128.16 41.996L128.808 37.072H128.1C127.698 37.729 127.022 38.3717 126.073 39.0017C125.124 39.6316 123.77 39.9466 122.012 39.9466C120.488 39.9466 119.203 39.5988 118.152 38.9033C117.102 38.2078 116.344 37.243 115.878 36.0088C115.41 34.7746 115.283 33.3565 115.494 31.7546L117.035 20.0967H121.993L120.505 31.3613C120.311 32.8321 120.525 33.9352 121.151 34.6691C121.775 35.4045 122.757 35.7722 124.097 35.7722C125.619 35.7722 126.867 35.2663 127.839 34.2558C128.813 33.2454 129.418 31.833 129.658 30.0216L130.966 20.0967H135.924L132.897 43.0976C132.72 44.4373 132.186 45.5062 131.294 46.3071C130.4 47.1081 129.297 47.5086 127.984 47.5086H115.697V47.51Z" fill="black"/>
<path d="M45.9401 12.0336H38.476L42.3102 0.182617H32.2414L28.1389 12.0336H26.633L30.4672 0.182617H20.3984L16.2959 12.0336H14.5056L18.3398 0.182617H8.27108L1.71611 19.1159H7.8906L0.820312 40.1826L16.6497 19.1159H20.0193L12.949 40.1826L28.7784 19.1159H31.8636L24.7933 40.1826L45.9401 12.0336ZM7.35793 27.4558L11.4965 16.5086L4.95488 16.6421L9.62747 3.29189L14.8341 3.15839L11.096 14.1056H17.7711L18.3051 13.1711L17.1383 13.2205L17.2371 13.4381M26.7158 17.9772L25.9148 19.0452L24.5797 20.9142L19.5066 27.8563L23.7787 16.9091H18.3051L21.9684 12.0336L18.9726 11.9695L22.1767 2.62438H26.8493L22.9777 14.3726L27.5168 14.5061H28.4513H29.7863H29.1188L26.7158 17.9772ZM30.3203 16.9091L34.0958 12.0336L30.7209 12.1031L33.7914 2.49088H38.998L35.2599 14.2391L40.6 14.3726L31.6554 27.1888L35.3934 17.0426L30.3203 16.9091Z" fill="black"/>
</g>
<defs>
<clipPath id="clip0_4508_52882">
<rect width="136" height="48" fill="white"/>
</clipPath>
</defs>
</svg>
