<svg width="81" height="33" viewBox="0 0 81 33" fill="none" xmlns="http://www.w3.org/2000/svg">
<path d="M0.939941 25.5286L3.2709 8.16425H7.60851L7.35514 10.0543H7.98476C8.36607 9.47161 8.93614 8.96361 9.6937 8.53163C10.4513 8.09964 11.4014 7.88428 12.5441 7.88428C13.7805 7.88428 14.7382 8.12371 15.421 8.60257C16.1038 9.08143 16.5903 9.70471 16.8842 10.4749H17.5138C18.0104 9.72751 18.6527 9.1093 19.4407 8.61904C20.2286 8.12877 21.2877 7.88428 22.6166 7.88428C23.6883 7.88428 24.6321 8.11231 25.4467 8.5671C26.26 9.02189 26.868 9.71104 27.2696 10.6333C27.6712 11.5555 27.7789 12.7159 27.5927 14.1171L26.0699 25.5299H21.6601L23.1423 14.4312C23.2703 13.4748 23.1208 12.7565 22.6951 12.2776C22.2682 11.8 21.6133 11.5606 20.7265 11.5606C19.7232 11.5606 18.9048 11.8811 18.2714 12.5234C17.6367 13.1657 17.2402 14.0816 17.0818 15.2724L15.7099 25.5299H11.3L12.786 14.4312C12.914 13.4748 12.7658 12.7565 12.3401 12.2776C11.9144 11.8 11.2582 11.5606 10.3715 11.5606C9.36813 11.5606 8.54976 11.8811 7.91635 12.5234C7.28167 13.1657 6.88515 14.0816 6.72553 15.2724L5.34976 25.5299H0.939941V25.5286Z" fill="#FFFDFD"/>
<path d="M33.1702 6.13315C32.3772 6.13315 31.7413 5.87598 31.2611 5.36292C30.781 4.84986 30.5986 4.17211 30.7101 3.3322C30.8215 2.4923 31.1864 1.81581 31.8021 1.30148C32.4177 0.788415 33.1234 0.53125 33.9164 0.53125C34.7322 0.53125 35.3745 0.788415 35.842 1.30148C36.3094 1.81581 36.488 2.4923 36.3766 3.3322C36.2651 4.17211 35.9066 4.84986 35.301 5.36292C34.6968 5.87598 33.9861 6.13315 33.1702 6.13315ZM28.3804 25.5282L30.5428 10.8673L35.1034 8.16387L32.7902 25.5282H28.3804V25.5282Z" fill="#FFFDFD"/>
<path d="M42.1762 26.0182C40.7992 26.0182 39.5564 25.6736 38.4454 24.9857C37.3344 24.2978 36.5072 23.2882 35.9612 21.958C35.4152 20.6278 35.267 19.0177 35.5191 17.1263L35.5938 16.5664C35.8459 14.675 36.421 13.0649 37.3217 11.7347C38.2212 10.4046 39.3119 9.39491 40.594 8.70702C41.8747 8.01787 43.215 7.67456 44.6149 7.67456C46.2009 7.67456 47.3664 7.93679 48.1138 8.46252C48.86 8.98826 50.8033 10.9772 51.0959 11.584L50.4194 8.77036L51.514 1.02246H55.9213L52.6731 25.5292H48.3317L48.6104 23.4288H47.9808C47.4969 24.0825 46.8065 24.6779 45.9057 25.2138C45.005 25.7496 43.7623 26.0182 42.1762 26.0182ZM44.0169 22.167C45.3699 22.167 46.5594 21.73 47.5856 20.8546C48.6117 19.9792 49.2362 18.701 49.4592 17.0212L49.5061 16.6716C49.729 14.9905 49.4491 13.7135 48.6674 12.8381C47.8858 11.9628 46.8065 11.5257 45.4307 11.5257C44.0777 11.5257 42.8894 11.9628 41.8633 12.8381C40.8372 13.7135 40.2126 14.9917 39.9884 16.6716L39.9415 17.0212C39.7186 18.7023 40.0036 19.9792 40.7966 20.8546C41.5909 21.73 42.6639 22.167 44.0169 22.167Z" fill="#FFFDFD"/>
<path d="M55.1211 25.5282L58.3667 1.02148H62.774L59.5322 25.5282H55.1211Z" fill="#FFFDFD"/>
<path d="M62.9458 32.5314L66.5512 28.6803H72.9056C73.558 28.6803 73.9318 28.3294 74.0242 27.6301L74.6006 23.2532H73.971C73.6138 23.8372 73.0133 24.4086 72.1696 24.9685C71.3259 25.5284 70.1224 25.8084 68.5591 25.8084C67.2049 25.8084 66.0622 25.4993 65.1286 24.8811C64.1949 24.2629 63.521 23.4052 63.1067 22.3082C62.6912 21.2111 62.5785 19.9506 62.766 18.5267L64.1354 8.16406H68.5427L67.2201 18.177C67.0478 19.4844 67.2379 20.4649 67.794 21.1173C68.3489 21.771 69.2217 22.0979 70.4125 22.0979C71.7655 22.0979 72.8752 21.6481 73.7392 20.75C74.6044 19.8518 75.1428 18.5964 75.3557 16.9862L76.5186 8.16406H80.9259L78.2352 28.6094C78.0781 29.8002 77.603 30.7503 76.81 31.4622C76.0157 32.1742 75.0352 32.5302 73.8684 32.5302H62.9458V32.5314Z" fill="#FFFDFD"/>
</svg>
