<svg width="72" height="29" viewBox="0 0 72 29" fill="none" xmlns="http://www.w3.org/2000/svg">
<g clip-path="url(#clip0)">
<path d="M31.9444 9.38977C31.9529 7.88346 30.4064 6.872 29.0588 7.47066C28.3042 7.80591 27.8244 8.54172 27.8309 9.35541L27.8142 15.3275L27.809 17.0353L27.809 19.8181C27.83 21.8993 29.9424 23.3126 31.8289 22.4745C31.8828 22.4506 31.9246 22.3993 31.9273 22.3328L31.9444 9.38977Z" fill="white"/>
<path d="M69.2605 7.33454C70.735 7.33454 71.7377 8.88678 71.1184 10.2599L63.1559 28.1405C63.1264 28.2002 63.0674 28.2301 63.0084 28.2301C60.9441 28.2301 59.5875 26.0808 60.4133 24.1704L62.2712 19.9913L57.4937 10.3196C56.8154 8.94648 57.8181 7.30469 59.3221 7.30469C60.0889 7.30469 60.7966 7.75245 61.1505 8.46887L64.424 15.1256L67.3731 8.52857C67.7269 7.81215 68.4642 7.33454 69.2605 7.33454Z" fill="white"/>
<path d="M49.6491 2.3791V22.2895H47.5553C46.7001 22.2895 45.9038 21.7821 45.5499 21.006C45.1076 21.4836 44.4588 21.8716 43.6625 22.2C42.8663 22.4985 42.011 22.6776 41.1558 22.6776C40.0942 22.6776 39.121 22.4687 38.2362 22.0507C37.3515 21.6328 36.5848 21.0657 35.936 20.3493C35.2872 19.6328 34.7858 18.797 34.432 17.8418C34.0781 16.8866 33.8716 15.8716 33.8716 14.797C33.8716 13.7224 34.0486 12.7075 34.432 11.7522C34.7858 10.797 35.3167 9.96119 35.936 9.24477C36.5848 8.52836 37.3515 7.96119 38.2362 7.54328C39.121 7.12537 40.0942 6.91642 41.1558 6.91642C42.0995 6.91642 42.9253 7.03582 43.633 7.24477C44.3703 7.45373 44.9896 7.84179 45.5499 8.34925V2.3791C45.5499 1.24477 46.4641 0.289551 47.6143 0.289551C48.7349 0.289551 49.6491 1.21492 49.6491 2.3791ZM45.5499 14.8269C45.5499 14.0507 45.4614 13.394 45.255 12.8567C45.0486 12.3194 44.7832 11.9015 44.4293 11.5731C44.0754 11.2448 43.6625 11.006 43.1907 10.8567C42.7188 10.7075 42.2175 10.6179 41.6867 10.6179C41.1558 10.6179 40.6545 10.7373 40.1826 10.9463C39.7108 11.1552 39.2979 11.4537 38.9735 11.8418C38.6196 12.2 38.3542 12.6478 38.1478 13.1552C37.9413 13.6627 37.8529 14.2 37.8529 14.7672C37.8529 15.3642 37.9413 15.9015 38.1478 16.3791C38.3542 16.8866 38.6196 17.3045 38.9735 17.6925C39.3274 18.0507 39.7403 18.3493 40.1826 18.5881C40.6545 18.797 41.1558 18.9164 41.6867 18.9164C42.7483 18.9164 43.6625 18.5881 44.3998 17.9015C45.137 17.2448 45.5204 16.2298 45.5499 14.8269Z" fill="white"/>
<path d="M53.6894 0.259766C54.81 0.259766 55.7537 1.18514 55.7537 2.34932V22.2896H54.869C53.0701 22.2896 51.6251 20.8269 51.6251 19.006V2.34932C51.6546 1.18514 52.5688 0.259766 53.6894 0.259766Z" fill="white"/>
<path d="M2.89008 10.4689C4.48623 10.4689 5.78016 9.15917 5.78016 7.54354C5.78016 5.9279 4.48623 4.61816 2.89008 4.61816C1.29393 4.61816 0 5.9279 0 7.54354C0 9.15917 1.29393 10.4689 2.89008 10.4689Z" fill="#F7C75C"/>
<path d="M18.8445 7.30441C16.9866 7.30441 15.2761 8.08053 14.0965 9.33426C12.8874 8.11038 11.2064 7.30441 9.31902 7.30441C8.55226 7.30441 7.815 7.45366 7.10722 7.69247C7.13671 7.84172 7.13671 7.99098 7.13671 8.14023C7.13671 10.1701 5.51473 11.8417 3.47988 11.8417C3.33243 11.8417 3.24395 11.8417 3.0965 11.8119C2.86058 12.5283 2.83109 13.2746 2.83109 14.0507V20.7969C2.83109 22.4686 4.60052 23.6925 6.36996 21.6626V14.1104C6.36996 12.5283 7.66754 11.2149 9.23055 11.1552C10.8525 11.0955 12.2681 12.4089 12.2681 14.0507V20.7969C12.2681 22.4686 14.0375 23.6925 15.807 21.6626V14.0507C15.807 12.4387 17.2225 11.1253 18.8445 11.1552C20.4075 11.185 21.7051 12.5283 21.7051 14.1104V20.7969C21.7051 22.4686 24.0643 23.6925 25.5389 21.6626V14.1402C25.5389 10.4089 22.5308 7.27456 18.8445 7.30441Z" fill="white"/>
</g>
<defs>
<clipPath id="clip0">
<rect width="72" height="28" fill="white" transform="translate(0 0.259766)"/>
</clipPath>
</defs>
</svg>
