<svg width="33" height="33" viewBox="0 0 33 33" fill="none" xmlns="http://www.w3.org/2000/svg">
<path d="M16.5 0.802734C7.66363 0.802734 0.5 7.96613 0.5 16.8024C0.5 25.6397 7.66363 32.8027 16.5 32.8027C25.3368 32.8027 32.5 25.6397 32.5 16.8024C32.5 7.9667 25.3371 0.803498 16.4998 0.803498L16.5 0.802734ZM23.8375 23.8789C23.5501 24.3503 22.9361 24.4979 22.4662 24.2108C18.709 21.9144 13.9799 21.3957 8.41047 22.668C7.87379 22.791 7.33882 22.4546 7.21655 21.9181C7.09369 21.3814 7.42862 20.8464 7.96664 20.7241C14.0615 19.3307 19.2895 19.9305 23.5068 22.5075C23.9768 22.796 24.1258 23.4093 23.8373 23.8793L23.8375 23.8789ZM25.7959 19.523C25.434 20.1101 24.6663 20.2943 24.08 19.9337C19.7801 17.2906 13.2235 16.525 8.1365 18.0692C7.47676 18.2685 6.77997 17.8967 6.57974 17.2381C6.38103 16.5783 6.75304 15.8829 7.41162 15.6823C13.2224 13.9192 20.446 14.7732 25.3849 17.8082C25.9715 18.1693 26.1568 18.9374 25.7957 19.5231L25.7959 19.523ZM25.964 14.9864C20.8065 11.9235 12.2993 11.6419 7.37587 13.1362C6.58527 13.376 5.74919 12.9297 5.5096 12.1391C5.27001 11.3481 5.71595 10.5126 6.50712 10.2722C12.1589 8.55651 21.5543 8.88799 27.4913 12.4125C28.2025 12.8345 28.4357 13.7529 28.0143 14.4631C27.5939 15.1742 26.673 15.4087 25.9642 14.9864H25.964Z" fill="#1ED760"/>
</svg>
