<svg width="76" height="76" viewBox="0 0 76 76" fill="none" xmlns="http://www.w3.org/2000/svg">
<path d="M63.4558 12.5442C66.7988 15.8871 69.4505 19.8557 71.2597 24.2234C73.0688 28.5911 74 33.2724 74 38C74 42.7276 73.0688 47.4089 71.2597 51.7766C69.4505 56.1443 66.7988 60.1129 63.4558 63.4558C60.1129 66.7988 56.1443 69.4505 51.7766 71.2597C47.4089 73.0688 42.7276 74 38 74C33.2724 74 28.5911 73.0688 24.2234 71.2597C19.8557 69.4505 15.8871 66.7988 12.5442 63.4558C5.79285 56.7045 2 47.5478 2 38C2 28.4522 5.79285 19.2955 12.5442 12.5442C19.2955 5.79285 28.4522 2 38 2C47.5478 2 56.7045 5.79285 63.4558 12.5442" stroke="white" stroke-width="4" stroke-linecap="round" stroke-linejoin="round"/>
<path d="M16.436 26.5442C31.7519 22.0122 51.7398 25.1482 61.0558 31.0401" stroke="white" stroke-width="4" stroke-linecap="round" stroke-linejoin="round"/>
<path d="M18.2764 38.2162C31.7683 34.0122 47.7002 37.0242 56.5121 42.6921" stroke="white" stroke-width="4" stroke-linecap="round" stroke-linejoin="round"/>
<path d="M19.3003 49.0238C34.3122 45.6558 44.7361 48.0198 52.6161 52.7477" stroke="white" stroke-width="4" stroke-linecap="round" stroke-linejoin="round"/>
</svg>
