<svg width="55" height="55" viewBox="0 0 55 55" fill="none" xmlns="http://www.w3.org/2000/svg">
<path d="M27.4953 40.4814L36.5228 45.2247C36.9183 45.4327 37.3641 45.526 37.8098 45.4938C38.2555 45.4616 38.6834 45.3053 39.0449 45.0426C39.4064 44.7799 39.6872 44.4213 39.8554 44.0073C40.0237 43.5933 40.0727 43.1405 39.9969 42.7L38.2734 32.6511L45.5772 25.5407C45.8979 25.229 46.1248 24.8336 46.2323 24.3995C46.3397 23.9654 46.3234 23.5098 46.1852 23.0844C46.047 22.6591 45.7925 22.2809 45.4504 21.9929C45.1083 21.7048 44.6923 21.5183 44.2496 21.4545L34.1602 19.9875L29.6464 10.8385C29.4492 10.4369 29.1432 10.0986 28.7634 9.86201C28.3836 9.62541 27.9451 9.5 27.4976 9.5C27.0501 9.5 26.6116 9.62541 26.2318 9.86201C25.8519 10.0986 25.546 10.4369 25.3487 10.8385L20.8395 19.9875L10.7501 21.4545C10.3074 21.5183 9.89143 21.7048 9.54932 21.9929C9.20722 22.2809 8.95264 22.6591 8.81445 23.0844C8.67626 23.5098 8.65997 23.9654 8.76744 24.3995C8.87491 24.8336 9.10183 25.229 9.42249 25.5407L16.7263 32.6511L15.0028 42.7C14.927 43.1405 14.976 43.5933 15.1443 44.0073C15.3125 44.4213 15.5933 44.7799 15.9548 45.0426C16.3163 45.3053 16.7442 45.4616 17.1899 45.4938C17.6356 45.526 18.0814 45.4327 18.4769 45.2247L27.5043 40.4814H27.4953Z" fill="url(#paint0_linear_927_4219)" stroke="url(#paint1_linear_927_4219)" stroke-linecap="round" stroke-linejoin="round"/>
<defs>
<linearGradient id="paint0_linear_927_4219" x1="27.5011" y1="9.44189" x2="27.5011" y2="45.6998" gradientUnits="userSpaceOnUse">
<stop stop-color="#FFD900"/>
<stop offset="1" stop-color="#CA1249"/>
</linearGradient>
<linearGradient id="paint1_linear_927_4219" x1="27.5011" y1="9.44189" x2="27.5011" y2="45.6998" gradientUnits="userSpaceOnUse">
<stop stop-color="#FFD900"/>
<stop offset="1" stop-color="#CA1249"/>
</linearGradient>
</defs>
</svg>
