<svg width="33" height="32" viewBox="0 0 33 32" fill="none" xmlns="http://www.w3.org/2000/svg">
<path d="M23.5052 11.5514C25.5732 13.0276 28.1066 13.8962 30.8427 13.8962V8.63823C30.3249 8.63834 29.8084 8.58441 29.3018 8.47723V12.616C26.5659 12.616 24.0328 11.7474 21.9643 10.2713V21.0012C21.9643 26.3689 17.607 30.72 12.2323 30.72C10.2268 30.72 8.36285 30.1145 6.81445 29.0761C8.5817 30.8806 11.0463 32 13.7729 32C19.1479 32 23.5055 27.649 23.5055 22.2811V11.5514H23.5052V11.5514ZM25.4061 6.24674C24.3493 5.09372 23.6554 3.60365 23.5052 1.95631V1.28003H22.045C22.4126 3.37379 23.6663 5.16257 25.4061 6.24674ZM10.214 24.9571C9.62349 24.184 9.3044 23.2382 9.30583 22.2657C9.30583 19.8108 11.2988 17.8202 13.7577 17.8202C14.2159 17.8201 14.6714 17.8902 15.1081 18.0286V12.6531C14.5978 12.5833 14.0827 12.5536 13.5679 12.5645V16.7485C13.1308 16.6101 12.6751 16.5398 12.2168 16.5403C9.75792 16.5403 7.76502 18.5306 7.76502 20.9859C7.76502 22.7219 8.76119 24.225 10.214 24.9571Z" fill="#FF004F"/>
<path d="M21.9644 10.2712C24.0329 11.7473 26.5659 12.6159 29.3019 12.6159V8.47712C27.7747 8.15226 26.4227 7.35528 25.4062 6.24674C23.6662 5.16246 22.4126 3.37368 22.0451 1.28003H18.2094V22.2809C18.2007 24.7292 16.2111 26.7116 13.7575 26.7116C12.3117 26.7116 11.0272 26.0233 10.2137 24.9571C8.76105 24.225 7.76487 22.7218 7.76487 20.986C7.76487 18.5309 9.75777 16.5404 12.2166 16.5404C12.6877 16.5404 13.1418 16.6136 13.5677 16.7486V12.5646C8.28741 12.6735 4.04077 16.9821 4.04077 22.281C4.04077 24.9262 5.09828 27.3241 6.81464 29.0763C8.36304 30.1145 10.227 30.7201 12.2324 30.7201C17.6073 30.7201 21.9645 26.3688 21.9645 21.0012V10.2712H21.9644Z" fill="white"/>
<path d="M29.3019 8.47707V7.35798C27.9248 7.36006 26.5747 6.97492 25.4063 6.24658C26.4406 7.37742 27.8026 8.15715 29.3019 8.47707ZM22.0451 1.27998C22.01 1.07988 21.9831 0.878468 21.9644 0.676285V0H16.6684V21.0011C16.6599 23.449 14.6704 25.4314 12.2167 25.4314C11.4963 25.4314 10.8161 25.2606 10.2138 24.9572C11.0272 26.0233 12.3117 26.7114 13.7576 26.7114C16.2109 26.7114 18.2009 24.7292 18.2094 22.2809V1.27998H22.0451ZM13.568 12.5645V11.3732C13.1255 11.3128 12.6793 11.2825 12.2326 11.2827C6.85733 11.2826 2.5 15.6338 2.5 21.0011C2.5 24.366 4.21251 27.3316 6.81479 29.076C5.09844 27.324 4.04093 24.9259 4.04093 22.2808C4.04093 16.982 8.28746 12.6735 13.568 12.5645Z" fill="#00F2EA"/>
</svg>
