<svg width="39" height="33" viewBox="0 0 39 33" fill="none" xmlns="http://www.w3.org/2000/svg">
<path d="M38.1906 7.04648C37.7531 5.38398 36.4406 4.07148 34.7781 3.61211C31.7812 2.80273 19.75 2.80273 19.75 2.80273C19.75 2.80273 7.71875 2.80273 4.7 3.61211C3.0375 4.04961 1.74687 5.36211 1.2875 7.04648C0.5 10.0652 0.5 16.3652 0.5 16.3652C0.5 16.3652 0.5 22.6652 1.30937 25.684C1.74687 27.3465 3.05937 28.659 4.72187 29.1184C7.71875 29.9277 19.75 29.9277 19.75 29.9277C19.75 29.9277 31.7812 29.9277 34.8 29.1184C36.4625 28.6809 37.7531 27.3684 38.2125 25.684C39 22.6652 39 16.3652 39 16.3652C39 16.3652 39 10.0652 38.1906 7.04648Z" fill="#EE3124"/>
<path d="M15.8125 22.0963V10.6338L25.875 16.365L15.8125 22.0963Z" fill="white"/>
</svg>
